<svg width="887" height="710" viewBox="0 0 887 710" fill="none" xmlns="http://www.w3.org/2000/svg">
<path d="M0 20C0 8.9543 8.95431 0 20 0H260C271.046 0 280 8.95431 280 20V60H0V20Z" fill="url(#paint0_linear_1080_1044)"/>
<path d="M0 20C0 8.9543 8.95431 0 20 0H260C271.046 0 280 8.95431 280 20V60H0V20Z" fill="url(#paint1_linear_1080_1044)" fill-opacity="0.2"/>
<path d="M0 60H867C878.046 60 887 68.9543 887 80V690C887 701.046 878.046 710 867 710H20C8.95429 710 0 701.046 0 690V60Z" fill="url(#paint2_linear_1080_1044)"/>
<g filter="url(#filter0_i_1080_1044)">
<path d="M0 60C0 48.9543 8.9543 40 20 40H867C878.046 40 887 48.9543 887 60V670C887 681.046 878.046 690 867 690H20C8.95429 690 0 681.046 0 670V60Z" fill="#FCFEFF"/>
</g>
<g filter="url(#filter1_i_1080_1044)">
<path d="M0 60C0 48.9543 8.9543 40 20 40H867C878.046 40 887 48.9543 887 60V670C887 681.046 878.046 690 867 690H20C8.95429 690 0 681.046 0 670V60Z" fill="#FCFEFF"/>
</g>
<g filter="url(#filter2_i_1080_1044)">
<path d="M0 60C0 48.9543 8.9543 40 20 40H867C878.046 40 887 48.9543 887 60V670C887 681.046 878.046 690 867 690H20C8.95429 690 0 681.046 0 670V60Z" fill="#FCFEFF"/>
</g>
<g filter="url(#filter3_i_1080_1044)">
<path d="M0 60C0 48.9543 8.9543 40 20 40H867C878.046 40 887 48.9543 887 60V670C887 681.046 878.046 690 867 690H20C8.95429 690 0 681.046 0 670V60Z" fill="#FCFEFF"/>
</g>
<g filter="url(#filter4_i_1080_1044)">
<path d="M0 80C0 68.9543 8.9543 60 20 60H867C878.046 60 887 68.9543 887 80V690C887 701.046 878.046 710 867 710H20C8.95429 710 0 701.046 0 690V80Z" fill="url(#paint3_linear_1080_1044)"/>
</g>
<defs>
<filter id="filter0_i_1080_1044" x="0" y="40" width="891" height="654" filterUnits="userSpaceOnUse" color-interpolation-filters="sRGB">
<feFlood flood-opacity="0" result="BackgroundImageFix"/>
<feBlend mode="normal" in="SourceGraphic" in2="BackgroundImageFix" result="shape"/>
<feColorMatrix in="SourceAlpha" type="matrix" values="0 0 0 0 0 0 0 0 0 0 0 0 0 0 0 0 0 0 127 0" result="hardAlpha"/>
<feMorphology radius="16" operator="dilate" in="SourceAlpha" result="effect1_innerShadow_1080_1044"/>
<feOffset dx="4" dy="4"/>
<feGaussianBlur stdDeviation="50"/>
<feComposite in2="hardAlpha" operator="arithmetic" k2="-1" k3="1"/>
<feColorMatrix type="matrix" values="0 0 0 0 0.668063 0 0 0 0 0.889354 0 0 0 0 1 0 0 0 0.5 0"/>
<feBlend mode="normal" in2="shape" result="effect1_innerShadow_1080_1044"/>
</filter>
<filter id="filter1_i_1080_1044" x="0" y="40" width="891" height="654" filterUnits="userSpaceOnUse" color-interpolation-filters="sRGB">
<feFlood flood-opacity="0" result="BackgroundImageFix"/>
<feBlend mode="normal" in="SourceGraphic" in2="BackgroundImageFix" result="shape"/>
<feColorMatrix in="SourceAlpha" type="matrix" values="0 0 0 0 0 0 0 0 0 0 0 0 0 0 0 0 0 0 127 0" result="hardAlpha"/>
<feMorphology radius="16" operator="dilate" in="SourceAlpha" result="effect1_innerShadow_1080_1044"/>
<feOffset dx="4" dy="4"/>
<feGaussianBlur stdDeviation="50"/>
<feComposite in2="hardAlpha" operator="arithmetic" k2="-1" k3="1"/>
<feColorMatrix type="matrix" values="0 0 0 0 0.668063 0 0 0 0 0.889354 0 0 0 0 1 0 0 0 0.5 0"/>
<feBlend mode="normal" in2="shape" result="effect1_innerShadow_1080_1044"/>
</filter>
<filter id="filter2_i_1080_1044" x="0" y="40" width="891" height="654" filterUnits="userSpaceOnUse" color-interpolation-filters="sRGB">
<feFlood flood-opacity="0" result="BackgroundImageFix"/>
<feBlend mode="normal" in="SourceGraphic" in2="BackgroundImageFix" result="shape"/>
<feColorMatrix in="SourceAlpha" type="matrix" values="0 0 0 0 0 0 0 0 0 0 0 0 0 0 0 0 0 0 127 0" result="hardAlpha"/>
<feMorphology radius="16" operator="dilate" in="SourceAlpha" result="effect1_innerShadow_1080_1044"/>
<feOffset dx="4" dy="4"/>
<feGaussianBlur stdDeviation="50"/>
<feComposite in2="hardAlpha" operator="arithmetic" k2="-1" k3="1"/>
<feColorMatrix type="matrix" values="0 0 0 0 0.668063 0 0 0 0 0.889354 0 0 0 0 1 0 0 0 0.5 0"/>
<feBlend mode="normal" in2="shape" result="effect1_innerShadow_1080_1044"/>
</filter>
<filter id="filter3_i_1080_1044" x="0" y="40" width="891" height="654" filterUnits="userSpaceOnUse" color-interpolation-filters="sRGB">
<feFlood flood-opacity="0" result="BackgroundImageFix"/>
<feBlend mode="normal" in="SourceGraphic" in2="BackgroundImageFix" result="shape"/>
<feColorMatrix in="SourceAlpha" type="matrix" values="0 0 0 0 0 0 0 0 0 0 0 0 0 0 0 0 0 0 127 0" result="hardAlpha"/>
<feMorphology radius="16" operator="dilate" in="SourceAlpha" result="effect1_innerShadow_1080_1044"/>
<feOffset dx="4" dy="4"/>
<feGaussianBlur stdDeviation="50"/>
<feComposite in2="hardAlpha" operator="arithmetic" k2="-1" k3="1"/>
<feColorMatrix type="matrix" values="0 0 0 0 0.668063 0 0 0 0 0.889354 0 0 0 0 1 0 0 0 0.5 0"/>
<feBlend mode="normal" in2="shape" result="effect1_innerShadow_1080_1044"/>
</filter>
<filter id="filter4_i_1080_1044" x="0" y="60" width="891" height="654" filterUnits="userSpaceOnUse" color-interpolation-filters="sRGB">
<feFlood flood-opacity="0" result="BackgroundImageFix"/>
<feBlend mode="normal" in="SourceGraphic" in2="BackgroundImageFix" result="shape"/>
<feColorMatrix in="SourceAlpha" type="matrix" values="0 0 0 0 0 0 0 0 0 0 0 0 0 0 0 0 0 0 127 0" result="hardAlpha"/>
<feMorphology radius="16" operator="dilate" in="SourceAlpha" result="effect1_innerShadow_1080_1044"/>
<feOffset dx="4" dy="4"/>
<feGaussianBlur stdDeviation="50"/>
<feComposite in2="hardAlpha" operator="arithmetic" k2="-1" k3="1"/>
<feColorMatrix type="matrix" values="0 0 0 0 0.668063 0 0 0 0 0.889354 0 0 0 0 1 0 0 0 0.5 0"/>
<feBlend mode="normal" in2="shape" result="effect1_innerShadow_1080_1044"/>
</filter>
<linearGradient id="paint0_linear_1080_1044" x1="891" y1="704.5" x2="947.181" y2="86.0415" gradientUnits="userSpaceOnUse">
<stop stop-color="#6CD8FF"/>
<stop offset="1" stop-color="#6EC0FF"/>
</linearGradient>
<linearGradient id="paint1_linear_1080_1044" x1="24.3067" y1="-1.56442" x2="55.7319" y2="109.299" gradientUnits="userSpaceOnUse">
<stop stop-color="#FCFEFF" stop-opacity="0.5"/>
<stop offset="1" stop-color="#3EBFFF" stop-opacity="0.5"/>
</linearGradient>
<linearGradient id="paint2_linear_1080_1044" x1="887" y1="710" x2="2.12455" y2="1.34708" gradientUnits="userSpaceOnUse">
<stop stop-color="#6CD8FF"/>
<stop offset="1" stop-color="#6EC0FF"/>
</linearGradient>
<linearGradient id="paint3_linear_1080_1044" x1="0" y1="60" x2="812.044" y2="712.435" gradientUnits="userSpaceOnUse">
<stop stop-color="#6CD8FF"/>
<stop offset="1" stop-color="#66BDFF"/>
</linearGradient>
</defs>
</svg>
