<svg width="1546" height="1010" viewBox="0 0 1546 1010" fill="none" xmlns="http://www.w3.org/2000/svg">
<rect x="1" y="1" width="1543.26" height="1007.72" rx="13.6639" fill="#068F7D"/>
<rect x="1" y="1" width="1543.26" height="1007.72" rx="13.6639" stroke="#2F2F2F" stroke-width="2"/>
<path d="M59.1541 653.62C98.2258 653.62 136.915 661.316 173.013 676.268C209.11 691.22 241.909 713.136 269.537 740.764C297.165 768.392 319.081 801.191 334.033 837.289C348.985 873.386 356.681 912.075 356.681 951.147" stroke="#FDFEFF" stroke-opacity="0.5" stroke-width="1.40564"/>
<path d="M351.994 951.148H361.365" stroke="#FDFEFF" stroke-opacity="0.5" stroke-width="1.40564"/>
<path d="M350.882 925.625L360.218 924.805" stroke="#FDFEFF" stroke-opacity="0.5" stroke-width="1.40564"/>
<path d="M347.543 900.297L356.773 898.669" stroke="#FDFEFF" stroke-opacity="0.5" stroke-width="1.40564"/>
<path d="M342.016 875.362L351.07 872.925" stroke="#FDFEFF" stroke-opacity="0.5" stroke-width="1.40564"/>
<path d="M334.329 850.983L343.138 847.786" stroke="#FDFEFF" stroke-opacity="0.5" stroke-width="1.40564"/>
<path d="M324.562 827.393L333.055 823.422" stroke="#FDFEFF" stroke-opacity="0.5" stroke-width="1.40564"/>
<path d="M312.765 804.727L320.871 800.041" stroke="#FDFEFF" stroke-opacity="0.5" stroke-width="1.40564"/>
<path d="M299.037 783.188L306.71 777.812" stroke="#FDFEFF" stroke-opacity="0.5" stroke-width="1.40564"/>
<path d="M283.479 762.907L290.66 756.886" stroke="#FDFEFF" stroke-opacity="0.5" stroke-width="1.40564"/>
<path d="M266.225 744.072L272.843 737.454" stroke="#FDFEFF" stroke-opacity="0.5" stroke-width="1.40564"/>
<path d="M247.391 726.822L253.412 719.641" stroke="#FDFEFF" stroke-opacity="0.5" stroke-width="1.40564"/>
<path d="M227.115 711.262L232.491 703.59" stroke="#FDFEFF" stroke-opacity="0.5" stroke-width="1.40564"/>
<path d="M205.572 697.534L210.258 689.428" stroke="#FDFEFF" stroke-opacity="0.5" stroke-width="1.40564"/>
<path d="M182.907 685.74L186.878 677.247" stroke="#FDFEFF" stroke-opacity="0.5" stroke-width="1.40564"/>
<path d="M159.316 675.967L162.514 667.159" stroke="#FDFEFF" stroke-opacity="0.5" stroke-width="1.40564"/>
<path d="M134.94 668.286L137.376 659.231" stroke="#FDFEFF" stroke-opacity="0.5" stroke-width="1.40564"/>
<path d="M110.002 662.755L111.63 653.524" stroke="#FDFEFF" stroke-opacity="0.5" stroke-width="1.40564"/>
<path d="M84.6775 659.42L85.4974 650.084" stroke="#FDFEFF" stroke-opacity="0.5" stroke-width="1.40564"/>
<path d="M59.1534 658.305V648.934" stroke="#FDFEFF" stroke-opacity="0.5" stroke-width="1.40564"/>
<path d="M59.1536 356.095C137.297 356.095 214.675 371.486 286.871 401.39C359.066 431.295 424.664 475.126 479.92 530.382C535.176 585.638 579.007 651.236 608.911 723.431C638.815 795.626 654.207 873.004 654.207 951.148" stroke="#FDFEFF" stroke-opacity="0.5" stroke-width="1.40564"/>
<path d="M649.521 951.144H658.892" stroke="#FDFEFF" stroke-opacity="0.5" stroke-width="1.40564"/>
<path d="M647.272 899.689L656.608 898.881" stroke="#FDFEFF" stroke-opacity="0.5" stroke-width="1.40564"/>
<path d="M640.547 848.629L649.778 847.001" stroke="#FDFEFF" stroke-opacity="0.5" stroke-width="1.40564"/>
<path d="M629.408 798.357L638.451 795.921" stroke="#FDFEFF" stroke-opacity="0.5" stroke-width="1.40564"/>
<path d="M613.922 749.227L622.719 746.029" stroke="#FDFEFF" stroke-opacity="0.5" stroke-width="1.40564"/>
<path d="M594.209 701.645L602.701 697.686" stroke="#FDFEFF" stroke-opacity="0.5" stroke-width="1.40564"/>
<path d="M570.431 655.966L578.548 651.281" stroke="#FDFEFF" stroke-opacity="0.5" stroke-width="1.40564"/>
<path d="M542.751 612.528L550.435 607.152" stroke="#FDFEFF" stroke-opacity="0.5" stroke-width="1.40564"/>
<path d="M511.406 571.672L518.575 565.64" stroke="#FDFEFF" stroke-opacity="0.5" stroke-width="1.40564"/>
<path d="M476.604 533.696L483.234 527.066" stroke="#FDFEFF" stroke-opacity="0.5" stroke-width="1.40564"/>
<path d="M438.628 498.895L444.66 491.727" stroke="#FDFEFF" stroke-opacity="0.5" stroke-width="1.40564"/>
<path d="M397.772 467.55L403.148 459.865" stroke="#FDFEFF" stroke-opacity="0.5" stroke-width="1.40564"/>
<path d="M354.337 439.87L359.022 431.753" stroke="#FDFEFF" stroke-opacity="0.5" stroke-width="1.40564"/>
<path d="M308.654 416.092L312.613 407.6" stroke="#FDFEFF" stroke-opacity="0.5" stroke-width="1.40564"/>
<path d="M261.073 396.374L264.27 387.577" stroke="#FDFEFF" stroke-opacity="0.5" stroke-width="1.40564"/>
<path d="M211.945 380.89L214.381 371.847" stroke="#FDFEFF" stroke-opacity="0.5" stroke-width="1.40564"/>
<path d="M161.671 369.751L163.3 360.521" stroke="#FDFEFF" stroke-opacity="0.5" stroke-width="1.40564"/>
<path d="M110.611 363.029L111.419 353.693" stroke="#FDFEFF" stroke-opacity="0.5" stroke-width="1.40564"/>
<path d="M59.153 360.779V351.408" stroke="#FDFEFF" stroke-opacity="0.5" stroke-width="1.40564"/>
<path d="M59.1526 58.5649C295.88 58.5649 522.911 152.604 690.302 319.996C857.693 487.387 951.733 714.418 951.733 951.145" stroke="#FDFEFF" stroke-opacity="0.5" stroke-width="1.40564"/>
<path d="M947.048 951.147H956.418" stroke="#FDFEFF" stroke-opacity="0.5" stroke-width="1.40564"/>
<path d="M943.674 873.768L953.01 872.948" stroke="#FDFEFF" stroke-opacity="0.5" stroke-width="1.40564"/>
<path d="M933.553 796.961L942.784 795.344" stroke="#FDFEFF" stroke-opacity="0.5" stroke-width="1.40564"/>
<path d="M916.791 721.346L925.845 718.909" stroke="#FDFEFF" stroke-opacity="0.5" stroke-width="1.40564"/>
<path d="M893.505 647.472L902.302 644.262" stroke="#FDFEFF" stroke-opacity="0.5" stroke-width="1.40564"/>
<path d="M863.857 575.913L872.35 571.942" stroke="#FDFEFF" stroke-opacity="0.5" stroke-width="1.40564"/>
<path d="M828.095 507.198L836.212 502.513" stroke="#FDFEFF" stroke-opacity="0.5" stroke-width="1.40564"/>
<path d="M786.477 441.871L794.149 436.494" stroke="#FDFEFF" stroke-opacity="0.5" stroke-width="1.40564"/>
<path d="M739.318 380.42L746.498 374.387" stroke="#FDFEFF" stroke-opacity="0.5" stroke-width="1.40564"/>
<path d="M686.992 323.308L693.61 316.689" stroke="#FDFEFF" stroke-opacity="0.5" stroke-width="1.40564"/>
<path d="M629.877 270.979L635.909 263.799" stroke="#FDFEFF" stroke-opacity="0.5" stroke-width="1.40564"/>
<path d="M568.427 223.821L573.804 216.149" stroke="#FDFEFF" stroke-opacity="0.5" stroke-width="1.40564"/>
<path d="M503.1 182.207L507.785 174.09" stroke="#FDFEFF" stroke-opacity="0.5" stroke-width="1.40564"/>
<path d="M434.387 146.439L438.358 137.946" stroke="#FDFEFF" stroke-opacity="0.5" stroke-width="1.40564"/>
<path d="M362.829 116.797L366.039 108" stroke="#FDFEFF" stroke-opacity="0.5" stroke-width="1.40564"/>
<path d="M288.951 93.5088L291.388 84.4541" stroke="#FDFEFF" stroke-opacity="0.5" stroke-width="1.40564"/>
<path d="M213.339 76.7474L214.956 67.5171" stroke="#FDFEFF" stroke-opacity="0.5" stroke-width="1.40564"/>
<path d="M136.532 66.6246L137.352 57.2888" stroke="#FDFEFF" stroke-opacity="0.5" stroke-width="1.40564"/>
<path d="M59.152 63.2493V53.8784" stroke="#FDFEFF" stroke-opacity="0.5" stroke-width="1.40564"/>
<path d="M59.1526 58.5649L59.1526 951.145" stroke="#FDFEFF" stroke-width="1.75705"/>
<path d="M88.9052 58.5676L88.9052 951.148" stroke="#FDFEFF" stroke-opacity="0.5" stroke-width="1.40564"/>
<path d="M118.66 58.5701L118.66 951.15" stroke="#FDFEFF" stroke-opacity="0.5" stroke-width="1.40564"/>
<path d="M148.412 58.569V951.149" stroke="#FDFEFF" stroke-opacity="0.5" stroke-width="1.40564"/>
<path d="M178.164 58.5677V951.148" stroke="#FDFEFF" stroke-opacity="0.5" stroke-width="1.40564"/>
<path d="M207.916 58.5667V951.147" stroke="#FDFEFF" stroke-opacity="0.5" stroke-width="1.17137"/>
<path d="M237.668 58.5693V951.149" stroke="#FDFEFF" stroke-opacity="0.5" stroke-width="1.40564"/>
<path d="M267.421 58.5681V951.148" stroke="#FDFEFF" stroke-opacity="0.5" stroke-width="1.40564"/>
<path d="M297.174 58.5668V951.147" stroke="#FDFEFF" stroke-opacity="0.5" stroke-width="1.40564"/>
<path d="M326.928 58.5693V951.149" stroke="#FDFEFF" stroke-opacity="0.5" stroke-width="1.40564"/>
<path d="M356.679 58.5642V951.144" stroke="#FDFEFF" stroke-width="1.75705"/>
<path d="M385.963 58.5649V951.145" stroke="#FDFEFF" stroke-opacity="0.5" stroke-width="1.40564"/>
<path d="M416.185 58.5656V951.146" stroke="#FDFEFF" stroke-opacity="0.5" stroke-width="1.40564"/>
<path d="M445.937 58.5685V951.149" stroke="#FDFEFF" stroke-opacity="0.5" stroke-width="1.40564"/>
<path d="M475.69 58.5673V951.147" stroke="#FDFEFF" stroke-opacity="0.5" stroke-width="1.40564"/>
<path d="M505.443 58.5699V951.15" stroke="#FDFEFF" stroke-opacity="0.5" stroke-width="1.17137"/>
<path d="M535.195 58.5648V951.145" stroke="#FDFEFF" stroke-opacity="0.5" stroke-width="1.40564"/>
<path d="M564.948 58.5675V951.148" stroke="#FDFEFF" stroke-opacity="0.5" stroke-width="1.40564"/>
<path d="M594.702 58.5701V951.15" stroke="#FDFEFF" stroke-opacity="0.5" stroke-width="1.40564"/>
<path d="M624.453 58.5651V951.145" stroke="#FDFEFF" stroke-opacity="0.5" stroke-width="1.40564"/>
<path d="M654.206 58.5677V951.148" stroke="#FDFEFF" stroke-width="1.75705"/>
<path d="M683.961 58.5663V951.146" stroke="#FDFEFF" stroke-opacity="0.5" stroke-width="1.40564"/>
<path d="M713.712 58.5652V951.145" stroke="#FDFEFF" stroke-opacity="0.5" stroke-width="1.40564"/>
<path d="M743.464 58.5679V951.148" stroke="#FDFEFF" stroke-opacity="0.5" stroke-width="1.40564"/>
<path d="M773.216 58.5667V951.147" stroke="#FDFEFF" stroke-opacity="0.5" stroke-width="1.40564"/>
<path d="M802.969 58.5654V951.146" stroke="#FDFEFF" stroke-opacity="0.5" stroke-width="1.17137"/>
<path d="M832.723 58.5679V951.148" stroke="#FDFEFF" stroke-opacity="0.5" stroke-width="1.40564"/>
<path d="M862.476 58.5668V951.147" stroke="#FDFEFF" stroke-opacity="0.5" stroke-width="1.40564"/>
<path d="M892.228 58.5657V951.146" stroke="#FDFEFF" stroke-opacity="0.5" stroke-width="1.40564"/>
<path d="M921.98 58.5645V951.145" stroke="#FDFEFF" stroke-opacity="0.5" stroke-width="1.40564"/>
<path d="M951.733 58.567V951.147" stroke="#FDFEFF" stroke-width="1.75705"/>
<path d="M981.486 58.5697V951.15" stroke="#FDFEFF" stroke-opacity="0.5" stroke-width="1.40564"/>
<path d="M1011.24 58.5646V951.145" stroke="#FDFEFF" stroke-opacity="0.5" stroke-width="1.40564"/>
<path d="M1040.99 58.5674V951.148" stroke="#FDFEFF" stroke-opacity="0.5" stroke-width="1.40564"/>
<path d="M1070.74 58.5662V951.146" stroke="#FDFEFF" stroke-opacity="0.5" stroke-width="1.40564"/>
<path d="M1100.5 58.5648V951.145" stroke="#FDFEFF" stroke-opacity="0.5" stroke-width="1.17137"/>
<path d="M1130.25 58.5675V951.148" stroke="#FDFEFF" stroke-opacity="0.5" stroke-width="1.40564"/>
<path d="M1160 58.5665V951.147" stroke="#FDFEFF" stroke-opacity="0.5" stroke-width="1.40564"/>
<path d="M1189.75 58.569V951.149" stroke="#FDFEFF" stroke-opacity="0.5" stroke-width="1.40564"/>
<path d="M1219.51 58.5679V951.148" stroke="#FDFEFF" stroke-opacity="0.5" stroke-width="1.40564"/>
<path d="M1249.26 58.5667V951.147" stroke="#FDFEFF" stroke-width="1.75705"/>
<path d="M1279.01 58.5652V951.145" stroke="#FDFEFF" stroke-opacity="0.5" stroke-width="1.40564"/>
<path d="M1308.76 58.5641V951.144" stroke="#FDFEFF" stroke-opacity="0.5" stroke-width="1.40564"/>
<path d="M1338.52 58.5669V951.147" stroke="#FDFEFF" stroke-opacity="0.5" stroke-width="1.40564"/>
<path d="M1368.27 58.5654V951.146" stroke="#FDFEFF" stroke-opacity="0.5" stroke-width="1.40564"/>
<path d="M1398.02 58.5682V951.148" stroke="#FDFEFF" stroke-opacity="0.5" stroke-width="1.17137"/>
<path d="M1427.78 58.5669V951.147" stroke="#FDFEFF" stroke-opacity="0.5" stroke-width="1.40564"/>
<path d="M1457.53 58.5657V951.146" stroke="#FDFEFF" stroke-opacity="0.5" stroke-width="1.40564"/>
<path d="M1487.28 58.5682V951.148" stroke="#FDFEFF" stroke-opacity="0.5" stroke-width="1.40564"/>
<path d="M59.1526 58.5649L1487.28 58.5649" stroke="#FDFEFF" stroke-width="1.75705"/>
<path d="M59.1519 88.3173L1487.28 88.3173" stroke="#FDFEFF" stroke-opacity="0.5" stroke-width="1.40564"/>
<path d="M59.153 118.069L1487.28 118.069" stroke="#FDFEFF" stroke-opacity="0.5" stroke-width="1.40564"/>
<path d="M59.1547 147.825L1487.28 147.825" stroke="#FDFEFF" stroke-opacity="0.5" stroke-width="1.40564"/>
<path d="M59.1539 177.578L1487.28 177.578" stroke="#FDFEFF" stroke-opacity="0.5" stroke-width="1.40564"/>
<path d="M59.1531 207.33L1487.28 207.33" stroke="#FDFEFF" stroke-opacity="0.5" stroke-width="1.17137"/>
<path d="M59.1542 237.082L1487.28 237.082" stroke="#FDFEFF" stroke-opacity="0.5" stroke-width="1.40564"/>
<path d="M59.152 266.838H1487.28" stroke="#FDFEFF" stroke-opacity="0.5" stroke-width="1.40564"/>
<path d="M59.1532 296.59H1487.28" stroke="#FDFEFF" stroke-opacity="0.5" stroke-width="1.40564"/>
<path d="M59.1524 326.343H1487.28" stroke="#FDFEFF" stroke-opacity="0.5" stroke-width="1.40564"/>
<path d="M59.1536 356.095H1487.28" stroke="#FDFEFF" stroke-width="1.75705"/>
<path d="M59.1528 385.847H1487.28" stroke="#FDFEFF" stroke-opacity="0.5" stroke-width="1.40564"/>
<path d="M59.1539 415.599H1487.28" stroke="#FDFEFF" stroke-opacity="0.5" stroke-width="1.40564"/>
<path d="M59.1512 445.351H1487.28" stroke="#FDFEFF" stroke-opacity="0.5" stroke-width="1.40564"/>
<path d="M59.1524 475.104H1487.28" stroke="#FDFEFF" stroke-opacity="0.5" stroke-width="1.40564"/>
<path d="M59.1541 504.859H1487.28" stroke="#FDFEFF" stroke-opacity="0.5" stroke-width="1.17137"/>
<path d="M59.1533 534.612H1487.28" stroke="#FDFEFF" stroke-opacity="0.5" stroke-width="1.40564"/>
<path d="M59.152 564.36H1487.28" stroke="#FDFEFF" stroke-opacity="0.5" stroke-width="1.40564"/>
<path d="M59.1536 594.116H1487.28" stroke="#FDFEFF" stroke-opacity="0.5" stroke-width="1.40564"/>
<path d="M59.1529 623.868H1487.28" stroke="#FDFEFF" stroke-opacity="0.5" stroke-width="1.40564"/>
<path d="M59.1541 653.62H1487.28" stroke="#FDFEFF" stroke-width="1.75705"/>
<path d="M59.1533 683.373H1487.28" stroke="#FDFEFF" stroke-opacity="0.5" stroke-width="1.40564"/>
<path d="M59.1525 713.125H1487.28" stroke="#FDFEFF" stroke-opacity="0.5" stroke-width="1.40564"/>
<path d="M59.1517 742.877H1487.28" stroke="#FDFEFF" stroke-opacity="0.5" stroke-width="1.40564"/>
<path d="M59.1529 772.629H1487.28" stroke="#FDFEFF" stroke-opacity="0.5" stroke-width="1.40564"/>
<path d="M59.1527 802.385H1487.28" stroke="#FDFEFF" stroke-opacity="0.5" stroke-width="1.17137"/>
<path d="M59.1537 832.137H1487.28" stroke="#FDFEFF" stroke-opacity="0.5" stroke-width="1.40564"/>
<path d="M59.1525 861.886H1487.28" stroke="#FDFEFF" stroke-opacity="0.5" stroke-width="1.40564"/>
<path d="M59.1541 891.642H1487.28" stroke="#FDFEFF" stroke-opacity="0.5" stroke-width="1.40564"/>
<path d="M59.1533 921.394H1487.28" stroke="#FDFEFF" stroke-opacity="0.5" stroke-width="1.40564"/>
<path d="M59.1526 951.146H1487.28" stroke="#FDFEFF" stroke-width="1.75705"/>
<path d="M59.1521 35.1362V58.5635" stroke="#FDFEFF" stroke-width="1.75705"/>
<path d="M88.9047 35.139V46.8527" stroke="#FDFEFF" stroke-width="1.75705"/>
<path d="M118.659 35.1376V46.8512" stroke="#FDFEFF" stroke-width="1.75705"/>
<path d="M148.411 35.1403V46.8539" stroke="#FDFEFF" stroke-width="1.75705"/>
<path d="M178.163 35.1392V46.8528" stroke="#FDFEFF" stroke-width="1.75705"/>
<path d="M207.918 35.1416V52.7121" stroke="#FDFEFF" stroke-width="1.75705"/>
<path d="M237.667 35.1368V46.8505" stroke="#FDFEFF" stroke-width="1.75705"/>
<path d="M267.421 35.1394V46.8531" stroke="#FDFEFF" stroke-width="1.75705"/>
<path d="M297.175 35.1381V46.8517" stroke="#FDFEFF" stroke-width="1.75705"/>
<path d="M326.927 35.1368V46.8505" stroke="#FDFEFF" stroke-width="1.75705"/>
<path d="M356.679 35.1395V58.5668" stroke="#FDFEFF" stroke-width="1.75705"/>
<path d="M386.432 35.1383V46.852" stroke="#FDFEFF" stroke-width="1.75705"/>
<path d="M416.184 35.1371V46.8507" stroke="#FDFEFF" stroke-width="1.75705"/>
<path d="M445.938 35.1398V46.8534" stroke="#FDFEFF" stroke-width="1.75705"/>
<path d="M475.689 35.1387V46.8523" stroke="#FDFEFF" stroke-width="1.75705"/>
<path d="M505.443 35.1411V52.7116" stroke="#FDFEFF" stroke-width="1.75705"/>
<path d="M535.195 35.1361V46.8498" stroke="#FDFEFF" stroke-width="1.75705"/>
<path d="M564.948 35.1387V46.8523" stroke="#FDFEFF" stroke-width="1.75705"/>
<path d="M594.701 35.1376V46.8512" stroke="#FDFEFF" stroke-width="1.75705"/>
<path d="M624.455 35.1361V46.8498" stroke="#FDFEFF" stroke-width="1.75705"/>
<path d="M654.206 35.1389V58.5662" stroke="#FDFEFF" stroke-width="1.75705"/>
<path d="M683.959 35.1377V46.8513" stroke="#FDFEFF" stroke-width="1.75705"/>
<path d="M713.713 35.1403V46.8539" stroke="#FDFEFF" stroke-width="1.75705"/>
<path d="M743.464 35.1393V46.8529" stroke="#FDFEFF" stroke-width="1.75705"/>
<path d="M773.217 35.1379V46.8516" stroke="#FDFEFF" stroke-width="1.75705"/>
<path d="M802.97 35.1367V52.7072" stroke="#FDFEFF" stroke-width="1.75705"/>
<path d="M832.722 35.1394V46.8531" stroke="#FDFEFF" stroke-width="1.75705"/>
<path d="M862.475 35.1381V46.8517" stroke="#FDFEFF" stroke-width="1.75705"/>
<path d="M892.227 35.137V46.8506" stroke="#FDFEFF" stroke-width="1.75705"/>
<path d="M921.98 35.1356V46.8493" stroke="#FDFEFF" stroke-width="1.75705"/>
<path d="M951.732 35.1385V58.5659" stroke="#FDFEFF" stroke-width="1.75705"/>
<path d="M981.486 35.1371V46.8507" stroke="#FDFEFF" stroke-width="1.75705"/>
<path d="M1011.24 35.1398V46.8534" stroke="#FDFEFF" stroke-width="1.75705"/>
<path d="M1040.99 35.1385V46.8522" stroke="#FDFEFF" stroke-width="1.75705"/>
<path d="M1070.74 35.1375V46.8511" stroke="#FDFEFF" stroke-width="1.75705"/>
<path d="M1100.5 35.1361V52.7066" stroke="#FDFEFF" stroke-width="1.75705"/>
<path d="M1130.25 35.1389V46.8526" stroke="#FDFEFF" stroke-width="1.75705"/>
<path d="M1160 35.1375V46.8511" stroke="#FDFEFF" stroke-width="1.75705"/>
<path d="M1189.75 35.1403V46.8539" stroke="#FDFEFF" stroke-width="1.75705"/>
<path d="M1219.51 35.1389V46.8526" stroke="#FDFEFF" stroke-width="1.75705"/>
<path d="M1249.26 35.1378V58.5651" stroke="#FDFEFF" stroke-width="1.75705"/>
<path d="M1279.01 35.1366V46.8502" stroke="#FDFEFF" stroke-width="1.75705"/>
<path d="M1308.77 35.139V46.8527" stroke="#FDFEFF" stroke-width="1.75705"/>
<path d="M1338.52 35.1381V46.8517" stroke="#FDFEFF" stroke-width="1.75705"/>
<path d="M1368.27 35.1406V46.8543" stroke="#FDFEFF" stroke-width="1.75705"/>
<path d="M1398.02 35.1394V52.7099" stroke="#FDFEFF" stroke-width="1.75705"/>
<path d="M1427.77 35.1383V46.852" stroke="#FDFEFF" stroke-width="1.75705"/>
<path d="M1457.53 35.1407V46.8544" stroke="#FDFEFF" stroke-width="1.75705"/>
<path d="M1487.28 35.1398V46.8534" stroke="#FDFEFF" stroke-width="1.75705"/>
<path d="M35.7239 58.5654H59.1512" stroke="#FDFEFF" stroke-width="1.75705"/>
<path d="M35.7256 88.3213H47.4393" stroke="#FDFEFF" stroke-width="1.75705"/>
<path d="M35.7267 118.073H47.4404" stroke="#FDFEFF" stroke-width="1.75705"/>
<path d="M35.7236 147.822H47.4372" stroke="#FDFEFF" stroke-width="1.75705"/>
<path d="M35.7252 177.578H47.4389" stroke="#FDFEFF" stroke-width="1.75705"/>
<path d="M35.7244 207.33H53.2949" stroke="#FDFEFF" stroke-width="1.75705"/>
<path d="M35.7275 237.082H47.4412" stroke="#FDFEFF" stroke-width="1.75705"/>
<path d="M35.7272 266.838H47.4409" stroke="#FDFEFF" stroke-width="1.75705"/>
<path d="M35.726 296.587H47.4396" stroke="#FDFEFF" stroke-width="1.75705"/>
<path d="M35.7257 326.343H47.4394" stroke="#FDFEFF" stroke-width="1.75705"/>
<path d="M35.7269 356.095H59.1542" stroke="#FDFEFF" stroke-width="1.75705"/>
<path d="M35.7236 385.844H47.4373" stroke="#FDFEFF" stroke-width="1.75705"/>
<path d="M35.7253 415.599H47.4389" stroke="#FDFEFF" stroke-width="1.75705"/>
<path d="M35.726 445.348H47.4396" stroke="#FDFEFF" stroke-width="1.75705"/>
<path d="M35.7261 475.108H47.4398" stroke="#FDFEFF" stroke-width="1.75705"/>
<path d="M35.7254 504.86H53.2959" stroke="#FDFEFF" stroke-width="1.75705"/>
<path d="M35.7266 534.612H47.4402" stroke="#FDFEFF" stroke-width="1.75705"/>
<path d="M35.7258 564.364H47.4394" stroke="#FDFEFF" stroke-width="1.75705"/>
<path d="M35.7245 594.113H47.4381" stroke="#FDFEFF" stroke-width="1.75705"/>
<path d="M35.7242 623.869H47.4379" stroke="#FDFEFF" stroke-width="1.75705"/>
<path d="M35.7258 653.625H59.1531" stroke="#FDFEFF" stroke-width="1.75705"/>
<path d="M35.7246 683.373H47.4383" stroke="#FDFEFF" stroke-width="1.75705"/>
<path d="M35.7263 713.129H47.4399" stroke="#FDFEFF" stroke-width="1.75705"/>
<path d="M35.725 742.877H47.4386" stroke="#FDFEFF" stroke-width="1.75705"/>
<path d="M35.7261 772.629H47.4398" stroke="#FDFEFF" stroke-width="1.75705"/>
<path d="M35.7258 802.386H53.2963" stroke="#FDFEFF" stroke-width="1.75705"/>
<path d="M35.7251 832.138H47.4387" stroke="#FDFEFF" stroke-width="1.75705"/>
<path d="M35.7243 861.89H47.438" stroke="#FDFEFF" stroke-width="1.75705"/>
<path d="M35.7255 891.642H47.4391" stroke="#FDFEFF" stroke-width="1.75705"/>
<path d="M35.7247 921.395H47.4383" stroke="#FDFEFF" stroke-width="1.75705"/>
<path d="M35.7258 951.146H59.1531" stroke="#FDFEFF" stroke-width="1.75705"/>
<path d="M1487.28 58.5682H1510.71" stroke="#FDFEFF" stroke-width="1.75705"/>
<path d="M1498.99 88.3184H1510.71" stroke="#FDFEFF" stroke-width="1.75705"/>
<path d="M1498.99 118.075H1510.71" stroke="#FDFEFF" stroke-width="1.75705"/>
<path d="M1498.99 147.823H1510.71" stroke="#FDFEFF" stroke-width="1.75705"/>
<path d="M1498.99 177.579H1510.71" stroke="#FDFEFF" stroke-width="1.75705"/>
<path d="M1493.14 207.33H1510.71" stroke="#FDFEFF" stroke-width="1.75705"/>
<path d="M1499 237.083H1510.71" stroke="#FDFEFF" stroke-width="1.75705"/>
<path d="M1499 266.839H1510.71" stroke="#FDFEFF" stroke-width="1.75705"/>
<path d="M1498.99 296.588H1510.71" stroke="#FDFEFF" stroke-width="1.75705"/>
<path d="M1498.99 326.34H1510.71" stroke="#FDFEFF" stroke-width="1.75705"/>
<path d="M1487.28 356.094H1510.71" stroke="#FDFEFF" stroke-width="1.75705"/>
<path d="M1498.99 385.848H1510.71" stroke="#FDFEFF" stroke-width="1.75705"/>
<path d="M1499 415.6H1510.71" stroke="#FDFEFF" stroke-width="1.75705"/>
<path d="M1498.99 445.353H1510.71" stroke="#FDFEFF" stroke-width="1.75705"/>
<path d="M1499 475.105H1510.71" stroke="#FDFEFF" stroke-width="1.75705"/>
<path d="M1493.14 504.856H1510.71" stroke="#FDFEFF" stroke-width="1.75705"/>
<path d="M1498.99 534.609H1510.71" stroke="#FDFEFF" stroke-width="1.75705"/>
<path d="M1498.99 564.365H1510.71" stroke="#FDFEFF" stroke-width="1.75705"/>
<path d="M1498.99 594.114H1510.71" stroke="#FDFEFF" stroke-width="1.75705"/>
<path d="M1499 623.87H1510.71" stroke="#FDFEFF" stroke-width="1.75705"/>
<path d="M1487.28 653.62H1510.71" stroke="#FDFEFF" stroke-width="1.75705"/>
<path d="M1498.99 683.37H1510.71" stroke="#FDFEFF" stroke-width="1.75705"/>
<path d="M1498.99 713.126H1510.71" stroke="#FDFEFF" stroke-width="1.75705"/>
<path d="M1498.99 742.878H1510.71" stroke="#FDFEFF" stroke-width="1.75705"/>
<path d="M1498.99 772.631H1510.71" stroke="#FDFEFF" stroke-width="1.75705"/>
<path d="M1493.14 802.382H1510.71" stroke="#FDFEFF" stroke-width="1.75705"/>
<path d="M1498.99 832.139H1510.71" stroke="#FDFEFF" stroke-width="1.75705"/>
<path d="M1498.99 861.887H1510.71" stroke="#FDFEFF" stroke-width="1.75705"/>
<path d="M1498.99 891.639H1510.71" stroke="#FDFEFF" stroke-width="1.75705"/>
<path d="M1498.99 921.396H1510.71" stroke="#FDFEFF" stroke-width="1.75705"/>
<path d="M1487.28 951.146H1510.71" stroke="#FDFEFF" stroke-width="1.75705"/>
<path d="M59.1526 951.146V974.574" stroke="#FDFEFF" stroke-width="1.75705"/>
<path d="M88.9048 962.86V974.573" stroke="#FDFEFF" stroke-width="1.75705"/>
<path d="M118.659 962.862V974.576" stroke="#FDFEFF" stroke-width="1.75705"/>
<path d="M148.411 962.861V974.574" stroke="#FDFEFF" stroke-width="1.75705"/>
<path d="M178.163 962.86V974.573" stroke="#FDFEFF" stroke-width="1.75705"/>
<path d="M207.917 957.003V974.574" stroke="#FDFEFF" stroke-width="1.75705"/>
<path d="M237.668 962.861V974.575" stroke="#FDFEFF" stroke-width="1.75705"/>
<path d="M267.422 962.864V974.577" stroke="#FDFEFF" stroke-width="1.75705"/>
<path d="M297.174 962.863V974.576" stroke="#FDFEFF" stroke-width="1.75705"/>
<path d="M326.927 962.861V974.575" stroke="#FDFEFF" stroke-width="1.75705"/>
<path d="M356.678 951.146V974.573" stroke="#FDFEFF" stroke-width="1.75705"/>
<path d="M386.432 962.859V974.573" stroke="#FDFEFF" stroke-width="1.75705"/>
<path d="M416.184 962.862V974.575" stroke="#FDFEFF" stroke-width="1.75705"/>
<path d="M445.937 962.86V974.574" stroke="#FDFEFF" stroke-width="1.75705"/>
<path d="M475.691 962.863V974.576" stroke="#FDFEFF" stroke-width="1.75705"/>
<path d="M505.444 957.006V974.577" stroke="#FDFEFF" stroke-width="1.75705"/>
<path d="M535.196 962.861V974.574" stroke="#FDFEFF" stroke-width="1.75705"/>
<path d="M564.949 962.863V974.577" stroke="#FDFEFF" stroke-width="1.75705"/>
<path d="M594.701 962.858V974.572" stroke="#FDFEFF" stroke-width="1.75705"/>
<path d="M624.453 962.861V974.574" stroke="#FDFEFF" stroke-width="1.75705"/>
<path d="M654.207 951.149V974.576" stroke="#FDFEFF" stroke-width="1.75705"/>
<path d="M683.959 962.862V974.576" stroke="#FDFEFF" stroke-width="1.75705"/>
<path d="M713.711 962.861V974.575" stroke="#FDFEFF" stroke-width="1.75705"/>
<path d="M743.464 962.86V974.574" stroke="#FDFEFF" stroke-width="1.75705"/>
<path d="M773.217 962.862V974.576" stroke="#FDFEFF" stroke-width="1.75705"/>
<path d="M802.97 957.006V974.576" stroke="#FDFEFF" stroke-width="1.75705"/>
<path d="M832.722 962.86V974.574" stroke="#FDFEFF" stroke-width="1.75705"/>
<path d="M862.474 962.859V974.573" stroke="#FDFEFF" stroke-width="1.75705"/>
<path d="M892.228 962.861V974.575" stroke="#FDFEFF" stroke-width="1.75705"/>
<path d="M921.98 962.86V974.574" stroke="#FDFEFF" stroke-width="1.75705"/>
<path d="M951.733 951.145V974.572" stroke="#FDFEFF" stroke-width="1.75705"/>
<path d="M981.486 962.862V974.575" stroke="#FDFEFF" stroke-width="1.75705"/>
<path d="M1011.24 962.86V974.574" stroke="#FDFEFF" stroke-width="1.75705"/>
<path d="M1040.99 962.859V974.573" stroke="#FDFEFF" stroke-width="1.75705"/>
<path d="M1070.74 962.862V974.575" stroke="#FDFEFF" stroke-width="1.75705"/>
<path d="M1100.5 957.005V974.576" stroke="#FDFEFF" stroke-width="1.75705"/>
<path d="M1130.25 962.863V974.577" stroke="#FDFEFF" stroke-width="1.75705"/>
<path d="M1160 962.862V974.576" stroke="#FDFEFF" stroke-width="1.75705"/>
<path d="M1189.75 962.861V974.574" stroke="#FDFEFF" stroke-width="1.75705"/>
<path d="M1219.51 962.86V974.573" stroke="#FDFEFF" stroke-width="1.75705"/>
<path d="M1249.26 951.144V974.571" stroke="#FDFEFF" stroke-width="1.75705"/>
<path d="M1279.01 962.861V974.575" stroke="#FDFEFF" stroke-width="1.75705"/>
<path d="M1308.77 962.86V974.574" stroke="#FDFEFF" stroke-width="1.75705"/>
<path d="M1338.52 962.859V974.572" stroke="#FDFEFF" stroke-width="1.75705"/>
<path d="M1368.27 962.861V974.575" stroke="#FDFEFF" stroke-width="1.75705"/>
<path d="M1398.02 957.005V974.575" stroke="#FDFEFF" stroke-width="1.75705"/>
<path d="M1427.78 962.859V974.573" stroke="#FDFEFF" stroke-width="1.75705"/>
<path d="M1457.53 962.858V974.571" stroke="#FDFEFF" stroke-width="1.75705"/>
<path d="M1487.28 962.86V974.574" stroke="#FDFEFF" stroke-width="1.75705"/>
<path d="M59.0466 29.7561C58.375 29.7561 57.7933 29.5804 57.3013 29.229C56.8093 28.8776 56.4267 28.3778 56.1533 27.7297C55.8878 27.0815 55.7551 26.3123 55.7551 25.4221C55.7551 24.5319 55.8878 23.7627 56.1533 23.1145C56.4267 22.4585 56.8093 21.9549 57.3013 21.6034C57.7933 21.2442 58.375 21.0646 59.0466 21.0646C59.726 21.0646 60.3117 21.2442 60.8037 21.6034C61.2956 21.9549 61.6744 22.4546 61.9399 23.1028C62.2132 23.7509 62.3499 24.524 62.3499 25.4221C62.3499 26.3123 62.2132 27.0815 61.9399 27.7297C61.6744 28.3778 61.2956 28.8776 60.8037 29.229C60.3117 29.5804 59.726 29.7561 59.0466 29.7561ZM59.0466 28.7722C59.7651 28.7722 60.3195 28.4833 60.71 27.9054C61.1004 27.3197 61.2956 26.4919 61.2956 25.4221C61.2956 24.7037 61.2058 24.0945 61.0262 23.5948C60.8544 23.0872 60.6006 22.7045 60.2648 22.4468C59.9369 22.1813 59.5308 22.0486 59.0466 22.0486C58.5703 22.0486 58.1642 22.1813 57.8284 22.4468C57.5004 22.7045 57.2466 23.0872 57.067 23.5948C56.8952 24.0945 56.8093 24.7037 56.8093 25.4221C56.8093 26.4919 57.0045 27.3197 57.395 27.9054C57.7854 28.4833 58.336 28.7722 59.0466 28.7722Z" fill="#FDFEFF"/>
<path d="M201.673 28.9094C201.673 28.4409 201.745 28.0192 201.889 27.6443C202.039 27.2633 202.298 26.9009 202.666 26.5573C203.041 26.2137 203.56 25.867 204.222 25.5172C204.528 25.3547 204.775 25.2048 204.962 25.0673C205.15 24.9299 205.287 24.7831 205.375 24.6269C205.462 24.4707 205.506 24.2802 205.506 24.0553C205.506 23.8241 205.456 23.6242 205.356 23.4555C205.256 23.2806 205.106 23.1432 204.906 23.0432C204.712 22.9433 204.469 22.8933 204.175 22.8933C203.707 22.8933 203.335 23.0151 203.06 23.2588C202.791 23.5024 202.623 23.8491 202.554 24.2989L201.711 24.2427C201.786 23.593 202.035 23.0745 202.46 22.6871C202.885 22.2998 203.457 22.1061 204.175 22.1061C204.631 22.1061 205.022 22.1874 205.346 22.3498C205.671 22.5122 205.918 22.7402 206.087 23.0339C206.262 23.3212 206.349 23.6555 206.349 24.0365C206.349 24.3739 206.293 24.6675 206.18 24.9174C206.068 25.1611 205.877 25.3891 205.609 25.6015C205.346 25.8139 204.984 26.0419 204.522 26.2856C203.922 26.6042 203.466 26.9259 203.154 27.2508C202.848 27.5756 202.685 27.8661 202.666 28.1223H206.349V28.9094H201.673ZM207.325 28.9094V27.8505H208.384V28.9094H207.325ZM211.722 29.0594C211.253 29.0594 210.847 28.9813 210.503 28.8251C210.166 28.6689 209.897 28.4502 209.697 28.1691C209.504 27.888 209.391 27.5631 209.36 27.1945L210.204 27.1383C210.253 27.5132 210.413 27.7974 210.681 27.9911C210.956 28.1785 211.303 28.2722 211.722 28.2722C212.19 28.2722 212.562 28.141 212.837 27.8786C213.112 27.61 213.249 27.2414 213.249 26.7729C213.249 26.4605 213.187 26.1919 213.062 25.967C212.943 25.7358 212.768 25.5578 212.537 25.4328C212.306 25.3079 212.028 25.2454 211.703 25.2454C211.397 25.2454 211.119 25.311 210.869 25.4422C210.619 25.5734 210.441 25.7577 210.335 25.9951H209.473L209.913 22.2561H213.643V23.0432H210.653L210.353 25.4984L210.204 25.3485C210.303 25.1548 210.435 24.9955 210.597 24.8706C210.766 24.7394 210.956 24.6425 211.169 24.5801C211.387 24.5113 211.615 24.477 211.853 24.477C212.296 24.477 212.687 24.5769 213.024 24.7768C213.362 24.9705 213.624 25.2423 213.811 25.5921C213.999 25.9357 214.092 26.3293 214.092 26.7729C214.092 27.2164 213.992 27.6131 213.793 27.963C213.593 28.3066 213.315 28.5752 212.959 28.7689C212.602 28.9625 212.19 29.0594 211.722 29.0594Z" fill="#FDFEFF"/>
<path d="M356.568 29.7555C355.982 29.7555 355.475 29.6579 355.045 29.4627C354.624 29.2675 354.288 28.9941 354.038 28.6427C353.796 28.2913 353.655 27.8853 353.616 27.4245L354.671 27.3542C354.733 27.8228 354.932 28.1781 355.268 28.4202C355.612 28.6545 356.045 28.7716 356.568 28.7716C357.154 28.7716 357.618 28.6076 357.962 28.2796C358.306 27.9438 358.477 27.4831 358.477 26.8974C358.477 26.5069 358.399 26.1712 358.243 25.89C358.095 25.6011 357.876 25.3785 357.587 25.2224C357.298 25.0662 356.951 24.9881 356.545 24.9881C356.162 24.9881 355.815 25.0701 355.502 25.2341C355.19 25.3981 354.967 25.6284 354.835 25.9252H353.757L354.307 21.2514H358.969V22.2354H355.233L354.858 25.3043L354.671 25.1169C354.796 24.8748 354.959 24.6757 355.163 24.5195C355.373 24.3555 355.612 24.2345 355.877 24.1564C356.15 24.0705 356.435 24.0276 356.732 24.0276C357.287 24.0276 357.775 24.1525 358.196 24.4024C358.618 24.6445 358.946 24.9842 359.18 25.4215C359.415 25.851 359.532 26.343 359.532 26.8974C359.532 27.4518 359.407 27.9477 359.157 28.385C358.907 28.8145 358.559 29.1503 358.114 29.3924C357.669 29.6345 357.154 29.7555 356.568 29.7555Z" fill="#FDFEFF"/>
<path d="M500.802 28.9163C500.802 28.2291 500.896 27.545 501.083 26.864C501.271 26.1768 501.54 25.5115 501.889 24.868C502.245 24.2246 502.67 23.6186 503.164 23.0501H499.322V22.2629H504.045V22.9938C503.489 23.6311 503.029 24.262 502.667 24.8868C502.311 25.5052 502.049 26.1456 501.88 26.8078C501.711 27.4638 501.627 28.1666 501.627 28.9163H500.802ZM503.527 28.9163V27.8573H504.586V28.9163H503.527ZM507.924 29.0662C507.455 29.0662 507.049 28.9881 506.706 28.8319C506.368 28.6757 506.1 28.4571 505.9 28.176C505.706 27.8948 505.594 27.57 505.563 27.2014L506.406 27.1452C506.456 27.52 506.615 27.8042 506.884 27.9979C507.159 28.1853 507.505 28.279 507.924 28.279C508.393 28.279 508.764 28.1478 509.039 27.8855C509.314 27.6168 509.451 27.2482 509.451 26.7797C509.451 26.4673 509.389 26.1987 509.264 25.9738C509.145 25.7426 508.97 25.5646 508.739 25.4396C508.508 25.3147 508.23 25.2522 507.905 25.2522C507.599 25.2522 507.321 25.3178 507.071 25.449C506.821 25.5802 506.643 25.7645 506.537 26.0019H505.675L506.115 22.2629H509.845V23.0501H506.856L506.556 25.5052L506.406 25.3553C506.506 25.1616 506.637 25.0023 506.799 24.8774C506.968 24.7462 507.159 24.6494 507.371 24.5869C507.59 24.5182 507.818 24.4838 508.055 24.4838C508.499 24.4838 508.889 24.5838 509.227 24.7837C509.564 24.9773 509.826 25.2491 510.014 25.599C510.201 25.9426 510.295 26.3361 510.295 26.7797C510.295 27.2232 510.195 27.6199 509.995 27.9698C509.795 28.3134 509.517 28.582 509.161 28.7757C508.805 28.9694 508.393 29.0662 507.924 29.0662Z" fill="#FDFEFF"/>
<path d="M650.392 29.5728V23.4114H648.658V22.5446H649.361C649.666 22.5446 649.908 22.5055 650.087 22.4274C650.275 22.3493 650.407 22.2166 650.486 22.0292C650.564 21.8417 650.603 21.584 650.603 21.2561H651.399V29.5728H650.392ZM656.448 29.7602C655.777 29.7602 655.195 29.5845 654.703 29.2331C654.211 28.8816 653.828 28.3819 653.555 27.7337C653.289 27.0856 653.157 26.3164 653.157 25.4261C653.157 24.5359 653.289 23.7667 653.555 23.1185C653.828 22.4626 654.211 21.9589 654.703 21.6075C655.195 21.2483 655.777 21.0686 656.448 21.0686C657.127 21.0686 657.713 21.2483 658.205 21.6075C658.697 21.9589 659.076 22.4587 659.341 23.1068C659.615 23.755 659.751 24.5281 659.751 25.4261C659.751 26.3164 659.615 27.0856 659.341 27.7337C659.076 28.3819 658.697 28.8816 658.205 29.2331C657.713 29.5845 657.127 29.7602 656.448 29.7602ZM656.448 28.7762C657.167 28.7762 657.721 28.4873 658.111 27.9094C658.502 27.3237 658.697 26.496 658.697 25.4261C658.697 24.7077 658.607 24.0986 658.428 23.5988C658.256 23.0912 658.002 22.7086 657.666 22.4509C657.338 22.1853 656.932 22.0526 656.448 22.0526C655.972 22.0526 655.566 22.1853 655.23 22.4509C654.902 22.7086 654.648 23.0912 654.468 23.5988C654.297 24.0986 654.211 24.7077 654.211 25.4261C654.211 26.496 654.406 27.3237 654.796 27.9094C655.187 28.4873 655.737 28.7762 656.448 28.7762Z" fill="#FDFEFF"/>
<path d="M796.416 28.9092V23.9801H795.029V23.2866H795.591C795.835 23.2866 796.028 23.2554 796.172 23.1929C796.322 23.1304 796.428 23.0242 796.491 22.8743C796.553 22.7244 796.584 22.5182 796.584 22.2558H797.222V28.9092H796.416ZM798.721 28.9092C798.721 28.4406 798.793 28.0189 798.937 27.6441C799.087 27.263 799.346 26.9007 799.714 26.5571C800.089 26.2135 800.608 25.8668 801.27 25.5169C801.576 25.3545 801.823 25.2045 802.01 25.0671C802.198 24.9297 802.335 24.7829 802.423 24.6267C802.51 24.4705 802.554 24.2799 802.554 24.055C802.554 23.8239 802.504 23.624 802.404 23.4553C802.304 23.2804 802.154 23.1429 801.954 23.043C801.76 22.943 801.517 22.893 801.223 22.893C800.755 22.893 800.383 23.0149 800.108 23.2585C799.839 23.5022 799.671 23.8489 799.602 24.2987L798.759 24.2425C798.834 23.5927 799.084 23.0742 799.508 22.6869C799.933 22.2996 800.505 22.1059 801.223 22.1059C801.679 22.1059 802.07 22.1871 802.395 22.3495C802.719 22.512 802.966 22.74 803.135 23.0336C803.31 23.321 803.397 23.6552 803.397 24.0363C803.397 24.3737 803.341 24.6673 803.229 24.9172C803.116 25.1608 802.926 25.3888 802.657 25.6012C802.395 25.8137 802.032 26.0417 801.57 26.2853C800.97 26.6039 800.514 26.9257 800.202 27.2505C799.896 27.5754 799.733 27.8659 799.714 28.122H803.397V28.9092H798.721ZM804.373 28.9092V27.8503H805.432V28.9092H804.373ZM808.77 29.0591C808.301 29.0591 807.895 28.981 807.552 28.8248C807.214 28.6687 806.946 28.45 806.746 28.1689C806.552 27.8877 806.44 27.5629 806.408 27.1943L807.252 27.1381C807.302 27.5129 807.461 27.7972 807.73 27.9908C808.004 28.1782 808.351 28.272 808.77 28.272C809.238 28.272 809.61 28.1408 809.885 27.8784C810.16 27.6097 810.297 27.2412 810.297 26.7726C810.297 26.4602 810.235 26.1916 810.11 25.9667C809.991 25.7356 809.816 25.5575 809.585 25.4326C809.354 25.3076 809.076 25.2451 808.751 25.2451C808.445 25.2451 808.167 25.3107 807.917 25.4419C807.667 25.5731 807.489 25.7574 807.383 25.9948H806.521L806.961 22.2558H810.691V23.043H807.701L807.402 25.4982L807.252 25.3482C807.352 25.1546 807.483 24.9953 807.645 24.8703C807.814 24.7391 808.004 24.6423 808.217 24.5798C808.436 24.5111 808.664 24.4767 808.901 24.4767C809.344 24.4767 809.735 24.5767 810.072 24.7766C810.41 24.9703 810.672 25.242 810.859 25.5919C811.047 25.9355 811.141 26.3291 811.141 26.7726C811.141 27.2162 811.041 27.6129 810.841 27.9627C810.641 28.3063 810.363 28.575 810.007 28.7686C809.651 28.9623 809.238 29.0591 808.77 29.0591Z" fill="#FDFEFF"/>
<path d="M947.58 29.572V23.4106H945.846V22.5438H946.549C946.853 22.5438 947.096 22.5048 947.275 22.4267C947.463 22.3486 947.595 22.2158 947.673 22.0284C947.752 21.841 947.791 21.5833 947.791 21.2553H948.587V29.572H947.58ZM953.528 29.7594C952.942 29.7594 952.435 29.6618 952.005 29.4666C951.583 29.2714 951.248 28.9981 950.998 28.6466C950.756 28.2952 950.615 27.8892 950.576 27.4284L951.63 27.3581C951.693 27.8267 951.892 28.182 952.228 28.4241C952.571 28.6584 953.005 28.7755 953.528 28.7755C954.113 28.7755 954.578 28.6115 954.922 28.2835C955.265 27.9477 955.437 27.487 955.437 26.9013C955.437 26.5109 955.359 26.1751 955.203 25.8939C955.054 25.605 954.836 25.3824 954.547 25.2263C954.258 25.0701 953.91 24.992 953.504 24.992C953.122 24.992 952.774 25.074 952.462 25.238C952.149 25.402 951.927 25.6323 951.794 25.9291H950.716L951.267 21.2553H955.929V22.2393H952.192L951.818 25.3083L951.63 25.1208C951.755 24.8788 951.919 24.6796 952.122 24.5234C952.333 24.3594 952.571 24.2384 952.837 24.1603C953.11 24.0744 953.395 24.0315 953.692 24.0315C954.246 24.0315 954.734 24.1564 955.156 24.4063C955.578 24.6484 955.906 24.9881 956.14 25.4254C956.374 25.8549 956.491 26.3469 956.491 26.9013C956.491 27.4558 956.366 27.9516 956.116 28.3889C955.867 28.8184 955.519 29.1542 955.074 29.3963C954.629 29.6384 954.113 29.7594 953.528 29.7594Z" fill="#FDFEFF"/>
<path d="M1094.39 28.9121V23.983H1093.01V23.2896H1093.57C1093.81 23.2896 1094.01 23.2583 1094.15 23.1958C1094.3 23.1334 1094.41 23.0272 1094.47 22.8772C1094.53 22.7273 1094.56 22.5211 1094.56 22.2588H1095.2V28.9121H1094.39ZM1097.9 28.9121C1097.9 28.2249 1097.99 27.5408 1098.18 26.8599C1098.37 26.1727 1098.63 25.5073 1098.98 24.8639C1099.34 24.2204 1099.76 23.6144 1100.26 23.0459H1096.42V22.2588H1101.14V22.9897C1100.58 23.6269 1100.12 24.2579 1099.76 24.8826C1099.41 25.5011 1099.14 26.1414 1098.97 26.8037C1098.81 27.4596 1098.72 28.1624 1098.72 28.9121H1097.9ZM1100.62 28.9121V27.8532H1101.68V28.9121H1100.62ZM1105.02 29.062C1104.55 29.062 1104.14 28.984 1103.8 28.8278C1103.46 28.6716 1103.19 28.4529 1102.99 28.1718C1102.8 27.8907 1102.69 27.5658 1102.66 27.1972L1103.5 27.141C1103.55 27.5158 1103.71 27.8001 1103.98 27.9938C1104.25 28.1812 1104.6 28.2749 1105.02 28.2749C1105.49 28.2749 1105.86 28.1437 1106.13 27.8813C1106.41 27.6127 1106.55 27.2441 1106.55 26.7755C1106.55 26.4632 1106.48 26.1945 1106.36 25.9696C1106.24 25.7385 1106.06 25.5604 1105.83 25.4355C1105.6 25.3106 1105.32 25.2481 1105 25.2481C1104.69 25.2481 1104.42 25.3137 1104.17 25.4449C1103.92 25.5761 1103.74 25.7604 1103.63 25.9978H1102.77L1103.21 22.2588H1106.94V23.0459H1103.95L1103.65 25.5011L1103.5 25.3512C1103.6 25.1575 1103.73 24.9982 1103.89 24.8732C1104.06 24.742 1104.25 24.6452 1104.47 24.5827C1104.68 24.514 1104.91 24.4797 1105.15 24.4797C1105.59 24.4797 1105.98 24.5796 1106.32 24.7795C1106.66 24.9732 1106.92 25.245 1107.11 25.5948C1107.3 25.9384 1107.39 26.332 1107.39 26.7755C1107.39 27.2191 1107.29 27.6158 1107.09 27.9656C1106.89 28.3092 1106.61 28.5779 1106.26 28.7715C1105.9 28.9652 1105.49 29.062 1105.02 29.062Z" fill="#FDFEFF"/>
<path d="M1242.4 29.572C1242.4 28.9863 1242.49 28.4592 1242.67 27.9907C1242.85 27.5143 1243.18 27.0614 1243.64 26.6319C1244.11 26.2024 1244.76 25.769 1245.58 25.3317C1245.97 25.1286 1246.27 24.9412 1246.51 24.7694C1246.74 24.5976 1246.91 24.4141 1247.02 24.2189C1247.13 24.0237 1247.19 23.7855 1247.19 23.5043C1247.19 23.2154 1247.13 22.9655 1247 22.7547C1246.88 22.536 1246.69 22.3642 1246.44 22.2393C1246.2 22.1143 1245.89 22.0519 1245.52 22.0519C1244.94 22.0519 1244.47 22.2041 1244.13 22.5087C1243.79 22.8132 1243.58 23.2466 1243.5 23.8089L1242.44 23.7386C1242.54 22.9265 1242.85 22.2783 1243.38 21.7942C1243.91 21.31 1244.63 21.0679 1245.52 21.0679C1246.09 21.0679 1246.58 21.1694 1246.99 21.3725C1247.39 21.5755 1247.7 21.8605 1247.91 22.2276C1248.13 22.5868 1248.24 23.0046 1248.24 23.4809C1248.24 23.9026 1248.17 24.2696 1248.03 24.582C1247.89 24.8866 1247.65 25.1716 1247.32 25.4371C1246.99 25.7026 1246.54 25.9876 1245.96 26.2922C1245.21 26.6905 1244.64 27.0926 1244.25 27.4987C1243.87 27.9048 1243.66 28.2679 1243.64 28.5881H1248.24V29.572H1242.4ZM1252.71 29.7594C1252.04 29.7594 1251.46 29.5837 1250.96 29.2323C1250.47 28.8809 1250.09 28.3811 1249.82 27.733C1249.55 27.0848 1249.42 26.3156 1249.42 25.4254C1249.42 24.5352 1249.55 23.766 1249.82 23.1178C1250.09 22.4618 1250.47 21.9581 1250.96 21.6067C1251.46 21.2475 1252.04 21.0679 1252.71 21.0679C1253.39 21.0679 1253.97 21.2475 1254.47 21.6067C1254.96 21.9581 1255.34 22.4579 1255.6 23.1061C1255.88 23.7542 1256.01 24.5273 1256.01 25.4254C1256.01 26.3156 1255.88 27.0848 1255.6 27.733C1255.34 28.3811 1254.96 28.8809 1254.47 29.2323C1253.97 29.5837 1253.39 29.7594 1252.71 29.7594ZM1252.71 28.7755C1253.43 28.7755 1253.98 28.4866 1254.37 27.9087C1254.76 27.323 1254.96 26.4952 1254.96 25.4254C1254.96 24.707 1254.87 24.0978 1254.69 23.5981C1254.52 23.0905 1254.26 22.7078 1253.93 22.4501C1253.6 22.1846 1253.19 22.0519 1252.71 22.0519C1252.23 22.0519 1251.83 22.1846 1251.49 22.4501C1251.16 22.7078 1250.91 23.0905 1250.73 23.5981C1250.56 24.0978 1250.47 24.707 1250.47 25.4254C1250.47 26.4952 1250.67 27.323 1251.06 27.9087C1251.45 28.4866 1252 28.7755 1252.71 28.7755Z" fill="#FDFEFF"/>
<path d="M1388.95 28.9087C1388.95 28.4401 1389.02 28.0185 1389.17 27.6436C1389.32 27.2625 1389.57 26.9002 1389.94 26.5566C1390.32 26.213 1390.84 25.8663 1391.5 25.5164C1391.8 25.354 1392.05 25.2041 1392.24 25.0666C1392.43 24.9292 1392.56 24.7824 1392.65 24.6262C1392.74 24.47 1392.78 24.2795 1392.78 24.0546C1392.78 23.8234 1392.73 23.6235 1392.63 23.4548C1392.53 23.2799 1392.38 23.1425 1392.18 23.0425C1391.99 22.9425 1391.75 22.8926 1391.45 22.8926C1390.98 22.8926 1390.61 23.0144 1390.34 23.258C1390.07 23.5017 1389.9 23.8484 1389.83 24.2982L1388.99 24.242C1389.06 23.5923 1389.31 23.0737 1389.74 22.6864C1390.16 22.2991 1390.73 22.1054 1391.45 22.1054C1391.91 22.1054 1392.3 22.1866 1392.62 22.349C1392.95 22.5115 1393.19 22.7395 1393.36 23.0331C1393.54 23.3205 1393.63 23.6547 1393.63 24.0358C1393.63 24.3732 1393.57 24.6668 1393.46 24.9167C1393.34 25.1603 1393.15 25.3883 1392.89 25.6008C1392.62 25.8132 1392.26 26.0412 1391.8 26.2848C1391.2 26.6034 1390.74 26.9252 1390.43 27.25C1390.12 27.5749 1389.96 27.8654 1389.94 28.1215H1393.63V28.9087H1388.95ZM1394.75 28.9087C1394.75 28.4401 1394.82 28.0185 1394.97 27.6436C1395.12 27.2625 1395.38 26.9002 1395.74 26.5566C1396.12 26.213 1396.64 25.8663 1397.3 25.5164C1397.61 25.354 1397.85 25.2041 1398.04 25.0666C1398.23 24.9292 1398.37 24.7824 1398.45 24.6262C1398.54 24.47 1398.58 24.2795 1398.58 24.0546C1398.58 23.8234 1398.53 23.6235 1398.43 23.4548C1398.33 23.2799 1398.18 23.1425 1397.98 23.0425C1397.79 22.9425 1397.55 22.8926 1397.25 22.8926C1396.79 22.8926 1396.41 23.0144 1396.14 23.258C1395.87 23.5017 1395.7 23.8484 1395.63 24.2982L1394.79 24.242C1394.86 23.5923 1395.11 23.0737 1395.54 22.6864C1395.96 22.2991 1396.54 22.1054 1397.25 22.1054C1397.71 22.1054 1398.1 22.1866 1398.43 22.349C1398.75 22.5115 1399 22.7395 1399.17 23.0331C1399.34 23.3205 1399.43 23.6547 1399.43 24.0358C1399.43 24.3732 1399.37 24.6668 1399.26 24.9167C1399.15 25.1603 1398.96 25.3883 1398.69 25.6008C1398.43 25.8132 1398.06 26.0412 1397.6 26.2848C1397 26.6034 1396.54 26.9252 1396.23 27.25C1395.93 27.5749 1395.76 27.8654 1395.74 28.1215H1399.43V28.9087H1394.75ZM1400.4 28.9087V27.8498H1401.46V28.9087H1400.4ZM1404.8 29.0586C1404.33 29.0586 1403.93 28.9805 1403.58 28.8244C1403.24 28.6682 1402.98 28.4495 1402.78 28.1684C1402.58 27.8873 1402.47 27.5624 1402.44 27.1938L1403.28 27.1376C1403.33 27.5124 1403.49 27.7967 1403.76 27.9903C1404.03 28.1778 1404.38 28.2715 1404.8 28.2715C1405.27 28.2715 1405.64 28.1403 1405.92 27.8779C1406.19 27.6093 1406.33 27.2407 1406.33 26.7721C1406.33 26.4598 1406.27 26.1911 1406.14 25.9662C1406.02 25.7351 1405.85 25.557 1405.62 25.4321C1405.38 25.3071 1405.11 25.2447 1404.78 25.2447C1404.48 25.2447 1404.2 25.3103 1403.95 25.4415C1403.7 25.5726 1403.52 25.7569 1403.41 25.9943H1402.55L1402.99 22.2553H1406.72V23.0425H1403.73L1403.43 25.4977L1403.28 25.3477C1403.38 25.1541 1403.51 24.9948 1403.68 24.8698C1403.84 24.7386 1404.03 24.6418 1404.25 24.5793C1404.47 24.5106 1404.69 24.4762 1404.93 24.4762C1405.37 24.4762 1405.77 24.5762 1406.1 24.7761C1406.44 24.9698 1406.7 25.2415 1406.89 25.5914C1407.08 25.935 1407.17 26.3286 1407.17 26.7721C1407.17 27.2157 1407.07 27.6124 1406.87 27.9622C1406.67 28.3058 1406.39 28.5745 1406.04 28.7681C1405.68 28.9618 1405.27 29.0586 1404.8 29.0586Z" fill="#FDFEFF"/>
<path d="M23.3721 62.3684V56.207H21.6384V55.3402H22.3413C22.6458 55.3402 22.8879 55.3012 23.0675 55.2231C23.2549 55.145 23.3877 55.0122 23.4658 54.8248C23.5439 54.6374 23.5829 54.3797 23.5829 54.0517H24.3794V62.3684H23.3721ZM29.3201 62.5558C28.7345 62.5558 28.2269 62.4582 27.7974 62.263C27.3757 62.0678 27.0399 61.7944 26.79 61.443C26.5479 61.0916 26.4073 60.6855 26.3683 60.2248L27.4225 60.1545C27.485 60.6231 27.6841 60.9784 28.0199 61.2205C28.3635 61.4547 28.7969 61.5719 29.3201 61.5719C29.9058 61.5719 30.3705 61.4079 30.7141 61.0799C31.0577 60.7441 31.2295 60.2834 31.2295 59.6977C31.2295 59.3072 31.1514 58.9714 30.9952 58.6903C30.8468 58.4014 30.6282 58.1788 30.3392 58.0226C30.0503 57.8665 29.7028 57.7884 29.2967 57.7884C28.9141 57.7884 28.5666 57.8704 28.2542 58.0344C27.9418 58.1983 27.7193 58.4287 27.5865 58.7255H26.5089L27.0594 54.0517H31.7214V55.0357H27.9848L27.6099 58.1046L27.4225 57.9172C27.5475 57.6751 27.7115 57.476 27.9145 57.3198C28.1253 57.1558 28.3635 57.0348 28.629 56.9567C28.9023 56.8708 29.1874 56.8279 29.4841 56.8279C30.0386 56.8279 30.5266 56.9528 30.9483 57.2027C31.37 57.4448 31.698 57.7845 31.9323 58.2218C32.1666 58.6513 32.2837 59.1432 32.2837 59.6977C32.2837 60.2521 32.1587 60.748 31.9089 61.1853C31.659 61.6148 31.3115 61.9506 30.8663 62.1927C30.4212 62.4348 29.9058 62.5558 29.3201 62.5558Z" fill="#FDFEFF"/>
<path d="M20.9731 210.476V205.547H19.5863V204.853H20.1485C20.3922 204.853 20.5858 204.822 20.7295 204.76C20.8794 204.697 20.9856 204.591 21.0481 204.441C21.1106 204.291 21.1418 204.085 21.1418 203.822H21.779V210.476H20.9731ZM23.2786 210.476C23.2786 210.007 23.3505 209.586 23.4941 209.211C23.6441 208.83 23.9033 208.467 24.2719 208.124C24.6468 207.78 25.1653 207.433 25.8275 207.084C26.1336 206.921 26.3804 206.771 26.5678 206.634C26.7552 206.496 26.8927 206.35 26.9801 206.193C27.0676 206.037 27.1113 205.847 27.1113 205.622C27.1113 205.391 27.0613 205.191 26.9614 205.022C26.8614 204.847 26.7115 204.71 26.5116 204.61C26.3179 204.51 26.0743 204.46 25.7807 204.46C25.3121 204.46 24.9404 204.582 24.6655 204.825C24.3969 205.069 24.2282 205.416 24.1595 205.865L23.3161 205.809C23.3911 205.159 23.641 204.641 24.0658 204.254C24.4906 203.866 25.0622 203.673 25.7807 203.673C26.2367 203.673 26.6272 203.754 26.952 203.916C27.2769 204.079 27.5236 204.307 27.6923 204.6C27.8672 204.888 27.9547 205.222 27.9547 205.603C27.9547 205.94 27.8985 206.234 27.786 206.484C27.6736 206.727 27.483 206.955 27.2144 207.168C26.952 207.38 26.5897 207.608 26.1274 207.852C25.5276 208.171 25.0716 208.492 24.7592 208.817C24.4531 209.142 24.2907 209.433 24.2719 209.689H27.9547V210.476H23.2786ZM28.9306 210.476V209.417H29.9895V210.476H28.9306ZM33.3272 210.626C32.8586 210.626 32.4526 210.548 32.109 210.391C31.7716 210.235 31.503 210.017 31.3031 209.736C31.1094 209.454 30.9969 209.13 30.9657 208.761L31.8091 208.705C31.8591 209.08 32.0184 209.364 32.287 209.557C32.5619 209.745 32.9086 209.839 33.3272 209.839C33.7957 209.839 34.1674 209.707 34.4423 209.445C34.7172 209.176 34.8546 208.808 34.8546 208.339C34.8546 208.027 34.7922 207.758 34.6672 207.533C34.5485 207.302 34.3736 207.124 34.1424 206.999C33.9113 206.874 33.6333 206.812 33.3084 206.812C33.0023 206.812 32.7243 206.877 32.4744 207.009C32.2245 207.14 32.0465 207.324 31.9403 207.561H31.0781L31.5186 203.822H35.2482V204.61H32.2589L31.959 207.065L31.8091 206.915C31.909 206.721 32.0402 206.562 32.2027 206.437C32.3713 206.306 32.5619 206.209 32.7743 206.146C32.9929 206.078 33.221 206.043 33.4584 206.043C33.9019 206.043 34.2924 206.143 34.6297 206.343C34.9671 206.537 35.2295 206.809 35.4169 207.159C35.6043 207.502 35.698 207.896 35.698 208.339C35.698 208.783 35.5981 209.18 35.3981 209.529C35.1982 209.873 34.9202 210.142 34.5641 210.335C34.208 210.529 33.7957 210.626 33.3272 210.626Z" fill="#FDFEFF"/>
<path d="M23.7105 359.894V353.733H21.9768V352.866H22.6797C22.9842 352.866 23.2263 352.827 23.4059 352.749C23.5933 352.671 23.7261 352.538 23.8042 352.351C23.8823 352.163 23.9213 351.906 23.9213 351.578H24.7178V359.894H23.7105ZM29.7667 360.082C29.0951 360.082 28.5133 359.906 28.0214 359.555C27.5294 359.203 27.1467 358.704 26.8734 358.055C26.6079 357.407 26.4752 356.638 26.4752 355.748C26.4752 354.858 26.6079 354.088 26.8734 353.44C27.1467 352.784 27.5294 352.281 28.0214 351.929C28.5133 351.57 29.0951 351.39 29.7667 351.39C30.4461 351.39 31.0318 351.57 31.5237 351.929C32.0157 352.281 32.3945 352.78 32.66 353.428C32.9333 354.077 33.0699 354.85 33.0699 355.748C33.0699 356.638 32.9333 357.407 32.66 358.055C32.3945 358.704 32.0157 359.203 31.5237 359.555C31.0318 359.906 30.4461 360.082 29.7667 360.082ZM29.7667 359.098C30.4851 359.098 31.0396 358.809 31.43 358.231C31.8205 357.645 32.0157 356.818 32.0157 355.748C32.0157 355.029 31.9259 354.42 31.7463 353.92C31.5745 353.413 31.3207 353.03 30.9849 352.773C30.6569 352.507 30.2509 352.374 29.7667 352.374C29.2903 352.374 28.8843 352.507 28.5485 352.773C28.2205 353.03 27.9667 353.413 27.7871 353.92C27.6153 354.42 27.5294 355.029 27.5294 355.748C27.5294 356.818 27.7246 357.645 28.1151 358.231C28.5055 358.809 29.0561 359.098 29.7667 359.098Z" fill="#FDFEFF"/>
<path d="M22.8841 508.001C22.8841 507.313 22.9778 506.629 23.1652 505.948C23.3526 505.261 23.6213 504.596 23.9711 503.952C24.3272 503.309 24.752 502.703 25.2456 502.134H21.4035V501.347H26.1264V502.078C25.5704 502.715 25.1112 503.346 24.7489 503.971C24.3928 504.59 24.1304 505.23 23.9617 505.892C23.7931 506.548 23.7087 507.251 23.7087 508.001H22.8841ZM25.6092 508.001V506.942H26.6681V508.001H25.6092ZM30.0058 508.151C29.5372 508.151 29.1311 508.072 28.7875 507.916C28.4502 507.76 28.1816 507.541 27.9816 507.26C27.788 506.979 27.6755 506.654 27.6443 506.286L28.4877 506.23C28.5376 506.604 28.697 506.889 28.9656 507.082C29.2405 507.27 29.5872 507.363 30.0058 507.363C30.4743 507.363 30.846 507.232 31.1209 506.97C31.3958 506.701 31.5332 506.333 31.5332 505.864C31.5332 505.552 31.4707 505.283 31.3458 505.058C31.2271 504.827 31.0522 504.649 30.821 504.524C30.5899 504.399 30.3119 504.337 29.987 504.337C29.6809 504.337 29.4029 504.402 29.153 504.533C28.9031 504.665 28.7251 504.849 28.6189 505.086H27.7567L28.1972 501.347H31.9268V502.134H28.9375L28.6376 504.59L28.4877 504.44C28.5876 504.246 28.7188 504.087 28.8812 503.962C29.0499 503.831 29.2405 503.734 29.4529 503.671C29.6715 503.603 29.8996 503.568 30.137 503.568C30.5805 503.568 30.971 503.668 31.3083 503.868C31.6457 504.062 31.9081 504.333 32.0955 504.683C32.2829 505.027 32.3766 505.42 32.3766 505.864C32.3766 506.308 32.2766 506.704 32.0767 507.054C31.8768 507.398 31.5988 507.666 31.2427 507.86C30.8866 508.054 30.4743 508.151 30.0058 508.151Z" fill="#FDFEFF"/>
<path d="M27.415 657.61C26.8293 657.61 26.3217 657.513 25.8922 657.317C25.4705 657.122 25.1347 656.849 24.8848 656.497C24.6428 656.146 24.5022 655.74 24.4632 655.279L25.5174 655.209C25.5799 655.678 25.779 656.033 26.1148 656.275C26.4584 656.509 26.8918 656.626 27.415 656.626C28.0007 656.626 28.4653 656.462 28.8089 656.134C29.1525 655.799 29.3243 655.338 29.3243 654.752C29.3243 654.362 29.2462 654.026 29.0901 653.745C28.9417 653.456 28.723 653.233 28.4341 653.077C28.1451 652.921 27.7976 652.843 27.3916 652.843C27.0089 652.843 26.6614 652.925 26.3491 653.089C26.0367 653.253 25.8141 653.483 25.6814 653.78H24.6037L25.1543 649.106H29.8163V650.09H26.0796L25.7048 653.159L25.5174 652.972C25.6423 652.73 25.8063 652.53 26.0094 652.374C26.2202 652.21 26.4584 652.089 26.7239 652.011C26.9972 651.925 27.2822 651.882 27.579 651.882C28.1334 651.882 28.6215 652.007 29.0432 652.257C29.4649 652.499 29.7929 652.839 30.0271 653.276C30.2614 653.706 30.3786 654.198 30.3786 654.752C30.3786 655.307 30.2536 655.802 30.0037 656.24C29.7538 656.669 29.4063 657.005 28.9612 657.247C28.5161 657.489 28.0007 657.61 27.415 657.61Z" fill="#FDFEFF"/>
<path d="M21.2839 805.527C21.2839 805.058 21.3557 804.636 21.4994 804.262C21.6494 803.88 21.9086 803.518 22.2772 803.175C22.652 802.831 23.1706 802.484 23.8328 802.134C24.1389 801.972 24.3857 801.822 24.5731 801.685C24.7605 801.547 24.8979 801.4 24.9854 801.244C25.0729 801.088 25.1166 800.897 25.1166 800.672C25.1166 800.441 25.0666 800.241 24.9667 800.073C24.8667 799.898 24.7168 799.76 24.5169 799.66C24.3232 799.56 24.0796 799.51 23.7859 799.51C23.3174 799.51 22.9457 799.632 22.6708 799.876C22.4022 800.12 22.2335 800.466 22.1648 800.916L21.3214 800.86C21.3963 800.21 21.6462 799.692 22.0711 799.304C22.4959 798.917 23.0675 798.723 23.7859 798.723C24.242 798.723 24.6324 798.805 24.9573 798.967C25.2822 799.129 25.5289 799.357 25.6976 799.651C25.8725 799.938 25.96 800.273 25.96 800.654C25.96 800.991 25.9038 801.285 25.7913 801.535C25.6789 801.778 25.4883 802.006 25.2197 802.219C24.9573 802.431 24.595 802.659 24.1327 802.903C23.5329 803.221 23.0769 803.543 22.7645 803.868C22.4584 804.193 22.296 804.483 22.2772 804.739H25.96V805.527H21.2839ZM26.9359 805.527V804.468H27.9948V805.527H26.9359ZM31.3324 805.677C30.8639 805.677 30.4578 805.598 30.1142 805.442C29.7769 805.286 29.5082 805.067 29.3083 804.786C29.1147 804.505 29.0022 804.18 28.971 803.812L29.8144 803.756C29.8643 804.13 30.0236 804.415 30.2923 804.608C30.5672 804.796 30.9139 804.889 31.3324 804.889C31.801 804.889 32.1727 804.758 32.4476 804.496C32.7225 804.227 32.8599 803.859 32.8599 803.39C32.8599 803.078 32.7974 802.809 32.6725 802.584C32.5538 802.353 32.3789 802.175 32.1477 802.05C31.9166 801.925 31.6386 801.863 31.3137 801.863C31.0076 801.863 30.7296 801.928 30.4797 802.059C30.2298 802.191 30.0518 802.375 29.9456 802.612H29.0834L29.5239 798.873H33.2535V799.66H30.2642L29.9643 802.116L29.8144 801.966C29.9143 801.772 30.0455 801.613 30.2079 801.488C30.3766 801.357 30.5672 801.26 30.7796 801.197C30.9982 801.129 31.2262 801.094 31.4636 801.094C31.9072 801.094 32.2977 801.194 32.635 801.394C32.9724 801.588 33.2347 801.859 33.4222 802.209C33.6096 802.553 33.7033 802.946 33.7033 803.39C33.7033 803.834 33.6033 804.23 33.4034 804.58C33.2035 804.924 32.9255 805.192 32.5694 805.386C32.2133 805.58 31.801 805.677 31.3324 805.677Z" fill="#FDFEFF"/>
<path d="M27.4206 955.136C26.7491 955.136 26.1673 954.96 25.6753 954.609C25.1833 954.257 24.8007 953.758 24.5274 953.109C24.2619 952.461 24.1291 951.692 24.1291 950.802C24.1291 949.912 24.2619 949.142 24.5274 948.494C24.8007 947.838 25.1833 947.335 25.6753 946.983C26.1673 946.624 26.7491 946.444 27.4206 946.444C28.1 946.444 28.6857 946.624 29.1777 946.983C29.6697 947.335 30.0484 947.834 30.3139 948.483C30.5872 949.131 30.7239 949.904 30.7239 950.802C30.7239 951.692 30.5872 952.461 30.3139 953.109C30.0484 953.758 29.6697 954.257 29.1777 954.609C28.6857 954.96 28.1 955.136 27.4206 955.136ZM27.4206 954.152C28.1391 954.152 28.6935 953.863 29.084 953.285C29.4744 952.699 29.6697 951.872 29.6697 950.802C29.6697 950.083 29.5799 949.474 29.4002 948.975C29.2284 948.467 28.9747 948.084 28.6389 947.827C28.3109 947.561 27.9048 947.428 27.4206 947.428C26.9443 947.428 26.5382 947.561 26.2024 947.827C25.8744 948.084 25.6206 948.467 25.441 948.975C25.2692 949.474 25.1833 950.083 25.1833 950.802C25.1833 951.872 25.3786 952.699 25.769 953.285C26.1595 953.863 26.71 954.152 27.4206 954.152Z" fill="#FDFEFF"/>
<path d="M1514.75 62.3706V56.2092H1513.02V55.3424H1513.72C1514.03 55.3424 1514.27 55.3034 1514.45 55.2253C1514.64 55.1472 1514.77 55.0144 1514.85 54.827C1514.93 54.6396 1514.96 54.3819 1514.96 54.0539H1515.76V62.3706H1514.75ZM1520.7 62.558C1520.12 62.558 1519.61 62.4604 1519.18 62.2652C1518.76 62.07 1518.42 61.7966 1518.17 61.4452C1517.93 61.0938 1517.79 60.6877 1517.75 60.227L1518.8 60.1567C1518.87 60.6253 1519.07 60.9806 1519.4 61.2227C1519.74 61.4569 1520.18 61.5741 1520.7 61.5741C1521.29 61.5741 1521.75 61.4101 1522.1 61.0821C1522.44 60.7463 1522.61 60.2856 1522.61 59.6999C1522.61 59.3094 1522.53 58.9736 1522.38 58.6925C1522.23 58.4036 1522.01 58.181 1521.72 58.0248C1521.43 57.8687 1521.08 57.7906 1520.68 57.7906C1520.3 57.7906 1519.95 57.8726 1519.64 58.0366C1519.32 58.2005 1519.1 58.4309 1518.97 58.7277H1517.89L1518.44 54.0539H1523.1V55.0379H1519.37L1518.99 58.1068L1518.8 57.9194C1518.93 57.6773 1519.09 57.4782 1519.3 57.322C1519.51 57.158 1519.74 57.037 1520.01 56.9589C1520.28 56.873 1520.57 56.83 1520.87 56.83C1521.42 56.83 1521.91 56.955 1522.33 57.2049C1522.75 57.447 1523.08 57.7867 1523.31 58.224C1523.55 58.6535 1523.67 59.1454 1523.67 59.6999C1523.67 60.2543 1523.54 60.7502 1523.29 61.1875C1523.04 61.617 1522.69 61.9528 1522.25 62.1949C1521.8 62.437 1521.29 62.558 1520.7 62.558Z" fill="#FDFEFF"/>
<path d="M1512.36 210.474V205.545H1510.97V204.852H1511.53C1511.77 204.852 1511.97 204.82 1512.11 204.758C1512.26 204.695 1512.37 204.589 1512.43 204.439C1512.49 204.289 1512.52 204.083 1512.52 203.821H1513.16V210.474H1512.36ZM1514.66 210.474C1514.66 210.006 1514.73 209.584 1514.88 209.209C1515.03 208.828 1515.29 208.466 1515.65 208.122C1516.03 207.778 1516.55 207.432 1517.21 207.082C1517.52 206.919 1517.76 206.769 1517.95 206.632C1518.14 206.495 1518.28 206.348 1518.36 206.192C1518.45 206.035 1518.49 205.845 1518.49 205.62C1518.49 205.389 1518.44 205.189 1518.34 205.02C1518.24 204.845 1518.09 204.708 1517.89 204.608C1517.7 204.508 1517.46 204.458 1517.16 204.458C1516.69 204.458 1516.32 204.58 1516.05 204.823C1515.78 205.067 1515.61 205.414 1515.54 205.864L1514.7 205.807C1514.77 205.158 1515.02 204.639 1515.45 204.252C1515.87 203.864 1516.44 203.671 1517.16 203.671C1517.62 203.671 1518.01 203.752 1518.33 203.914C1518.66 204.077 1518.91 204.305 1519.07 204.599C1519.25 204.886 1519.34 205.22 1519.34 205.601C1519.34 205.939 1519.28 206.232 1519.17 206.482C1519.06 206.726 1518.87 206.954 1518.6 207.166C1518.33 207.379 1517.97 207.607 1517.51 207.85C1516.91 208.169 1516.45 208.491 1516.14 208.815C1515.84 209.14 1515.67 209.431 1515.65 209.687H1519.34V210.474H1514.66ZM1520.31 210.474V209.415H1521.37V210.474H1520.31ZM1524.71 210.624C1524.24 210.624 1523.84 210.546 1523.49 210.39C1523.15 210.234 1522.89 210.015 1522.69 209.734C1522.49 209.453 1522.38 209.128 1522.35 208.759L1523.19 208.703C1523.24 209.078 1523.4 209.362 1523.67 209.556C1523.94 209.743 1524.29 209.837 1524.71 209.837C1525.18 209.837 1525.55 209.706 1525.82 209.443C1526.1 209.175 1526.24 208.806 1526.24 208.338C1526.24 208.025 1526.17 207.757 1526.05 207.532C1525.93 207.301 1525.76 207.122 1525.53 206.998C1525.29 206.873 1525.02 206.81 1524.69 206.81C1524.38 206.81 1524.11 206.876 1523.86 207.007C1523.61 207.138 1523.43 207.322 1523.32 207.56H1522.46L1522.9 203.821H1526.63V204.608H1523.64L1523.34 207.063L1523.19 206.913C1523.29 206.72 1523.42 206.56 1523.59 206.435C1523.75 206.304 1523.94 206.207 1524.16 206.145C1524.38 206.076 1524.6 206.042 1524.84 206.042C1525.28 206.042 1525.68 206.142 1526.01 206.342C1526.35 206.535 1526.61 206.807 1526.8 207.157C1526.99 207.5 1527.08 207.894 1527.08 208.338C1527.08 208.781 1526.98 209.178 1526.78 209.528C1526.58 209.871 1526.3 210.14 1525.95 210.334C1525.59 210.527 1525.18 210.624 1524.71 210.624Z" fill="#FDFEFF"/>
<path d="M1515.09 359.893V353.731H1513.36V352.864H1514.06C1514.37 352.864 1514.61 352.825 1514.79 352.747C1514.98 352.669 1515.11 352.536 1515.19 352.349C1515.27 352.162 1515.3 351.904 1515.3 351.576H1516.1V359.893H1515.09ZM1521.15 360.08C1520.48 360.08 1519.9 359.904 1519.4 359.553C1518.91 359.201 1518.53 358.702 1518.26 358.054C1517.99 357.405 1517.86 356.636 1517.86 355.746C1517.86 354.856 1517.99 354.087 1518.26 353.438C1518.53 352.782 1518.91 352.279 1519.4 351.927C1519.9 351.568 1520.48 351.388 1521.15 351.388C1521.83 351.388 1522.41 351.568 1522.91 351.927C1523.4 352.279 1523.78 352.778 1524.04 353.427C1524.32 354.075 1524.45 354.848 1524.45 355.746C1524.45 356.636 1524.32 357.405 1524.04 358.054C1523.78 358.702 1523.4 359.201 1522.91 359.553C1522.41 359.904 1521.83 360.08 1521.15 360.08ZM1521.15 359.096C1521.87 359.096 1522.42 358.807 1522.81 358.229C1523.2 357.644 1523.4 356.816 1523.4 355.746C1523.4 355.028 1523.31 354.418 1523.13 353.919C1522.96 353.411 1522.7 353.028 1522.37 352.771C1522.04 352.505 1521.63 352.372 1521.15 352.372C1520.67 352.372 1520.27 352.505 1519.93 352.771C1519.6 353.028 1519.35 353.411 1519.17 353.919C1519 354.418 1518.91 355.028 1518.91 355.746C1518.91 356.816 1519.11 357.644 1519.5 358.229C1519.89 358.807 1520.44 359.096 1521.15 359.096Z" fill="#FDFEFF"/>
<path d="M1514.27 508.003C1514.27 507.315 1514.36 506.631 1514.55 505.95C1514.74 505.263 1515 504.598 1515.35 503.954C1515.71 503.311 1516.14 502.705 1516.63 502.136H1512.79V501.349H1517.51V502.08C1516.95 502.717 1516.49 503.348 1516.13 503.973C1515.78 504.592 1515.51 505.232 1515.35 505.894C1515.18 506.55 1515.09 507.253 1515.09 508.003H1514.27ZM1516.99 508.003V506.944H1518.05V508.003H1516.99ZM1521.39 508.153C1520.92 508.153 1520.51 508.075 1520.17 507.918C1519.83 507.762 1519.56 507.544 1519.37 507.262C1519.17 506.981 1519.06 506.656 1519.03 506.288L1519.87 506.232C1519.92 506.606 1520.08 506.891 1520.35 507.084C1520.62 507.272 1520.97 507.365 1521.39 507.365C1521.86 507.365 1522.23 507.234 1522.5 506.972C1522.78 506.703 1522.92 506.335 1522.92 505.866C1522.92 505.554 1522.85 505.285 1522.73 505.06C1522.61 504.829 1522.44 504.651 1522.2 504.526C1521.97 504.401 1521.7 504.339 1521.37 504.339C1521.06 504.339 1520.79 504.404 1520.54 504.535C1520.29 504.667 1520.11 504.851 1520 505.088H1519.14L1519.58 501.349H1523.31V502.136H1520.32L1520.02 504.592L1519.87 504.442C1519.97 504.248 1520.1 504.089 1520.26 503.964C1520.43 503.833 1520.62 503.736 1520.84 503.673C1521.05 503.605 1521.28 503.57 1521.52 503.57C1521.96 503.57 1522.35 503.67 1522.69 503.87C1523.03 504.064 1523.29 504.336 1523.48 504.685C1523.67 505.029 1523.76 505.423 1523.76 505.866C1523.76 506.31 1523.66 506.706 1523.46 507.056C1523.26 507.4 1522.98 507.668 1522.63 507.862C1522.27 508.056 1521.86 508.153 1521.39 508.153Z" fill="#FDFEFF"/>
<path d="M1518.8 657.609C1518.21 657.609 1517.7 657.511 1517.27 657.316C1516.85 657.12 1516.52 656.847 1516.27 656.496C1516.02 656.144 1515.88 655.738 1515.84 655.278L1516.9 655.207C1516.96 655.676 1517.16 656.031 1517.5 656.273C1517.84 656.507 1518.27 656.625 1518.8 656.625C1519.38 656.625 1519.85 656.461 1520.19 656.133C1520.53 655.797 1520.71 655.336 1520.71 654.75C1520.71 654.36 1520.63 654.024 1520.47 653.743C1520.32 653.454 1520.1 653.232 1519.82 653.075C1519.53 652.919 1519.18 652.841 1518.77 652.841C1518.39 652.841 1518.04 652.923 1517.73 653.087C1517.42 653.251 1517.2 653.481 1517.06 653.778H1515.98L1516.54 649.104H1521.2V650.088H1517.46L1517.09 653.157L1516.9 652.97C1517.02 652.728 1517.19 652.529 1517.39 652.373C1517.6 652.209 1517.84 652.088 1518.1 652.009C1518.38 651.924 1518.66 651.881 1518.96 651.881C1519.51 651.881 1520 652.006 1520.42 652.255C1520.85 652.498 1521.17 652.837 1521.41 653.275C1521.64 653.704 1521.76 654.196 1521.76 654.75C1521.76 655.305 1521.63 655.801 1521.38 656.238C1521.13 656.668 1520.79 657.003 1520.34 657.245C1519.9 657.488 1519.38 657.609 1518.8 657.609Z" fill="#FDFEFF"/>
<path d="M1512.67 805.529C1512.67 805.06 1512.74 804.639 1512.88 804.264C1513.03 803.883 1513.29 803.52 1513.66 803.177C1514.03 802.833 1514.55 802.486 1515.21 802.137C1515.52 801.974 1515.77 801.824 1515.95 801.687C1516.14 801.549 1516.28 801.402 1516.37 801.246C1516.45 801.09 1516.5 800.9 1516.5 800.675C1516.5 800.444 1516.45 800.244 1516.35 800.075C1516.25 799.9 1516.1 799.763 1515.9 799.663C1515.7 799.563 1515.46 799.513 1515.17 799.513C1514.7 799.513 1514.33 799.634 1514.05 799.878C1513.78 800.122 1513.61 800.469 1513.55 800.918L1512.7 800.862C1512.78 800.212 1513.03 799.694 1513.45 799.307C1513.88 798.919 1514.45 798.726 1515.17 798.726C1515.62 798.726 1516.01 798.807 1516.34 798.969C1516.66 799.132 1516.91 799.36 1517.08 799.653C1517.25 799.941 1517.34 800.275 1517.34 800.656C1517.34 800.993 1517.29 801.287 1517.17 801.537C1517.06 801.78 1516.87 802.008 1516.6 802.221C1516.34 802.433 1515.98 802.661 1515.51 802.905C1514.91 803.224 1514.46 803.545 1514.15 803.87C1513.84 804.195 1513.68 804.486 1513.66 804.742H1517.34V805.529H1512.67ZM1518.32 805.529V804.47H1519.38V805.529H1518.32ZM1522.71 805.679C1522.25 805.679 1521.84 805.601 1521.5 805.444C1521.16 805.288 1520.89 805.07 1520.69 804.789C1520.5 804.507 1520.38 804.183 1520.35 803.814L1521.2 803.758C1521.25 804.133 1521.41 804.417 1521.67 804.61C1521.95 804.798 1522.3 804.892 1522.71 804.892C1523.18 804.892 1523.55 804.76 1523.83 804.498C1524.1 804.229 1524.24 803.861 1524.24 803.392C1524.24 803.08 1524.18 802.811 1524.05 802.586C1523.94 802.355 1523.76 802.177 1523.53 802.052C1523.3 801.927 1523.02 801.865 1522.7 801.865C1522.39 801.865 1522.11 801.93 1521.86 802.062C1521.61 802.193 1521.43 802.377 1521.33 802.614H1520.46L1520.91 798.875H1524.63V799.663H1521.65L1521.35 802.118L1521.2 801.968C1521.3 801.774 1521.43 801.615 1521.59 801.49C1521.76 801.359 1521.95 801.262 1522.16 801.199C1522.38 801.131 1522.61 801.096 1522.85 801.096C1523.29 801.096 1523.68 801.196 1524.02 801.396C1524.35 801.59 1524.62 801.862 1524.8 802.212C1524.99 802.555 1525.08 802.949 1525.08 803.392C1525.08 803.836 1524.98 804.232 1524.78 804.582C1524.58 804.926 1524.31 805.195 1523.95 805.388C1523.59 805.582 1523.18 805.679 1522.71 805.679Z" fill="#FDFEFF"/>
<path d="M1518.8 955.134C1518.13 955.134 1517.55 954.958 1517.06 954.607C1516.57 954.256 1516.18 953.756 1515.91 953.108C1515.64 952.46 1515.51 951.69 1515.51 950.8C1515.51 949.91 1515.64 949.141 1515.91 948.493C1516.18 947.837 1516.57 947.333 1517.06 946.981C1517.55 946.622 1518.13 946.443 1518.8 946.443C1519.48 946.443 1520.07 946.622 1520.56 946.981C1521.05 947.333 1521.43 947.833 1521.7 948.481C1521.97 949.129 1522.11 949.902 1522.11 950.8C1522.11 951.69 1521.97 952.46 1521.7 953.108C1521.43 953.756 1521.05 954.256 1520.56 954.607C1520.07 954.958 1519.48 955.134 1518.8 955.134ZM1518.8 954.15C1519.52 954.15 1520.08 953.861 1520.47 953.283C1520.86 952.698 1521.05 951.87 1521.05 950.8C1521.05 950.082 1520.96 949.473 1520.78 948.973C1520.61 948.465 1520.36 948.083 1520.02 947.825C1519.69 947.559 1519.29 947.427 1518.8 947.427C1518.33 947.427 1517.92 947.559 1517.58 947.825C1517.26 948.083 1517 948.465 1516.82 948.973C1516.65 949.473 1516.57 950.082 1516.57 950.8C1516.57 951.87 1516.76 952.698 1517.15 953.283C1517.54 953.861 1518.09 954.15 1518.8 954.15Z" fill="#FDFEFF"/>
<path d="M59.0466 990.278C58.375 990.278 57.7932 990.103 57.3012 989.751C56.8093 989.4 56.4266 988.9 56.1533 988.252C55.8878 987.604 55.755 986.835 55.755 985.944C55.755 985.054 55.8878 984.285 56.1533 983.637C56.4266 982.981 56.8093 982.477 57.3012 982.126C57.7932 981.767 58.375 981.587 59.0466 981.587C59.7259 981.587 60.3116 981.767 60.8036 982.126C61.2956 982.477 61.6743 982.977 61.9398 983.625C62.2131 984.273 62.3498 985.046 62.3498 985.944C62.3498 986.835 62.2131 987.604 61.9398 988.252C61.6743 988.9 61.2956 989.4 60.8036 989.751C60.3116 990.103 59.7259 990.278 59.0466 990.278ZM59.0466 989.295C59.765 989.295 60.3194 989.006 60.7099 988.428C61.1004 987.842 61.2956 987.014 61.2956 985.944C61.2956 985.226 61.2058 984.617 61.0262 984.117C60.8544 983.61 60.6006 983.227 60.2648 982.969C59.9368 982.704 59.5307 982.571 59.0466 982.571C58.5702 982.571 58.1641 982.704 57.8283 982.969C57.5004 983.227 57.2466 983.61 57.067 984.117C56.8952 984.617 56.8092 985.226 56.8092 985.944C56.8092 987.014 57.0045 987.842 57.3949 988.428C57.7854 989.006 58.3359 989.295 59.0466 989.295Z" fill="#FDFEFF"/>
<path d="M201.675 989.432C201.675 988.963 201.747 988.541 201.89 988.167C202.04 987.785 202.3 987.423 202.668 987.08C203.043 986.736 203.562 986.389 204.224 986.039C204.53 985.877 204.777 985.727 204.964 985.59C205.151 985.452 205.289 985.305 205.376 985.149C205.464 984.993 205.508 984.802 205.508 984.578C205.508 984.346 205.458 984.146 205.358 983.978C205.258 983.803 205.108 983.665 204.908 983.565C204.714 983.465 204.471 983.416 204.177 983.416C203.708 983.416 203.337 983.537 203.062 983.781C202.793 984.025 202.624 984.371 202.556 984.821L201.712 984.765C201.787 984.115 202.037 983.597 202.462 983.209C202.887 982.822 203.458 982.628 204.177 982.628C204.633 982.628 205.023 982.71 205.348 982.872C205.673 983.034 205.92 983.262 206.089 983.556C206.264 983.843 206.351 984.178 206.351 984.559C206.351 984.896 206.295 985.19 206.182 985.44C206.07 985.683 205.879 985.911 205.611 986.124C205.348 986.336 204.986 986.564 204.524 986.808C203.924 987.126 203.468 987.448 203.155 987.773C202.849 988.098 202.687 988.388 202.668 988.644H206.351V989.432H201.675ZM207.327 989.432V988.373H208.386V989.432H207.327ZM211.723 989.582C211.255 989.582 210.849 989.503 210.505 989.347C210.168 989.191 209.899 988.972 209.699 988.691C209.506 988.41 209.393 988.085 209.362 987.717L210.205 987.661C210.255 988.035 210.415 988.32 210.683 988.513C210.958 988.701 211.305 988.794 211.723 988.794C212.192 988.794 212.564 988.663 212.839 988.401C213.113 988.132 213.251 987.764 213.251 987.295C213.251 986.983 213.188 986.714 213.063 986.489C212.945 986.258 212.77 986.08 212.539 985.955C212.308 985.83 212.03 985.768 211.705 985.768C211.399 985.768 211.121 985.833 210.871 985.964C210.621 986.096 210.443 986.28 210.337 986.517H209.474L209.915 982.778H213.644V983.565H210.655L210.355 986.021L210.205 985.871C210.305 985.677 210.437 985.518 210.599 985.393C210.768 985.262 210.958 985.165 211.171 985.102C211.389 985.034 211.617 984.999 211.855 984.999C212.298 984.999 212.689 985.099 213.026 985.299C213.363 985.493 213.626 985.764 213.813 986.114C214.001 986.458 214.094 986.852 214.094 987.295C214.094 987.739 213.994 988.135 213.794 988.485C213.595 988.829 213.316 989.097 212.96 989.291C212.604 989.485 212.192 989.582 211.723 989.582Z" fill="#FDFEFF"/>
<path d="M356.569 990.278C355.983 990.278 355.476 990.18 355.046 989.985C354.625 989.79 354.289 989.516 354.039 989.165C353.797 988.814 353.656 988.407 353.617 987.947L354.671 987.876C354.734 988.345 354.933 988.7 355.269 988.942C355.612 989.177 356.046 989.294 356.569 989.294C357.155 989.294 357.619 989.13 357.963 988.802C358.307 988.466 358.478 988.005 358.478 987.42C358.478 987.029 358.4 986.693 358.244 986.412C358.096 986.123 357.877 985.901 357.588 985.745C357.299 985.588 356.952 985.51 356.546 985.51C356.163 985.51 355.816 985.592 355.503 985.756C355.191 985.92 354.968 986.151 354.835 986.447H353.758L354.308 981.774H358.97V982.758H355.234L354.859 985.827L354.671 985.639C354.796 985.397 354.96 985.198 355.163 985.042C355.374 984.878 355.612 984.757 355.878 984.679C356.151 984.593 356.436 984.55 356.733 984.55C357.288 984.55 357.776 984.675 358.197 984.925C358.619 985.167 358.947 985.506 359.181 985.944C359.415 986.373 359.533 986.865 359.533 987.42C359.533 987.974 359.408 988.47 359.158 988.907C358.908 989.337 358.56 989.673 358.115 989.915C357.67 990.157 357.155 990.278 356.569 990.278Z" fill="#FDFEFF"/>
<path d="M500.802 989.431C500.802 988.744 500.896 988.06 501.084 987.379C501.271 986.691 501.54 986.026 501.889 985.383C502.246 984.739 502.67 984.133 503.164 983.565H499.322V982.778H504.045V983.508C503.489 984.146 503.03 984.777 502.667 985.401C502.311 986.02 502.049 986.66 501.88 987.322C501.711 987.978 501.627 988.681 501.627 989.431H500.802ZM503.527 989.431V988.372H504.586V989.431H503.527ZM507.924 989.581C507.456 989.581 507.049 989.503 506.706 989.347C506.368 989.19 506.1 988.972 505.9 988.691C505.706 988.409 505.594 988.085 505.563 987.716L506.406 987.66C506.456 988.035 506.615 988.319 506.884 988.513C507.159 988.7 507.505 988.794 507.924 988.794C508.393 988.794 508.764 988.662 509.039 988.4C509.314 988.131 509.452 987.763 509.452 987.294C509.452 986.982 509.389 986.713 509.264 986.488C509.145 986.257 508.97 986.079 508.739 985.954C508.508 985.829 508.23 985.767 507.905 985.767C507.599 985.767 507.321 985.832 507.071 985.964C506.821 986.095 506.643 986.279 506.537 986.517H505.675L506.115 982.778H509.845V983.565H506.856L506.556 986.02L506.406 985.87C506.506 985.676 506.637 985.517 506.8 985.392C506.968 985.261 507.159 985.164 507.371 985.102C507.59 985.033 507.818 984.998 508.055 984.998C508.499 984.998 508.889 985.098 509.227 985.298C509.564 985.492 509.826 985.764 510.014 986.114C510.201 986.457 510.295 986.851 510.295 987.294C510.295 987.738 510.195 988.135 509.995 988.484C509.795 988.828 509.517 989.097 509.161 989.29C508.805 989.484 508.393 989.581 507.924 989.581Z" fill="#FDFEFF"/>
<path d="M650.392 990.087V983.926H648.658V983.059H649.361C649.666 983.059 649.908 983.02 650.087 982.942C650.275 982.864 650.407 982.731 650.486 982.544C650.564 982.356 650.603 982.098 650.603 981.77H651.399V990.087H650.392ZM656.448 990.275C655.776 990.275 655.195 990.099 654.703 989.747C654.211 989.396 653.828 988.896 653.555 988.248C653.289 987.6 653.156 986.831 653.156 985.941C653.156 985.05 653.289 984.281 653.555 983.633C653.828 982.977 654.211 982.473 654.703 982.122C655.195 981.763 655.776 981.583 656.448 981.583C657.127 981.583 657.713 981.763 658.205 982.122C658.697 982.473 659.076 982.973 659.341 983.621C659.615 984.269 659.751 985.042 659.751 985.941C659.751 986.831 659.615 987.6 659.341 988.248C659.076 988.896 658.697 989.396 658.205 989.747C657.713 990.099 657.127 990.275 656.448 990.275ZM656.448 989.291C657.166 989.291 657.721 989.002 658.111 988.424C658.502 987.838 658.697 987.01 658.697 985.941C658.697 985.222 658.607 984.613 658.428 984.113C658.256 983.606 658.002 983.223 657.666 982.965C657.338 982.7 656.932 982.567 656.448 982.567C655.972 982.567 655.566 982.7 655.23 982.965C654.902 983.223 654.648 983.606 654.468 984.113C654.297 984.613 654.211 985.222 654.211 985.941C654.211 987.01 654.406 987.838 654.796 988.424C655.187 989.002 655.737 989.291 656.448 989.291Z" fill="#FDFEFF"/>
<path d="M796.417 989.431V984.502H795.03V983.809H795.592C795.836 983.809 796.029 983.778 796.173 983.715C796.323 983.653 796.429 983.546 796.492 983.397C796.554 983.247 796.585 983.04 796.585 982.778H797.223V989.431H796.417ZM798.722 989.431C798.722 988.963 798.794 988.541 798.938 988.166C799.088 987.785 799.347 987.423 799.715 987.079C800.09 986.736 800.609 986.389 801.271 986.039C801.577 985.877 801.824 985.727 802.011 985.589C802.199 985.452 802.336 985.305 802.424 985.149C802.511 984.993 802.555 984.802 802.555 984.577C802.555 984.346 802.505 984.146 802.405 983.978C802.305 983.803 802.155 983.665 801.955 983.565C801.761 983.465 801.518 983.415 801.224 983.415C800.756 983.415 800.384 983.537 800.109 983.781C799.84 984.024 799.672 984.371 799.603 984.821L798.76 984.765C798.835 984.115 799.084 983.596 799.509 983.209C799.934 982.822 800.506 982.628 801.224 982.628C801.68 982.628 802.071 982.709 802.395 982.872C802.72 983.034 802.967 983.262 803.136 983.556C803.311 983.843 803.398 984.177 803.398 984.559C803.398 984.896 803.342 985.189 803.23 985.439C803.117 985.683 802.927 985.911 802.658 986.123C802.395 986.336 802.033 986.564 801.571 986.808C800.971 987.126 800.515 987.448 800.203 987.773C799.897 988.098 799.734 988.388 799.715 988.644H803.398V989.431H798.722ZM804.374 989.431V988.372H805.433V989.431H804.374ZM808.771 989.581C808.302 989.581 807.896 989.503 807.552 989.347C807.215 989.191 806.946 988.972 806.747 988.691C806.553 988.41 806.44 988.085 806.409 987.717L807.253 987.66C807.303 988.035 807.462 988.319 807.73 988.513C808.005 988.7 808.352 988.794 808.771 988.794C809.239 988.794 809.611 988.663 809.886 988.401C810.161 988.132 810.298 987.763 810.298 987.295C810.298 986.982 810.236 986.714 810.111 986.489C809.992 986.258 809.817 986.08 809.586 985.955C809.355 985.83 809.077 985.767 808.752 985.767C808.446 985.767 808.168 985.833 807.918 985.964C807.668 986.095 807.49 986.28 807.384 986.517H806.522L806.962 982.778H810.692V983.565H807.702L807.402 986.02L807.253 985.87C807.353 985.677 807.484 985.517 807.646 985.393C807.815 985.261 808.005 985.165 808.218 985.102C808.436 985.033 808.664 984.999 808.902 984.999C809.345 984.999 809.736 985.099 810.073 985.299C810.411 985.492 810.673 985.764 810.86 986.114C811.048 986.458 811.141 986.851 811.141 987.295C811.141 987.738 811.042 988.135 810.842 988.485C810.642 988.829 810.364 989.097 810.008 989.291C809.652 989.484 809.239 989.581 808.771 989.581Z" fill="#FDFEFF"/>
<path d="M947.578 990.087V983.925H945.844V983.058H946.547C946.852 983.058 947.094 983.019 947.273 982.941C947.461 982.863 947.593 982.73 947.671 982.543C947.75 982.356 947.789 982.098 947.789 981.77H948.585V990.087H947.578ZM953.526 990.274C952.94 990.274 952.433 990.176 952.003 989.981C951.581 989.786 951.246 989.513 950.996 989.161C950.754 988.81 950.613 988.404 950.574 987.943L951.628 987.873C951.691 988.341 951.89 988.697 952.226 988.939C952.569 989.173 953.003 989.29 953.526 989.29C954.112 989.29 954.576 989.126 954.92 988.798C955.263 988.462 955.435 988.002 955.435 987.416C955.435 987.026 955.357 986.69 955.201 986.409C955.053 986.12 954.834 985.897 954.545 985.741C954.256 985.585 953.908 985.507 953.502 985.507C953.12 985.507 952.772 985.589 952.46 985.753C952.148 985.917 951.925 986.147 951.792 986.444H950.715L951.265 981.77H955.927V982.754H952.19L951.816 985.823L951.628 985.635C951.753 985.393 951.917 985.194 952.12 985.038C952.331 984.874 952.569 984.753 952.835 984.675C953.108 984.589 953.393 984.546 953.69 984.546C954.244 984.546 954.732 984.671 955.154 984.921C955.576 985.163 955.904 985.503 956.138 985.94C956.372 986.37 956.489 986.862 956.489 987.416C956.489 987.97 956.364 988.466 956.115 988.904C955.865 989.333 955.517 989.669 955.072 989.911C954.627 990.153 954.112 990.274 953.526 990.274Z" fill="#FDFEFF"/>
<path d="M1094.39 989.43V984.501H1093.01V983.808H1093.57C1093.81 983.808 1094.01 983.777 1094.15 983.714C1094.3 983.652 1094.41 983.545 1094.47 983.396C1094.53 983.246 1094.56 983.039 1094.56 982.777H1095.2V989.43H1094.39ZM1097.9 989.43C1097.9 988.743 1097.99 988.059 1098.18 987.378C1098.37 986.691 1098.63 986.026 1098.98 985.382C1099.34 984.739 1099.77 984.133 1100.26 983.564H1096.42V982.777H1101.14V983.508C1100.58 984.145 1100.12 984.776 1099.76 985.401C1099.41 986.019 1099.14 986.66 1098.97 987.322C1098.81 987.978 1098.72 988.681 1098.72 989.43H1097.9ZM1100.62 989.43V988.372H1101.68V989.43H1100.62ZM1105.02 989.58C1104.55 989.58 1104.14 989.502 1103.8 989.346C1103.46 989.19 1103.19 988.971 1102.99 988.69C1102.8 988.409 1102.69 988.084 1102.66 987.716L1103.5 987.659C1103.55 988.034 1103.71 988.318 1103.98 988.512C1104.25 988.699 1104.6 988.793 1105.02 988.793C1105.49 988.793 1105.86 988.662 1106.13 988.4C1106.41 988.131 1106.55 987.762 1106.55 987.294C1106.55 986.981 1106.48 986.713 1106.36 986.488C1106.24 986.257 1106.07 986.079 1105.83 985.954C1105.6 985.829 1105.32 985.766 1105 985.766C1104.69 985.766 1104.42 985.832 1104.17 985.963C1103.92 986.094 1103.74 986.279 1103.63 986.516H1102.77L1103.21 982.777H1106.94V983.564H1103.95L1103.65 986.019L1103.5 985.869C1103.6 985.676 1103.73 985.516 1103.89 985.392C1104.06 985.26 1104.25 985.164 1104.47 985.101C1104.68 985.032 1104.91 984.998 1105.15 984.998C1105.59 984.998 1105.98 985.098 1106.32 985.298C1106.66 985.492 1106.92 985.763 1107.11 986.113C1107.3 986.457 1107.39 986.85 1107.39 987.294C1107.39 987.737 1107.29 988.134 1107.09 988.484C1106.89 988.828 1106.61 989.096 1106.26 989.29C1105.9 989.484 1105.49 989.58 1105.02 989.58Z" fill="#FDFEFF"/>
<path d="M1242.4 990.087C1242.4 989.501 1242.49 988.974 1242.67 988.505C1242.85 988.029 1243.18 987.576 1243.64 987.147C1244.11 986.717 1244.75 986.284 1245.58 985.846C1245.96 985.643 1246.27 985.456 1246.51 985.284C1246.74 985.112 1246.91 984.929 1247.02 984.734C1247.13 984.538 1247.19 984.3 1247.19 984.019C1247.19 983.73 1247.12 983.48 1247 983.269C1246.87 983.051 1246.69 982.879 1246.44 982.754C1246.2 982.629 1245.89 982.567 1245.52 982.567C1244.94 982.567 1244.47 982.719 1244.13 983.023C1243.79 983.328 1243.58 983.761 1243.5 984.324L1242.44 984.253C1242.54 983.441 1242.85 982.793 1243.38 982.309C1243.91 981.825 1244.63 981.583 1245.52 981.583C1246.09 981.583 1246.58 981.684 1246.99 981.887C1247.39 982.09 1247.7 982.375 1247.91 982.742C1248.13 983.101 1248.24 983.519 1248.24 983.996C1248.24 984.417 1248.17 984.784 1248.03 985.097C1247.89 985.401 1247.65 985.686 1247.32 985.952C1246.99 986.217 1246.53 986.502 1245.96 986.807C1245.21 987.205 1244.64 987.607 1244.25 988.013C1243.86 988.419 1243.66 988.783 1243.64 989.103H1248.24V990.087H1242.4ZM1252.71 990.274C1252.04 990.274 1251.46 990.098 1250.96 989.747C1250.47 989.396 1250.09 988.896 1249.82 988.248C1249.55 987.599 1249.42 986.83 1249.42 985.94C1249.42 985.05 1249.55 984.281 1249.82 983.632C1250.09 982.976 1250.47 982.473 1250.96 982.121C1251.46 981.762 1252.04 981.583 1252.71 981.583C1253.39 981.583 1253.97 981.762 1254.47 982.121C1254.96 982.473 1255.34 982.973 1255.6 983.621C1255.87 984.269 1256.01 985.042 1256.01 985.94C1256.01 986.83 1255.87 987.599 1255.6 988.248C1255.34 988.896 1254.96 989.396 1254.47 989.747C1253.97 990.098 1253.39 990.274 1252.71 990.274ZM1252.71 989.29C1253.43 989.29 1253.98 989.001 1254.37 988.423C1254.76 987.838 1254.96 987.01 1254.96 985.94C1254.96 985.222 1254.87 984.612 1254.69 984.113C1254.52 983.605 1254.26 983.222 1253.93 982.965C1253.6 982.699 1253.19 982.567 1252.71 982.567C1252.23 982.567 1251.83 982.699 1251.49 982.965C1251.16 983.222 1250.91 983.605 1250.73 984.113C1250.56 984.612 1250.47 985.222 1250.47 985.94C1250.47 987.01 1250.67 987.838 1251.06 988.423C1251.45 989.001 1252 989.29 1252.71 989.29Z" fill="#FDFEFF"/>
<path d="M1388.95 989.431C1388.95 988.962 1389.02 988.54 1389.17 988.166C1389.32 987.785 1389.58 987.422 1389.94 987.079C1390.32 986.735 1390.84 986.388 1391.5 986.038C1391.81 985.876 1392.05 985.726 1392.24 985.589C1392.43 985.451 1392.57 985.304 1392.65 985.148C1392.74 984.992 1392.78 984.801 1392.78 984.577C1392.78 984.345 1392.73 984.145 1392.63 983.977C1392.53 983.802 1392.38 983.664 1392.18 983.564C1391.99 983.465 1391.75 983.415 1391.45 983.415C1390.99 983.415 1390.61 983.536 1390.34 983.78C1390.07 984.024 1389.9 984.37 1389.83 984.82L1388.99 984.764C1389.06 984.114 1389.31 983.596 1389.74 983.208C1390.16 982.821 1390.74 982.627 1391.45 982.627C1391.91 982.627 1392.3 982.709 1392.62 982.871C1392.95 983.033 1393.2 983.261 1393.37 983.555C1393.54 983.842 1393.63 984.177 1393.63 984.558C1393.63 984.895 1393.57 985.189 1393.46 985.439C1393.35 985.682 1393.16 985.91 1392.89 986.123C1392.62 986.335 1392.26 986.563 1391.8 986.807C1391.2 987.125 1390.74 987.447 1390.43 987.772C1390.13 988.097 1389.96 988.387 1389.94 988.644H1393.63V989.431H1388.95ZM1394.75 989.431C1394.75 988.962 1394.83 988.54 1394.97 988.166C1395.12 987.785 1395.38 987.422 1395.75 987.079C1396.12 986.735 1396.64 986.388 1397.3 986.038C1397.61 985.876 1397.86 985.726 1398.04 985.589C1398.23 985.451 1398.37 985.304 1398.45 985.148C1398.54 984.992 1398.59 984.801 1398.59 984.577C1398.59 984.345 1398.54 984.145 1398.44 983.977C1398.34 983.802 1398.19 983.664 1397.99 983.564C1397.79 983.465 1397.55 983.415 1397.26 983.415C1396.79 983.415 1396.42 983.536 1396.14 983.78C1395.87 984.024 1395.7 984.37 1395.63 984.82L1394.79 984.764C1394.87 984.114 1395.12 983.596 1395.54 983.208C1395.97 982.821 1396.54 982.627 1397.26 982.627C1397.71 982.627 1398.1 982.709 1398.43 982.871C1398.75 983.033 1399 983.261 1399.17 983.555C1399.34 983.842 1399.43 984.177 1399.43 984.558C1399.43 984.895 1399.37 985.189 1399.26 985.439C1399.15 985.682 1398.96 985.91 1398.69 986.123C1398.43 986.335 1398.06 986.563 1397.6 986.807C1397 987.125 1396.55 987.447 1396.23 987.772C1395.93 988.097 1395.77 988.387 1395.75 988.644H1399.43V989.431H1394.75ZM1400.41 989.431V988.372H1401.46V989.431H1400.41ZM1404.8 989.581C1404.33 989.581 1403.93 989.503 1403.58 989.346C1403.25 989.19 1402.98 988.971 1402.78 988.69C1402.58 988.409 1402.47 988.084 1402.44 987.716L1403.28 987.66C1403.33 988.034 1403.49 988.319 1403.76 988.512C1404.04 988.7 1404.38 988.793 1404.8 988.793C1405.27 988.793 1405.64 988.662 1405.92 988.4C1406.19 988.131 1406.33 987.763 1406.33 987.294C1406.33 986.982 1406.27 986.713 1406.14 986.488C1406.02 986.257 1405.85 986.079 1405.62 985.954C1405.39 985.829 1405.11 985.767 1404.78 985.767C1404.48 985.767 1404.2 985.832 1403.95 985.963C1403.7 986.095 1403.52 986.279 1403.42 986.516H1402.55L1402.99 982.777H1406.72V983.564H1403.73L1403.43 986.02L1403.28 985.87C1403.38 985.676 1403.52 985.517 1403.68 985.392C1403.85 985.261 1404.04 985.164 1404.25 985.101C1404.47 985.033 1404.7 984.998 1404.93 984.998C1405.38 984.998 1405.77 985.098 1406.1 985.298C1406.44 985.492 1406.7 985.764 1406.89 986.113C1407.08 986.457 1407.17 986.851 1407.17 987.294C1407.17 987.738 1407.07 988.134 1406.87 988.484C1406.67 988.828 1406.4 989.096 1406.04 989.29C1405.68 989.484 1405.27 989.581 1404.8 989.581Z" fill="#FDFEFF"/>
<path d="M59.1536 951.149L1487.28 568.488" stroke="#FDFEFF" stroke-opacity="0.5" stroke-width="1.40564" stroke-dasharray="3.51 2.34"/>
<path d="M311.437 885.639V879.478H309.704V878.611H310.406C310.711 878.611 310.953 878.572 311.133 878.494C311.32 878.416 311.453 878.283 311.531 878.096C311.609 877.908 311.648 877.65 311.648 877.322H312.445V885.639H311.437ZM317.385 885.827C316.8 885.827 316.292 885.729 315.863 885.534C315.441 885.339 315.105 885.065 314.855 884.714C314.613 884.362 314.473 883.956 314.434 883.496L315.488 883.425C315.55 883.894 315.749 884.249 316.085 884.491C316.429 884.725 316.862 884.843 317.385 884.843C317.971 884.843 318.436 884.679 318.779 884.351C319.123 884.015 319.295 883.554 319.295 882.968C319.295 882.578 319.217 882.242 319.06 881.961C318.912 881.672 318.693 881.45 318.404 881.293C318.115 881.137 317.768 881.059 317.362 881.059C316.979 881.059 316.632 881.141 316.319 881.305C316.007 881.469 315.784 881.699 315.652 881.996H314.574L315.125 877.322H319.787V878.306H316.05L315.675 881.375L315.488 881.188C315.613 880.946 315.777 880.747 315.98 880.591C316.191 880.427 316.429 880.306 316.694 880.227C316.968 880.142 317.253 880.099 317.549 880.099C318.104 880.099 318.592 880.224 319.014 880.473C319.435 880.716 319.763 881.055 319.997 881.493C320.232 881.922 320.349 882.414 320.349 882.968C320.349 883.523 320.224 884.019 319.974 884.456C319.724 884.886 319.377 885.221 318.932 885.463C318.486 885.706 317.971 885.827 317.385 885.827ZM323.429 880.837C323.094 880.837 322.785 880.755 322.504 880.591C322.223 880.427 321.996 880.208 321.825 879.935C321.661 879.653 321.579 879.337 321.579 878.986C321.579 878.634 321.661 878.318 321.825 878.037C321.996 877.756 322.223 877.537 322.504 877.381C322.785 877.217 323.094 877.135 323.429 877.135C323.765 877.135 324.074 877.217 324.355 877.381C324.636 877.537 324.858 877.756 325.022 878.037C325.194 878.318 325.28 878.634 325.28 878.986C325.28 879.337 325.194 879.653 325.022 879.935C324.858 880.208 324.636 880.427 324.355 880.591C324.074 880.755 323.765 880.837 323.429 880.837ZM323.429 879.97C323.703 879.97 323.933 879.88 324.12 879.7C324.316 879.513 324.413 879.275 324.413 878.986C324.413 878.689 324.316 878.447 324.12 878.26C323.925 878.072 323.695 877.978 323.429 877.978C323.164 877.978 322.933 878.072 322.738 878.26C322.543 878.447 322.445 878.689 322.445 878.986C322.445 879.275 322.543 879.513 322.738 879.7C322.933 879.88 323.164 879.97 323.429 879.97Z" fill="#FDFEFF"/>
<path d="M59.1512 951.144L1487.28 126.608" stroke="#FDFEFF" stroke-opacity="0.5" stroke-width="1.40564" stroke-dasharray="3.51 2.34"/>
<path d="M284.775 821.25C283.853 821.25 283.143 821.035 282.643 820.606C282.143 820.168 281.874 819.606 281.835 818.919L282.877 818.849C282.924 819.356 283.119 819.719 283.463 819.938C283.814 820.157 284.251 820.266 284.775 820.266C285.134 820.266 285.466 820.219 285.77 820.125C286.075 820.024 286.321 819.864 286.508 819.645C286.696 819.419 286.789 819.118 286.789 818.743C286.789 818.189 286.606 817.783 286.239 817.525C285.872 817.267 285.388 817.138 284.786 817.138H284.13V816.154H284.786C285.278 816.154 285.684 816.057 286.005 815.862C286.333 815.666 286.497 815.331 286.497 814.854C286.497 814.425 286.356 814.101 286.075 813.882C285.802 813.656 285.388 813.542 284.833 813.542C284.287 813.542 283.873 813.648 283.592 813.859C283.318 814.069 283.154 814.358 283.1 814.725L282.045 814.655C282.123 814.03 282.401 813.527 282.877 813.144C283.353 812.754 284.005 812.558 284.833 812.558C285.395 812.558 285.88 812.652 286.286 812.84C286.692 813.019 287.004 813.277 287.223 813.613C287.441 813.948 287.551 814.347 287.551 814.807C287.551 815.323 287.387 815.741 287.059 816.061C286.739 816.373 286.262 816.588 285.63 816.705V816.494C286.309 816.572 286.848 816.814 287.246 817.22C287.644 817.626 287.844 818.134 287.844 818.743C287.844 819.274 287.711 819.727 287.445 820.102C287.188 820.477 286.828 820.762 286.368 820.957C285.907 821.152 285.376 821.25 284.775 821.25ZM292.31 821.25C291.638 821.25 291.056 821.074 290.564 820.723C290.073 820.371 289.69 819.872 289.417 819.223C289.151 818.575 289.018 817.806 289.018 816.916C289.018 816.026 289.151 815.256 289.417 814.608C289.69 813.952 290.073 813.449 290.564 813.097C291.056 812.738 291.638 812.558 292.31 812.558C292.989 812.558 293.575 812.738 294.067 813.097C294.559 813.449 294.938 813.948 295.203 814.597C295.476 815.245 295.613 816.018 295.613 816.916C295.613 817.806 295.476 818.575 295.203 819.223C294.938 819.872 294.559 820.371 294.067 820.723C293.575 821.074 292.989 821.25 292.31 821.25ZM292.31 820.266C293.028 820.266 293.583 819.977 293.973 819.399C294.364 818.813 294.559 817.986 294.559 816.916C294.559 816.197 294.469 815.588 294.289 815.089C294.118 814.581 293.864 814.198 293.528 813.941C293.2 813.675 292.794 813.542 292.31 813.542C291.833 813.542 291.427 813.675 291.092 813.941C290.764 814.198 290.51 814.581 290.33 815.089C290.158 815.588 290.073 816.197 290.073 816.916C290.073 817.986 290.268 818.813 290.658 819.399C291.049 819.977 291.599 820.266 292.31 820.266ZM298.566 816.26C298.23 816.26 297.922 816.178 297.641 816.014C297.359 815.85 297.133 815.631 296.961 815.358C296.797 815.077 296.715 814.761 296.715 814.409C296.715 814.058 296.797 813.741 296.961 813.46C297.133 813.179 297.359 812.961 297.641 812.804C297.922 812.64 298.23 812.558 298.566 812.558C298.902 812.558 299.21 812.64 299.491 812.804C299.772 812.961 299.995 813.179 300.159 813.46C300.331 813.741 300.417 814.058 300.417 814.409C300.417 814.761 300.331 815.077 300.159 815.358C299.995 815.631 299.772 815.85 299.491 816.014C299.21 816.178 298.902 816.26 298.566 816.26ZM298.566 815.393C298.839 815.393 299.07 815.303 299.257 815.124C299.452 814.936 299.55 814.698 299.55 814.409C299.55 814.112 299.452 813.87 299.257 813.683C299.062 813.495 298.831 813.402 298.566 813.402C298.3 813.402 298.07 813.495 297.875 813.683C297.68 813.87 297.582 814.112 297.582 814.409C297.582 814.698 297.68 814.936 297.875 815.124C298.07 815.303 298.3 815.393 298.566 815.393Z" fill="#FDFEFF"/>
<path d="M59.1526 951.145L951.733 58.5649" stroke="#FDFEFF" stroke-opacity="0.5" stroke-width="1.40564" stroke-dasharray="3.51 2.34"/>
<path d="M243.48 765.609V763.805H239.251V762.891L243.41 757.292H244.487V762.821H245.518V763.805H244.487V765.609H243.48ZM240.47 762.821H243.48V758.838L240.47 762.821ZM249.761 765.796C249.176 765.796 248.668 765.699 248.238 765.503C247.817 765.308 247.481 765.035 247.231 764.684C246.989 764.332 246.848 763.926 246.809 763.465L247.864 763.395C247.926 763.864 248.125 764.219 248.461 764.461C248.805 764.695 249.238 764.812 249.761 764.812C250.347 764.812 250.812 764.648 251.155 764.32C251.499 763.985 251.671 763.524 251.671 762.938C251.671 762.548 251.592 762.212 251.436 761.931C251.288 761.642 251.069 761.419 250.78 761.263C250.491 761.107 250.144 761.029 249.738 761.029C249.355 761.029 249.008 761.111 248.695 761.275C248.383 761.439 248.16 761.669 248.028 761.966H246.95L247.5 757.292H252.162V758.276H248.426L248.051 761.345L247.864 761.158C247.989 760.916 248.153 760.716 248.356 760.56C248.566 760.396 248.805 760.275 249.07 760.197C249.343 760.111 249.628 760.068 249.925 760.068C250.48 760.068 250.968 760.193 251.389 760.443C251.811 760.685 252.139 761.025 252.373 761.462C252.608 761.892 252.725 762.384 252.725 762.938C252.725 763.493 252.6 763.988 252.35 764.426C252.1 764.855 251.753 765.191 251.307 765.433C250.862 765.675 250.347 765.796 249.761 765.796ZM255.805 760.806C255.469 760.806 255.161 760.724 254.88 760.56C254.599 760.396 254.372 760.178 254.2 759.904C254.036 759.623 253.954 759.307 253.954 758.956C253.954 758.604 254.036 758.288 254.2 758.007C254.372 757.726 254.599 757.507 254.88 757.351C255.161 757.187 255.469 757.105 255.805 757.105C256.141 757.105 256.449 757.187 256.731 757.351C257.012 757.507 257.234 757.726 257.398 758.007C257.57 758.288 257.656 758.604 257.656 758.956C257.656 759.307 257.57 759.623 257.398 759.904C257.234 760.178 257.012 760.396 256.731 760.56C256.449 760.724 256.141 760.806 255.805 760.806ZM255.805 759.939C256.078 759.939 256.309 759.85 256.496 759.67C256.692 759.483 256.789 759.244 256.789 758.956C256.789 758.659 256.692 758.417 256.496 758.229C256.301 758.042 256.071 757.948 255.805 757.948C255.54 757.948 255.309 758.042 255.114 758.229C254.919 758.417 254.821 758.659 254.821 758.956C254.821 759.244 254.919 759.483 255.114 759.67C255.309 759.85 255.54 759.939 255.805 759.939Z" fill="#FDFEFF"/>
<path d="M59.1526 951.145L574.483 58.5649" stroke="#FDFEFF" stroke-opacity="0.5" stroke-width="1.40564" stroke-dasharray="3.51 2.34"/>
<path d="M186.832 723.238C186.207 723.238 185.673 723.098 185.227 722.817C184.79 722.528 184.454 722.106 184.22 721.551C183.994 720.997 183.88 720.325 183.88 719.537C183.88 718.849 183.935 718.205 184.044 717.604C184.161 717.003 184.345 716.476 184.595 716.023C184.853 715.562 185.188 715.203 185.602 714.945C186.024 714.679 186.543 714.547 187.16 714.547C187.902 714.547 188.476 714.73 188.882 715.097C189.288 715.456 189.573 715.929 189.737 716.515L188.683 716.608C188.589 716.28 188.425 716.019 188.191 715.823C187.965 715.628 187.621 715.531 187.16 715.531C186.473 715.531 185.93 715.823 185.532 716.409C185.142 716.995 184.935 717.881 184.911 719.068L184.7 719.021C184.786 718.74 184.935 718.482 185.145 718.248C185.364 718.006 185.63 717.815 185.942 717.674C186.262 717.526 186.621 717.452 187.02 717.452C187.566 717.452 188.047 717.569 188.46 717.803C188.874 718.037 189.194 718.369 189.421 718.799C189.655 719.22 189.772 719.716 189.772 720.286C189.772 720.895 189.647 721.423 189.397 721.868C189.148 722.305 188.8 722.645 188.355 722.887C187.918 723.121 187.41 723.238 186.832 723.238ZM186.856 722.254C187.402 722.254 187.847 722.082 188.191 721.739C188.542 721.387 188.718 720.903 188.718 720.286C188.718 719.904 188.644 719.572 188.496 719.291C188.347 719.01 188.14 718.795 187.875 718.646C187.609 718.49 187.301 718.412 186.949 718.412C186.574 718.412 186.239 718.49 185.942 718.646C185.645 718.795 185.411 719.01 185.239 719.291C185.067 719.572 184.981 719.904 184.981 720.286C184.981 720.669 185.056 721.009 185.204 721.305C185.36 721.602 185.579 721.836 185.86 722.008C186.141 722.172 186.473 722.254 186.856 722.254ZM194.364 723.238C193.693 723.238 193.111 723.062 192.619 722.711C192.127 722.36 191.744 721.86 191.471 721.212C191.206 720.564 191.073 719.794 191.073 718.904C191.073 718.014 191.206 717.245 191.471 716.597C191.744 715.941 192.127 715.437 192.619 715.085C193.111 714.726 193.693 714.547 194.364 714.547C195.044 714.547 195.629 714.726 196.121 715.085C196.613 715.437 196.992 715.937 197.258 716.585C197.531 717.233 197.668 718.006 197.668 718.904C197.668 719.794 197.531 720.564 197.258 721.212C196.992 721.86 196.613 722.36 196.121 722.711C195.629 723.062 195.044 723.238 194.364 723.238ZM194.364 722.254C195.083 722.254 195.637 721.965 196.028 721.387C196.418 720.802 196.613 719.974 196.613 718.904C196.613 718.186 196.524 717.577 196.344 717.077C196.172 716.569 195.918 716.187 195.583 715.929C195.255 715.663 194.849 715.531 194.364 715.531C193.888 715.531 193.482 715.663 193.146 715.929C192.818 716.187 192.564 716.569 192.385 717.077C192.213 717.577 192.127 718.186 192.127 718.904C192.127 719.974 192.322 720.802 192.713 721.387C193.103 721.965 193.654 722.254 194.364 722.254ZM200.62 718.248C200.285 718.248 199.976 718.166 199.695 718.002C199.414 717.838 199.187 717.62 199.016 717.346C198.852 717.065 198.77 716.749 198.77 716.397C198.77 716.046 198.852 715.73 199.016 715.449C199.187 715.167 199.414 714.949 199.695 714.793C199.976 714.629 200.285 714.547 200.62 714.547C200.956 714.547 201.265 714.629 201.546 714.793C201.827 714.949 202.05 715.167 202.213 715.449C202.385 715.73 202.471 716.046 202.471 716.397C202.471 716.749 202.385 717.065 202.213 717.346C202.05 717.62 201.827 717.838 201.546 718.002C201.265 718.166 200.956 718.248 200.62 718.248ZM200.62 717.381C200.894 717.381 201.124 717.292 201.312 717.112C201.507 716.925 201.604 716.686 201.604 716.397C201.604 716.101 201.507 715.859 201.312 715.671C201.116 715.484 200.886 715.39 200.62 715.39C200.355 715.39 200.125 715.484 199.929 715.671C199.734 715.859 199.636 716.101 199.636 716.397C199.636 716.686 199.734 716.925 199.929 717.112C200.125 717.292 200.355 717.381 200.62 717.381Z" fill="#FDFEFF"/>
<circle cx="1100.5" cy="207.329" r="29.2841" stroke="#FDFEFF" stroke-width="1.17137"/>
<circle cx="1100.5" cy="207.328" r="89.0237" stroke="#FDFEFF" stroke-width="1.17137"/>
<circle cx="1100.5" cy="207.33" r="148.763" stroke="#FDFEFF" stroke-width="1.17137"/>
</svg>
