<?xml version='1.0' encoding='UTF-8'?>
<svg xmlns="http://www.w3.org/2000/svg" width="894" height="711" viewBox="0 0 894 711" fill="none">
<g id="FolderHover">
<path id="Union" d="M44.5203 0.5L268.082 0.597656C272.38 0.599538 276.156 3.45067 277.336 7.58398L289.999 51.9766C291.3 56.5393 295.469 59.6872 300.214 59.6895L877.437 59.9414C882.754 59.9437 887.063 64.2563 887.061 69.5732L886.785 700.01C886.783 705.327 882.47 709.635 877.153 709.633L10.408 709.254C5.09098 709.251 0.782631 704.939 0.784912 699.622L1.06128 69.1855C1.06365 63.8685 5.37602 59.5602 10.6931 59.5625L12.3367 59.5635C17.0817 59.5656 21.2538 56.4212 22.5593 51.8594L35.2605 7.47852C36.4432 3.34602 40.2218 0.498136 44.5203 0.5Z" fill="url(#paint0_linear_949_3661)" stroke="url(#paint1_linear_949_3661)" />
<g id="case-paper-white" filter="url(#filter0_d_949_3661)">
<rect x="37.2849" y="81" width="810" height="600" rx="3" fill="#FDFEFF" shape-rendering="crispEdges" />
<path id="Subtract" d="M835.285 81.3457C841.912 81.3485 847.283 86.7235 847.28 93.351L847.025 669C847.022 675.628 841.647 680.998 835.02 680.995L49.285 680.654C42.6576 680.651 37.2873 675.276 37.2902 668.649L37.5449 92.9999C37.5478 86.3725 42.9227 81.0023 49.5501 81.0052L835.285 81.3457Z" fill="#FDFEFF" />
</g>
<g id="case-paper-white_2" filter="url(#filter1_d_949_3661)">
<rect x="60.4213" y="-27.6787" width="810" height="600" rx="3" transform="rotate(4.1623 60.4213 -27.6787)" fill="#FDFEFF" shape-rendering="crispEdges" />
<path id="Subtract_2" d="M856.291 30.5864C862.901 31.0703 867.867 36.8209 867.383 43.4307L825.347 617.543C824.863 624.153 819.113 629.119 812.503 628.635L28.8656 571.265C22.2559 570.781 17.2899 565.03 17.7738 558.421L59.8096 -15.6916C60.2935 -22.3013 66.044 -27.2672 72.6537 -26.7833L856.291 30.5864Z" fill="#FDFEFF" />
</g>
<g id="case-paper-white_3" filter="url(#filter2_d_949_3661)">
<rect x="-36.5747" y="62.8295" width="810" height="600" rx="3" transform="rotate(1.16699 -36.5747 62.8295)" fill="#FDFEFF" shape-rendering="crispEdges" />
<path id="Subtract_3" d="M761.253 79.4275C767.879 79.5653 773.138 85.0485 773 91.6746L761.022 667.199C760.884 673.825 755.401 679.085 748.775 678.947L-36.7899 662.604C-43.4159 662.466 -48.6756 656.983 -48.5377 650.357L-36.5592 74.8322C-36.4213 68.2062 -30.9381 62.9466 -24.3122 63.0845L761.253 79.4275Z" fill="#FDFEFF" />
</g>
<g id="case-paper-white_4" filter="url(#filter3_d_949_3661)">
<rect x="82.2849" y="57.5234" width="810" height="600" rx="3" transform="rotate(-3.84858 82.2849 57.5234)" fill="#FDFEFF" shape-rendering="crispEdges" />
<path id="Subtract_4" d="M878.508 4.30671C885.121 3.86474 890.84 8.86715 891.282 15.4799L929.665 589.848C930.107 596.461 925.105 602.179 918.492 602.621L134.507 655.02C127.894 655.462 122.175 650.46 121.733 643.847L83.3497 69.4788C82.9078 62.8662 87.9102 57.1474 94.5228 56.7054L878.508 4.30671Z" fill="#FDFEFF" />
</g>
<path id="Subtract_5" d="M0.504378 699.546L0.50341 699.526L-39.2454 168.186C-39.2328 162.877 -34.924 158.579 -29.6132 158.582L208.338 158.686C213.083 158.688 217.254 155.544 218.56 150.982L231.261 106.601C232.444 102.469 236.223 99.621 240.521 99.6227L240.522 99.6227L837.157 99.884C842.474 99.8863 846.783 104.199 846.78 109.516L846.78 109.533L846.781 109.549L886.503 699.965C886.494 705.276 882.186 709.577 876.873 709.575L10.1281 709.196C4.81105 709.193 0.502174 704.882 0.50437 699.565L0.504378 699.546Z" fill="url(#paint2_linear_949_3661)" stroke="url(#paint3_linear_949_3661)" />
</g>
<defs>
<filter id="filter0_d_949_3661" x="28.2849" y="66" width="834" height="624" filterUnits="userSpaceOnUse" color-interpolation-filters="sRGB">
<feFlood flood-opacity="0" result="BackgroundImageFix" />
<feColorMatrix in="SourceAlpha" type="matrix" values="0 0 0 0 0 0 0 0 0 0 0 0 0 0 0 0 0 0 127 0" result="hardAlpha" />
<feOffset dx="3" dy="-3" />
<feGaussianBlur stdDeviation="6" />
<feComposite in2="hardAlpha" operator="out" />
<feColorMatrix type="matrix" values="0 0 0 0 0 0 0 0 0 0 0 0 0 0 0 0 0 0 0.16 0" />
<feBlend mode="normal" in2="BackgroundImageFix" result="effect1_dropShadow_949_3661" />
<feBlend mode="normal" in="SourceGraphic" in2="effect1_dropShadow_949_3661" result="shape" />
</filter>
<filter id="filter1_d_949_3661" x="7.87207" y="-42.6787" width="875.413" height="681.209" filterUnits="userSpaceOnUse" color-interpolation-filters="sRGB">
<feFlood flood-opacity="0" result="BackgroundImageFix" />
<feColorMatrix in="SourceAlpha" type="matrix" values="0 0 0 0 0 0 0 0 0 0 0 0 0 0 0 0 0 0 127 0" result="hardAlpha" />
<feOffset dx="3" dy="-3" />
<feGaussianBlur stdDeviation="6" />
<feComposite in2="hardAlpha" operator="out" />
<feColorMatrix type="matrix" values="0 0 0 0 0 0 0 0 0 0 0 0 0 0 0 0 0 0 0.16 0" />
<feBlend mode="normal" in2="BackgroundImageFix" result="effect1_dropShadow_949_3661" />
<feBlend mode="normal" in="SourceGraphic" in2="effect1_dropShadow_949_3661" result="shape" />
</filter>
<filter id="filter2_d_949_3661" x="-57.7946" y="47.8295" width="846.052" height="640.372" filterUnits="userSpaceOnUse" color-interpolation-filters="sRGB">
<feFlood flood-opacity="0" result="BackgroundImageFix" />
<feColorMatrix in="SourceAlpha" type="matrix" values="0 0 0 0 0 0 0 0 0 0 0 0 0 0 0 0 0 0 127 0" result="hardAlpha" />
<feOffset dx="3" dy="-3" />
<feGaussianBlur stdDeviation="6" />
<feComposite in2="hardAlpha" operator="out" />
<feColorMatrix type="matrix" values="0 0 0 0 0 0 0 0 0 0 0 0 0 0 0 0 0 0 0.16 0" />
<feBlend mode="normal" in2="BackgroundImageFix" result="effect1_dropShadow_949_3661" />
<feBlend mode="normal" in="SourceGraphic" in2="effect1_dropShadow_949_3661" result="shape" />
</filter>
<filter id="filter3_d_949_3661" x="73.2849" y="-11.8436" width="872.445" height="677.014" filterUnits="userSpaceOnUse" color-interpolation-filters="sRGB">
<feFlood flood-opacity="0" result="BackgroundImageFix" />
<feColorMatrix in="SourceAlpha" type="matrix" values="0 0 0 0 0 0 0 0 0 0 0 0 0 0 0 0 0 0 127 0" result="hardAlpha" />
<feOffset dx="3" dy="-3" />
<feGaussianBlur stdDeviation="6" />
<feComposite in2="hardAlpha" operator="out" />
<feColorMatrix type="matrix" values="0 0 0 0 0 0 0 0 0 0 0 0 0 0 0 0 0 0 0.16 0" />
<feBlend mode="normal" in2="BackgroundImageFix" result="effect1_dropShadow_949_3661" />
<feBlend mode="normal" in="SourceGraphic" in2="effect1_dropShadow_949_3661" result="shape" />
</filter>
<linearGradient id="paint0_linear_949_3661" x1="103.702" y1="-80.6394" x2="444.039" y2="710.083" gradientUnits="userSpaceOnUse">
<stop stop-color="#FFDB4A" />
<stop offset="1" stop-color="#C2A327" />
</linearGradient>
<linearGradient id="paint1_linear_949_3661" x1="0.435873" y1="354.865" x2="887.436" y2="355.254" gradientUnits="userSpaceOnUse">
<stop stop-color="#FFD500" />
<stop offset="1" stop-color="#FFE14E" />
</linearGradient>
<linearGradient id="paint2_linear_949_3661" x1="872.369" y1="710.291" x2="79.4887" y2="120.959" gradientUnits="userSpaceOnUse">
<stop stop-color="#FFE682" />
<stop offset="1" stop-color="#FFDB4A" />
</linearGradient>
<linearGradient id="paint3_linear_949_3661" x1="-39.8488" y1="404.337" x2="887.134" y2="404.743" gradientUnits="userSpaceOnUse">
<stop stop-color="#FFD500" />
<stop offset="1" stop-color="#FFE14E" />
</linearGradient>
</defs>
</svg>