<?xml version='1.0' encoding='UTF-8'?>
<svg xmlns="http://www.w3.org/2000/svg" width="894" height="711" viewBox="0 0 894 711" fill="none">
<g id="FolderDefault">
<g id="case-paper-white" filter="url(#filter0_d_942_4878)">
<rect x="60.4213" y="42.3213" width="810" height="600" rx="3" transform="rotate(4.1623 60.4213 42.3213)" fill="#FDFEFF" shape-rendering="crispEdges" />
<path id="Subtract" d="M856.291 100.586C862.901 101.07 867.867 106.821 867.383 113.431L825.347 687.543C824.863 694.153 819.113 699.119 812.503 698.635L28.8656 641.265C22.2559 640.781 17.2899 635.03 17.7738 628.421L59.8096 54.3084C60.2935 47.6987 66.044 42.7328 72.6537 43.2167L856.291 100.586Z" fill="#FDFEFF" />
</g>
<g id="case-paper-white_2" filter="url(#filter1_d_942_4878)">
<rect x="33.2412" y="76.4785" width="810" height="600" rx="3" transform="rotate(-0.769038 33.2412 76.4785)" fill="#FDFEFF" shape-rendering="crispEdges" />
<path id="Subtract_2" d="M831.174 66.1135C837.801 66.0274 843.243 71.3299 843.329 77.9568L850.8 653.557C850.886 660.184 845.584 665.626 838.957 665.712L53.2887 675.918C46.6618 676.004 41.2199 670.701 41.1338 664.074L33.6622 88.4738C33.5762 81.847 38.8785 76.4052 45.5053 76.3191L831.174 66.1135Z" fill="#FDFEFF" />
</g>
<g id="case-paper-white_3" filter="url(#filter2_d_942_4878)">
<rect x="42.2849" y="77.5234" width="810" height="600" rx="3" transform="rotate(-3.84858 42.2849 77.5234)" fill="#FDFEFF" shape-rendering="crispEdges" />
<path id="Subtract_3" d="M838.508 24.3067C845.121 23.8647 850.84 28.8671 851.282 35.4799L889.665 609.848C890.107 616.461 885.105 622.179 878.492 622.621L94.5066 675.02C87.8939 675.462 82.175 670.46 81.7331 663.847L43.3497 89.4788C42.9078 82.8662 47.9102 77.1474 54.5228 76.7054L838.508 24.3067Z" fill="#FDFEFF" />
</g>
<path id="Subtract_4" d="M280.522 59.6227L877.157 59.884C882.474 59.8863 886.783 64.199 886.78 69.5161L886.504 699.953C886.502 705.27 882.189 709.578 876.872 709.575L10.1281 709.196C4.8111 709.193 0.502232 704.882 0.504428 699.565L0.75461 128.204C0.757185 122.887 5.06979 118.579 10.3868 118.582L248.338 118.686C253.083 118.688 257.254 115.544 258.56 110.982L271.261 66.6011C272.444 62.4686 276.224 59.6208 280.522 59.6227Z" fill="url(#paint0_linear_942_4878)" stroke="url(#paint1_linear_942_4878)" />
</g>
<defs>
<filter id="filter0_d_942_4878" x="7.87207" y="27.3213" width="875.413" height="681.209" filterUnits="userSpaceOnUse" color-interpolation-filters="sRGB">
<feFlood flood-opacity="0" result="BackgroundImageFix" />
<feColorMatrix in="SourceAlpha" type="matrix" values="0 0 0 0 0 0 0 0 0 0 0 0 0 0 0 0 0 0 127 0" result="hardAlpha" />
<feOffset dx="3" dy="-3" />
<feGaussianBlur stdDeviation="6" />
<feComposite in2="hardAlpha" operator="out" />
<feColorMatrix type="matrix" values="0 0 0 0 0 0 0 0 0 0 0 0 0 0 0 0 0 0 0.16 0" />
<feBlend mode="normal" in2="BackgroundImageFix" result="effect1_dropShadow_942_4878" />
<feBlend mode="normal" in="SourceGraphic" in2="effect1_dropShadow_942_4878" result="shape" />
</filter>
<filter id="filter1_d_942_4878" x="24.2412" y="50.6068" width="841.98" height="634.818" filterUnits="userSpaceOnUse" color-interpolation-filters="sRGB">
<feFlood flood-opacity="0" result="BackgroundImageFix" />
<feColorMatrix in="SourceAlpha" type="matrix" values="0 0 0 0 0 0 0 0 0 0 0 0 0 0 0 0 0 0 127 0" result="hardAlpha" />
<feOffset dx="3" dy="-3" />
<feGaussianBlur stdDeviation="6" />
<feComposite in2="hardAlpha" operator="out" />
<feColorMatrix type="matrix" values="0 0 0 0 0 0 0 0 0 0 0 0 0 0 0 0 0 0 0.16 0" />
<feBlend mode="normal" in2="BackgroundImageFix" result="effect1_dropShadow_942_4878" />
<feBlend mode="normal" in="SourceGraphic" in2="effect1_dropShadow_942_4878" result="shape" />
</filter>
<filter id="filter2_d_942_4878" x="33.2849" y="8.15637" width="872.445" height="677.014" filterUnits="userSpaceOnUse" color-interpolation-filters="sRGB">
<feFlood flood-opacity="0" result="BackgroundImageFix" />
<feColorMatrix in="SourceAlpha" type="matrix" values="0 0 0 0 0 0 0 0 0 0 0 0 0 0 0 0 0 0 127 0" result="hardAlpha" />
<feOffset dx="3" dy="-3" />
<feGaussianBlur stdDeviation="6" />
<feComposite in2="hardAlpha" operator="out" />
<feColorMatrix type="matrix" values="0 0 0 0 0 0 0 0 0 0 0 0 0 0 0 0 0 0 0.16 0" />
<feBlend mode="normal" in2="BackgroundImageFix" result="effect1_dropShadow_942_4878" />
<feBlend mode="normal" in="SourceGraphic" in2="effect1_dropShadow_942_4878" result="shape" />
</filter>
<linearGradient id="paint0_linear_942_4878" x1="873" y1="710.306" x2="58.2379" y2="166.449" gradientUnits="userSpaceOnUse">
<stop stop-color="#FFE682" />
<stop offset="1" stop-color="#FFDB4A" />
</linearGradient>
<linearGradient id="paint1_linear_942_4878" x1="0.142453" y1="384.346" x2="887.142" y2="384.734" gradientUnits="userSpaceOnUse">
<stop stop-color="#FFD500" />
<stop offset="1" stop-color="#FFE14E" />
</linearGradient>
</defs>
</svg>