<svg width="1729" height="552" viewBox="0 0 1729 552" fill="none" xmlns="http://www.w3.org/2000/svg" xmlns:xlink="http://www.w3.org/1999/xlink">
<g clip-path="url(#clip0_2189_11995)">
<mask id="path-1-inside-1_2189_11995" fill="white">
<path d="M0 0H1729V552H0V0Z"/>
</mask>
<path d="M0 0H1729V552H0V0Z" fill="#FDFEFF"/>
<path d="M0 0H1729V552H0V0Z" fill="url(#pattern0_2189_11995)" fill-opacity="0.8"/>
<rect x="1326.14" y="342.058" width="140.631" height="34.8079" transform="rotate(157.089 1326.14 342.058)" fill="#FDFEFF" stroke="#2F2F2F" stroke-width="2"/>
<rect x="1468.36" y="52.1791" width="53.2119" height="71.6158" transform="rotate(157.089 1468.36 52.1791)" fill="#FDFEFF" stroke="#2F2F2F" stroke-width="2"/>
<rect x="930.13" y="279.656" width="53.2119" height="71.6158" transform="rotate(157.089 930.13 279.656)" fill="#FDFEFF" stroke="#2F2F2F" stroke-width="2"/>
<path d="M1227.45 -228.453C1270.92 -246.827 1321.25 -226.937 1339.54 -183.451C1393.73 -54.5779 1426.12 43.0565 1457.4 180.98C1466.51 221.153 1445.03 261.837 1407.06 277.884L1086.33 413.439C1048.36 429.486 1004.21 416.542 981.748 382.012C904.63 263.462 857.183 172.19 802.524 43.5137C784.225 0.432743 804.565 -49.0804 847.349 -67.7988L848.363 -68.2354L1227.45 -228.453Z" fill="#FDFEFF" stroke="#2F2F2F" stroke-width="2"/>
<path d="M1462.24 278.888C1486.72 270.654 1511.31 290.6 1510.68 316.576C1509.39 369.743 1517.38 408.931 1541.01 453.815C1550.42 471.683 1545.44 494.174 1528.18 504.386C1465.72 541.336 1412.33 568.917 1356.86 592.191L1356.85 592.194C1301.15 615.98 1243.87 635.174 1173.37 654.345C1154.02 659.607 1134.42 647.503 1128.16 628.306C1112.44 580.08 1089.9 547.04 1050.87 510.911C1031.81 493.26 1034.64 461.73 1057.6 449.91C1130.58 412.349 1192.79 382.904 1255.88 356.342L1255.88 356.341C1319.24 329.421 1384 305.203 1462.24 278.888Z" fill="#FDFEFF" stroke="#2F2F2F" stroke-width="2"/>
<path d="M1457.95 145.269C1458.7 158.152 1471.93 166.639 1483.82 161.616L1571.69 124.477C1580.09 120.926 1584.62 111.723 1582.31 102.899C1557.93 9.71294 1539.17 -47.5158 1483.67 -131.879C1478.85 -139.212 1469.44 -142 1461.35 -138.583L1407.89 -115.988C1398.36 -111.959 1394.04 -100.855 1398.22 -91.3877C1435.55 -6.84399 1452.46 50.5306 1457.95 145.269Z" fill="#2F2F2F"/>
<path d="M954.293 358.138C963.012 367.651 959.879 383.054 947.993 388.077L860.12 425.216C851.718 428.767 841.961 425.604 837.241 417.798C787.401 335.373 759.43 282.038 737.604 183.442C735.707 174.872 740.266 166.179 748.351 162.762L801.812 140.167C811.344 136.138 822.317 140.78 826.194 150.376C860.815 236.062 890.174 288.178 954.293 358.138Z" fill="#2F2F2F"/>
</g>
<path d="M0 0V24H1729V0V-24H0V0Z" fill="#2F2F2F" mask="url(#path-1-inside-1_2189_11995)"/>
<defs>
<clipPath id="clip0_2189_11995">
<path d="M0 0H1729V552H0V0Z" fill="white"/>
</clipPath>
<pattern id="pattern0_2189_11995" patternUnits="userSpaceOnUse" patternTransform="matrix(3.66 0 0 3.66 0 0)" preserveAspectRatio="none" viewBox="0 0 366 366" width="1" height="1">
<g id="pattern0_2189_11995_inner">
<circle cx="91.5" cy="91.5" r="91.5" fill="#2F2F2F"/>
</g>
</pattern></defs>
</svg>
