<svg width="170" height="170" viewBox="0 0 170 170" fill="none" xmlns="http://www.w3.org/2000/svg">
<rect width="170" height="170" rx="3" fill="#FFF8A4"/>
<path d="M13.39 18L13.39 13.992L14.524 13.992C14.816 13.992 15.086 14.026 15.334 14.094C15.582 14.158 15.798 14.268 15.982 14.424C16.17 14.58 16.316 14.786 16.42 15.042C16.524 15.298 16.576 15.616 16.576 15.996C16.576 16.372 16.524 16.69 16.42 16.95C16.316 17.206 16.17 17.412 15.982 17.568C15.798 17.72 15.582 17.83 15.334 17.898C15.086 17.966 14.816 18 14.524 18L13.39 18ZM14.194 17.292L14.494 17.292C14.658 17.292 14.814 17.276 14.962 17.244C15.114 17.212 15.248 17.152 15.364 17.064C15.484 16.972 15.578 16.84 15.646 16.668C15.714 16.496 15.748 16.272 15.748 15.996C15.748 15.716 15.714 15.49 15.646 15.318C15.578 15.142 15.484 15.01 15.364 14.922C15.248 14.834 15.114 14.774 14.962 14.742C14.814 14.71 14.658 14.694 14.494 14.694L14.194 14.694L14.194 17.292ZM17.463 18L18.705 13.992L19.629 13.992L20.871 18L20.061 18L19.839 17.244L18.459 17.244L18.237 18L17.463 18ZM18.645 16.542L19.647 16.542L19.161 14.88L19.137 14.88L18.645 16.542ZM23 18L23 14.76L21.854 14.76L21.854 13.992L25.022 13.992L25.022 14.76L23.876 14.76L23.876 18L23 18ZM26.407 18L26.407 13.992L29.143 13.992L29.143 14.76L27.277 14.76L27.277 15.558L28.453 15.558L28.453 16.32L27.277 16.32L27.277 17.232L29.167 17.232L29.167 18L26.407 18ZM31.9801 18.072C31.8721 18.072 31.7701 18.046 31.6741 17.994C31.5821 17.938 31.5081 17.864 31.4521 17.772C31.4001 17.676 31.3741 17.574 31.3741 17.466C31.3741 17.35 31.4001 17.248 31.4521 17.16C31.5081 17.068 31.5821 16.994 31.6741 16.938C31.7701 16.882 31.8721 16.854 31.9801 16.854C32.0921 16.854 32.1941 16.882 32.2861 16.938C32.3781 16.994 32.4501 17.068 32.5021 17.16C32.5581 17.248 32.5861 17.35 32.5861 17.466C32.5861 17.574 32.5581 17.676 32.5021 17.772C32.4501 17.864 32.3781 17.938 32.2861 17.994C32.1941 18.046 32.0921 18.072 31.9801 18.072ZM31.9801 16.074C31.8721 16.074 31.7701 16.048 31.6741 15.996C31.5821 15.94 31.5081 15.866 31.4521 15.774C31.4001 15.678 31.3741 15.576 31.3741 15.468C31.3741 15.352 31.4001 15.25 31.4521 15.162C31.5081 15.07 31.5821 14.996 31.6741 14.94C31.7701 14.884 31.8721 14.856 31.9801 14.856C32.0921 14.856 32.1941 14.884 32.2861 14.94C32.3781 14.996 32.4501 15.07 32.5021 15.162C32.5581 15.25 32.5861 15.352 32.5861 15.468C32.5861 15.576 32.5581 15.678 32.5021 15.774C32.4501 15.866 32.3781 15.94 32.2861 15.996C32.1941 16.048 32.0921 16.074 31.9801 16.074Z" fill="#0051E7"/>
<path d="M96.228 18L96.228 13.992L97.308 13.992L97.902 16.908L97.926 16.908L98.52 13.992L99.564 13.992L99.564 18L98.904 18L98.904 14.85L98.88 14.85L98.22 18L97.56 18L96.9 14.85L96.876 14.85L96.876 18L96.228 18ZM101.759 18.972L101.759 12.972L102.575 12.972L102.575 18.972L101.759 18.972ZM106 18L106 14.76L104.854 14.76L104.854 13.992L108.022 13.992L108.022 14.76L106.876 14.76L106.876 18L106 18ZM110.301 18.972L110.301 12.972L111.117 12.972L111.117 18.972L110.301 18.972ZM113.786 18L113.132 13.992L113.81 13.992L114.17 16.914L114.194 16.914L114.602 13.992L115.358 13.992L115.778 16.914L115.802 16.914L116.15 13.992L116.828 13.992L116.18 18L115.4 18L114.992 15.066L114.968 15.066L114.566 18L113.786 18ZM118.843 18.972L118.843 12.972L119.659 12.972L119.659 18.972L118.843 18.972ZM123.084 18L123.084 14.76L121.938 14.76L121.938 13.992L125.106 13.992L125.106 14.76L123.96 14.76L123.96 18L123.084 18ZM126.221 18L126.221 13.992L127.091 13.992L127.091 15.558L128.495 15.558L128.495 13.992L129.365 13.992L129.365 18L128.495 18L128.495 16.32L127.091 16.32L127.091 18L126.221 18ZM131.656 18.972L131.656 12.972L132.472 12.972L132.472 18.972L131.656 18.972ZM135.057 18L135.057 13.992L137.793 13.992L137.793 14.76L135.927 14.76L135.927 15.72L137.769 15.72L137.769 16.488L135.927 16.488L135.927 18L135.057 18ZM140.198 18.972L140.198 12.972L141.014 12.972L141.014 18.972L140.198 18.972ZM144.895 18.072C144.639 18.072 144.401 18.034 144.181 17.958C143.965 17.878 143.777 17.764 143.617 17.616C143.457 17.464 143.337 17.282 143.257 17.07L144.055 16.782C144.091 16.902 144.151 17.008 144.235 17.1C144.319 17.188 144.419 17.256 144.535 17.304C144.655 17.348 144.781 17.37 144.913 17.37C145.029 17.37 145.139 17.352 145.243 17.316C145.351 17.28 145.439 17.224 145.507 17.148C145.579 17.068 145.615 16.972 145.615 16.86C145.615 16.72 145.559 16.612 145.447 16.536C145.335 16.456 145.153 16.39 144.901 16.338L144.529 16.26C144.297 16.212 144.091 16.142 143.911 16.05C143.735 15.954 143.597 15.83 143.497 15.678C143.401 15.522 143.353 15.334 143.353 15.114C143.353 14.874 143.425 14.664 143.569 14.484C143.717 14.304 143.909 14.166 144.145 14.07C144.381 13.97 144.641 13.92 144.925 13.92C145.121 13.92 145.313 13.95 145.501 14.01C145.693 14.066 145.867 14.156 146.023 14.28C146.179 14.404 146.299 14.566 146.383 14.766L145.591 15.06C145.551 14.964 145.493 14.884 145.417 14.82C145.345 14.756 145.261 14.708 145.165 14.676C145.073 14.64 144.973 14.622 144.865 14.622C144.745 14.622 144.637 14.64 144.541 14.676C144.445 14.712 144.369 14.764 144.313 14.832C144.257 14.896 144.229 14.978 144.229 15.078C144.229 15.186 144.271 15.276 144.355 15.348C144.443 15.42 144.563 15.472 144.715 15.504L145.147 15.6C145.411 15.652 145.643 15.724 145.843 15.816C146.043 15.908 146.199 16.028 146.311 16.176C146.427 16.324 146.485 16.518 146.485 16.758C146.485 17.026 146.411 17.258 146.263 17.454C146.119 17.65 145.925 17.802 145.681 17.91C145.441 18.018 145.179 18.072 144.895 18.072ZM148.74 18.972L148.74 12.972L149.556 12.972L149.556 18.972L148.74 18.972ZM153.437 18.072C153.181 18.072 152.943 18.034 152.723 17.958C152.507 17.878 152.319 17.764 152.159 17.616C151.999 17.464 151.879 17.282 151.799 17.07L152.597 16.782C152.633 16.902 152.693 17.008 152.777 17.1C152.861 17.188 152.961 17.256 153.077 17.304C153.197 17.348 153.323 17.37 153.455 17.37C153.571 17.37 153.681 17.352 153.785 17.316C153.893 17.28 153.981 17.224 154.049 17.148C154.121 17.068 154.157 16.972 154.157 16.86C154.157 16.72 154.101 16.612 153.989 16.536C153.877 16.456 153.695 16.39 153.443 16.338L153.071 16.26C152.839 16.212 152.633 16.142 152.453 16.05C152.277 15.954 152.139 15.83 152.039 15.678C151.943 15.522 151.895 15.334 151.895 15.114C151.895 14.874 151.967 14.664 152.111 14.484C152.259 14.304 152.451 14.166 152.687 14.07C152.923 13.97 153.183 13.92 153.467 13.92C153.663 13.92 153.855 13.95 154.043 14.01C154.235 14.066 154.409 14.156 154.565 14.28C154.721 14.404 154.841 14.566 154.925 14.766L154.133 15.06C154.093 14.964 154.035 14.884 153.959 14.82C153.887 14.756 153.803 14.708 153.707 14.676C153.615 14.64 153.515 14.622 153.407 14.622C153.287 14.622 153.179 14.64 153.083 14.676C152.987 14.712 152.911 14.764 152.855 14.832C152.799 14.896 152.771 14.978 152.771 15.078C152.771 15.186 152.813 15.276 152.897 15.348C152.985 15.42 153.105 15.472 153.257 15.504L153.689 15.6C153.953 15.652 154.185 15.724 154.385 15.816C154.585 15.908 154.741 16.028 154.853 16.176C154.969 16.324 155.027 16.518 155.027 16.758C155.027 17.026 154.953 17.258 154.805 17.454C154.661 17.65 154.467 17.802 154.223 17.91C153.983 18.018 153.721 18.072 153.437 18.072Z" fill="#0051E7"/>
<path d="M13.396 128L13.396 123.992L14.194 123.992L14.194 125.702L15.646 123.992L16.588 123.992L15.148 125.684L16.678 128L15.718 128L14.614 126.32L14.194 126.8L14.194 128L13.396 128ZM17.865 128L17.865 123.992L20.601 123.992L20.601 124.76L18.735 124.76L18.735 125.558L19.911 125.558L19.911 126.32L18.735 126.32L18.735 127.232L20.625 127.232L20.625 128L17.865 128ZM23.036 128L23.036 126.422L21.62 123.992L22.556 123.992L23.432 125.588L23.456 125.588L24.332 123.992L25.256 123.992L23.84 126.422L23.84 128L23.036 128ZM27.709 128.072C27.601 128.072 27.499 128.046 27.403 127.994C27.311 127.938 27.237 127.864 27.181 127.772C27.129 127.676 27.103 127.574 27.103 127.466C27.103 127.35 27.129 127.248 27.181 127.16C27.237 127.068 27.311 126.994 27.403 126.938C27.499 126.882 27.601 126.854 27.709 126.854C27.821 126.854 27.923 126.882 28.015 126.938C28.107 126.994 28.179 127.068 28.231 127.16C28.287 127.248 28.315 127.35 28.315 127.466C28.315 127.574 28.287 127.676 28.231 127.772C28.179 127.864 28.107 127.938 28.015 127.994C27.923 128.046 27.821 128.072 27.709 128.072ZM27.709 126.074C27.601 126.074 27.499 126.048 27.403 125.996C27.311 125.94 27.237 125.866 27.181 125.774C27.129 125.678 27.103 125.576 27.103 125.468C27.103 125.352 27.129 125.25 27.181 125.162C27.237 125.07 27.311 124.996 27.403 124.94C27.499 124.884 27.601 124.856 27.709 124.856C27.821 124.856 27.923 124.884 28.015 124.94C28.107 124.996 28.179 125.07 28.231 125.162C28.287 125.25 28.315 125.352 28.315 125.468C28.315 125.576 28.287 125.678 28.231 125.774C28.179 125.866 28.107 125.94 28.015 125.996C27.923 126.048 27.821 126.074 27.709 126.074Z" fill="#0051E7"/>
</svg>
