<svg xmlns="http://www.w3.org/2000/svg" viewBox="52 191 1848 1251" font-family="'DM Sans', 'Helvetica Neue', Arial, sans-serif"><defs><marker id="mkt" viewBox="0 0 10 10" refX="8" refY="5" markerWidth="6" markerHeight="6" orient="auto-start-reverse"></marker></defs><rect x="90" y="214" width="380" height="786" rx="14" fill="#ECEAE2" opacity="0.42"/><text x="106" y="218" font-family="'Roboto Slab', Georgia, serif" font-size="10.5" font-weight="700" fill="#A9AFB5" text-anchor="start" letter-spacing="2.2" opacity="1"><tspan x="106" dy="0">WHY IT EXISTS</tspan></text><path d="M 106 230 L 454 230" stroke="#C3C8CD" stroke-width="1" opacity="0.9" fill="none"/><text x="516" y="218" font-family="'Roboto Slab', Georgia, serif" font-size="10.5" font-weight="700" fill="#A9AFB5" text-anchor="start" letter-spacing="2.2" opacity="1"><tspan x="516" dy="0">WHO MAKES IT</tspan></text><path d="M 516 230 L 914 230" stroke="#C3C8CD" stroke-width="1" opacity="0.9" fill="none"/><rect x="960" y="214" width="180" height="786" rx="14" fill="#ECEAE2" opacity="0.42"/><text x="976" y="218" font-family="'Roboto Slab', Georgia, serif" font-size="10.5" font-weight="700" fill="#A9AFB5" text-anchor="start" letter-spacing="2.2" opacity="1"><tspan x="976" dy="0">MOMENTS OF TRUTH</tspan></text><path d="M 976 230 L 1124 230" stroke="#C3C8CD" stroke-width="1" opacity="0.9" fill="none"/><text x="1176" y="218" font-family="'Roboto Slab', Georgia, serif" font-size="10.5" font-weight="700" fill="#A9AFB5" text-anchor="start" letter-spacing="2.2" opacity="1"><tspan x="1176" dy="0">THE LAYERS</tspan></text><path d="M 1176 230 L 1284 230" stroke="#C3C8CD" stroke-width="1" opacity="0.9" fill="none"/><rect x="1330" y="214" width="500" height="786" rx="14" fill="#ECEAE2" opacity="0.42"/><text x="1346" y="218" font-family="'Roboto Slab', Georgia, serif" font-size="10.5" font-weight="700" fill="#A9AFB5" text-anchor="start" letter-spacing="2.2" opacity="1"><tspan x="1346" dy="0">WHAT IT BUYS THE CHILD</tspan></text><path d="M 1346 230 L 1814 230" stroke="#C3C8CD" stroke-width="1" opacity="0.9" fill="none"/><circle cx="178" cy="362" r="76" fill="none" stroke="#E15F54" stroke-width="1.3" opacity="0.95"/><text x="113.8" y="338" font-family="'DM Sans', 'Helvetica Neue', Arial, sans-serif" font-size="13.5" font-weight="500" fill="#2F2F2F" text-anchor="start" letter-spacing="0"><tspan font-weight="700" fill="#2F2F2F">Children meet money</tspan></text><text x="128.8" y="357" font-family="'DM Sans', 'Helvetica Neue', Arial, sans-serif" font-size="13.5" font-weight="500" fill="#2F2F2F" text-anchor="start" letter-spacing="0">as a story years</text><text x="120.7" y="376" font-family="'DM Sans', 'Helvetica Neue', Arial, sans-serif" font-size="13.5" font-weight="500" fill="#2F2F2F" text-anchor="start" letter-spacing="0">before they meet it</text><text x="154.7" y="395" font-family="'DM Sans', 'Helvetica Neue', Arial, sans-serif" font-size="13.5" font-weight="500" fill="#2F2F2F" text-anchor="start" letter-spacing="0">as a bill</text><circle cx="178" cy="712" r="76" fill="none" stroke="#E15F54" stroke-width="1.3" opacity="0.95"/><text x="142.7" y="688" font-family="'DM Sans', 'Helvetica Neue', Arial, sans-serif" font-size="13.5" font-weight="500" fill="#2F2F2F" text-anchor="start" letter-spacing="0"><tspan font-weight="700" fill="#2F2F2F">Parents get</tspan></text><text x="138.0" y="707" font-family="'DM Sans', 'Helvetica Neue', Arial, sans-serif" font-size="13.5" font-weight="500" fill="#2F2F2F" text-anchor="start" letter-spacing="0">one quarterly</text><text x="136.5" y="726" font-family="'DM Sans', 'Helvetica Neue', Arial, sans-serif" font-size="13.5" font-weight="500" fill="#2F2F2F" text-anchor="start" letter-spacing="0">ritual, not one</text><text x="140.0" y="745" font-family="'DM Sans', 'Helvetica Neue', Arial, sans-serif" font-size="13.5" font-weight="500" fill="#2F2F2F" text-anchor="start" letter-spacing="0">more screen</text><rect x="104" y="512" width="148" height="34" rx="4" fill="#E15F54" opacity="0.16"/><rect x="104" y="512" width="148" height="34" rx="4" fill="none" stroke="#E15F54" stroke-width="1" opacity="1"/><text x="178" y="534" font-family="'Roboto Slab', Georgia, serif" font-size="12.5" font-weight="700" fill="#E15F54" text-anchor="middle" letter-spacing="1.8" opacity="1"><tspan x="178" dy="0">THE FAMILY</tspan></text><path d="M 178 440 L 178 502" stroke="#E15F54" stroke-width="1" opacity="0.7" fill="none"/><path d="M 178 504 l -4 -6.5 h 8 z" fill="#E15F54"/><path d="M 178 634 L 178 556" stroke="#E15F54" stroke-width="1" opacity="0.7" fill="none"/><path d="M 178 554 l -4 6.5 h 8 z" fill="#E15F54"/><path d="M 256 529 L 288 529" stroke="#E15F54" stroke-width="1" opacity="0.8" fill="none"/><path d="M 292 529 l -6.5 -4 v 8 z" fill="#E15F54"/><rect x="294" y="504" width="158" height="52" rx="4" fill="#E15F54" opacity="0.22"/><rect x="294" y="504" width="158" height="52" rx="4" fill="none" stroke="#E15F54" stroke-width="1" opacity="1"/><text x="373" y="526" font-family="'Roboto Slab', Georgia, serif" font-size="12.5" font-weight="700" fill="#E15F54" text-anchor="middle" letter-spacing="1.8" opacity="1"><tspan x="373" dy="0">A BOOK</tspan><tspan x="373" dy="18">EVERY QUARTER</tspan></text><text x="302.0" y="582" font-family="'DM Sans', 'Helvetica Neue', Arial, sans-serif" font-size="11.5" font-weight="400" fill="#7C838B" text-anchor="start" letter-spacing="0"><tspan font-weight="700" fill="#2F2F2F">$100 a year or $10 a month</tspan></text><text x="298.9" y="599" font-family="'DM Sans', 'Helvetica Neue', Arial, sans-serif" font-size="11.5" font-weight="400" fill="#7C838B" text-anchor="start" letter-spacing="0"><tspan font-weight="700" fill="#2F2F2F">Sixteen volumes, four years.</tspan></text><path d="M 452 529 C 486.5 529 486.5 334.0 521 334.0" fill="none" stroke="#C3C8CD" stroke-width="1" opacity="0.8"/><path d="M 452 529 C 486.5 529 486.5 532.0 521 532.0" fill="none" stroke="#C3C8CD" stroke-width="1" opacity="0.8"/><path d="M 452 529 C 486.5 529 486.5 706.0 521 706.0" fill="none" stroke="#C3C8CD" stroke-width="1" opacity="0.8"/><path d="M 452 529 C 486.5 529 486.5 880.0 521 880.0" fill="none" stroke="#C3C8CD" stroke-width="1" opacity="0.8"/><rect x="523.0" y="302.0" width="64" height="64" rx="11" fill="#FDFEFF" stroke="#2F2F2F" stroke-width="1.15" opacity="0.9"/><g transform="translate(537.5 316.5) scale(1.46)" opacity="0.92"><path fill="none" stroke="#2F2F2F" stroke-width="1.25" stroke-linejoin="round" stroke-linecap="round" d="M3.2 20.8 L4.9 16.2 L16.2 4.9 L19.1 7.8 L7.8 19.1 Z"/><path fill="none" stroke="#2F2F2F" stroke-width="1.25" stroke-linejoin="round" stroke-linecap="round" d="M14 7.1 L16.9 10"/></g><circle cx="582.5" cy="306.5" r="3.4" fill="#F0AF43" opacity="1"/><text x="555" y="388.0" font-family="'Roboto Slab', Georgia, serif" font-size="11.5" font-weight="700" fill="#2F2F2F" text-anchor="middle" letter-spacing="2" opacity="1"><tspan x="555" dy="0">MAKING</tspan><tspan x="555" dy="15">THE BOOK</tspan></text><path d="M 589 334.0 C 604.5 334.0 604.5 262 620 262" fill="none" stroke="#C3C8CD" stroke-width="0.9" opacity="0.85"/><circle cx="632" cy="262" r="6" fill="#F0AF43" opacity="1"/><circle cx="632" cy="262" r="1.9" fill="#FDFEFF" opacity="1"/><text x="649" y="266.5" font-family="'Roboto Slab', Georgia, serif" font-size="13" font-weight="500" fill="#2F2F2F" text-anchor="start" letter-spacing="0" opacity="1"><tspan x="649" dy="0">Author</tspan></text><text x="649" y="283" font-family="'DM Sans', 'Helvetica Neue', Arial, sans-serif" font-size="11.5" font-weight="400" fill="#7C838B" text-anchor="start" letter-spacing="0" opacity="1"><tspan x="649" dy="0">turns one money idea into one story</tspan></text><path d="M 906 262 C 962.65 262 962.65 620 1009 620" fill="none" stroke="#F0AF43" stroke-width="0.8" opacity="0.42"/><path d="M 906 262 C 962.65 262 962.65 870 1009 870" fill="none" stroke="#F0AF43" stroke-width="0.8" opacity="0.2" stroke-dasharray="2 5"/><path d="M 589 334.0 C 604.5 334.0 604.5 310 620 310" fill="none" stroke="#C3C8CD" stroke-width="0.9" opacity="0.85"/><circle cx="632" cy="310" r="6" fill="#F0AF43" opacity="1"/><circle cx="632" cy="310" r="1.9" fill="#FDFEFF" opacity="1"/><text x="649" y="314.5" font-family="'Roboto Slab', Georgia, serif" font-size="13" font-weight="500" fill="#2F2F2F" text-anchor="start" letter-spacing="0" opacity="1"><tspan x="649" dy="0">Illustrator / Designer</tspan></text><text x="649" y="331" font-family="'DM Sans', 'Helvetica Neue', Arial, sans-serif" font-size="11.5" font-weight="400" fill="#7C838B" text-anchor="start" letter-spacing="0" opacity="1"><tspan x="649" dy="0">draws it, then folds it into paper</tspan></text><path d="M 906 310 C 962.65 310 962.65 620 1009 620" fill="none" stroke="#F0AF43" stroke-width="0.8" opacity="0.42"/><path d="M 906 310 C 962.65 310 962.65 870 1009 870" fill="none" stroke="#F0AF43" stroke-width="0.8" opacity="0.2" stroke-dasharray="2 5"/><path d="M 589 334.0 C 604.5 334.0 604.5 358 620 358" fill="none" stroke="#C3C8CD" stroke-width="0.9" opacity="0.85"/><circle cx="632" cy="358" r="6" fill="#F0AF43" opacity="1"/><circle cx="632" cy="358" r="1.9" fill="#FDFEFF" opacity="1"/><text x="649" y="362.5" font-family="'Roboto Slab', Georgia, serif" font-size="13" font-weight="500" fill="#2F2F2F" text-anchor="start" letter-spacing="0" opacity="1"><tspan x="649" dy="0">Financial advisor</tspan></text><text x="649" y="379" font-family="'DM Sans', 'Helvetica Neue', Arial, sans-serif" font-size="11.5" font-weight="400" fill="#7C838B" text-anchor="start" letter-spacing="0" opacity="1"><tspan x="649" dy="0">checks the lesson is true before it prints</tspan></text><path d="M 906 358 C 962.65 358 962.65 620 1009 620" fill="none" stroke="#F0AF43" stroke-width="0.8" opacity="0.42"/><path d="M 906 358 C 962.65 358 962.65 870 1009 870" fill="none" stroke="#F0AF43" stroke-width="0.8" opacity="0.2" stroke-dasharray="2 5"/><path d="M 589 334.0 C 604.5 334.0 604.5 406 620 406" fill="none" stroke="#C3C8CD" stroke-width="0.9" opacity="0.85"/><circle cx="632" cy="406" r="6" fill="#F0AF43" opacity="1"/><circle cx="632" cy="406" r="1.9" fill="#FDFEFF" opacity="1"/><text x="649" y="410.5" font-family="'Roboto Slab', Georgia, serif" font-size="13" font-weight="500" fill="#2F2F2F" text-anchor="start" letter-spacing="0" opacity="1"><tspan x="649" dy="0">Editor</tspan></text><text x="649" y="427" font-family="'DM Sans', 'Helvetica Neue', Arial, sans-serif" font-size="11.5" font-weight="400" fill="#7C838B" text-anchor="start" letter-spacing="0" opacity="1"><tspan x="649" dy="0">last read, then it goes to press</tspan></text><path d="M 906 406 C 962.65 406 962.65 620 1009 620" fill="none" stroke="#F0AF43" stroke-width="0.8" opacity="0.42"/><path d="M 906 406 C 962.65 406 962.65 870 1009 870" fill="none" stroke="#F0AF43" stroke-width="0.8" opacity="0.2" stroke-dasharray="2 5"/><rect x="523.0" y="500.0" width="64" height="64" rx="11" fill="#FDFEFF" stroke="#2F2F2F" stroke-width="1.15" opacity="0.9"/><g transform="translate(537.5 514.5) scale(1.46)" opacity="0.92"><path fill="none" stroke="#2F2F2F" stroke-width="1.25" stroke-linejoin="round" stroke-linecap="round" d="M6.6 9.4 V3.4 H17.4 V9.4"/><path fill="none" stroke="#2F2F2F" stroke-width="1.25" stroke-linejoin="round" stroke-linecap="round" d="M6.6 18.6 H4.2 A1.7 1.7 0 0 1 2.5 16.9 V11.1 A1.7 1.7 0 0 1 4.2 9.4 H19.8 A1.7 1.7 0 0 1 21.5 11.1 V16.9 A1.7 1.7 0 0 1 19.8 18.6 H17.4"/><path fill="none" stroke="#2F2F2F" stroke-width="1.25" stroke-linejoin="round" stroke-linecap="round" d="M6.6 14.4 H17.4 V21 H6.6 Z"/></g><circle cx="582.5" cy="504.5" r="3.4" fill="#F0AF43" opacity="1"/><text x="555" y="586.0" font-family="'Roboto Slab', Georgia, serif" font-size="11.5" font-weight="700" fill="#2F2F2F" text-anchor="middle" letter-spacing="2" opacity="1"><tspan x="555" dy="0">PRINTING</tspan><tspan x="555" dy="15">&amp; BINDING</tspan></text><path d="M 589 532.0 C 604.5 532.0 604.5 484 620 484" fill="none" stroke="#C3C8CD" stroke-width="0.9" opacity="0.85"/><circle cx="632" cy="484" r="6" fill="#F0AF43" opacity="1"/><circle cx="632" cy="484" r="1.9" fill="#FDFEFF" opacity="1"/><text x="649" y="488.5" font-family="'Roboto Slab', Georgia, serif" font-size="13" font-weight="500" fill="#2F2F2F" text-anchor="start" letter-spacing="0" opacity="1"><tspan x="649" dy="0">Publisher</tspan></text><text x="649" y="505" font-family="'DM Sans', 'Helvetica Neue', Arial, sans-serif" font-size="11.5" font-weight="400" fill="#7C838B" text-anchor="start" letter-spacing="0" opacity="1"><tspan x="649" dy="0">commissions the volume, holds the date</tspan></text><path d="M 906 484 C 962.65 484 962.65 620 1009 620" fill="none" stroke="#F0AF43" stroke-width="0.8" opacity="0.42"/><path d="M 589 532.0 C 604.5 532.0 604.5 532 620 532" fill="none" stroke="#C3C8CD" stroke-width="0.9" opacity="0.85"/><circle cx="632" cy="532" r="6" fill="#F0AF43" opacity="1"/><circle cx="632" cy="532" r="1.9" fill="#FDFEFF" opacity="1"/><text x="649" y="536.5" font-family="'Roboto Slab', Georgia, serif" font-size="13" font-weight="500" fill="#2F2F2F" text-anchor="start" letter-spacing="0" opacity="1"><tspan x="649" dy="0">Paper engineer</tspan></text><text x="649" y="553" font-family="'DM Sans', 'Helvetica Neue', Arial, sans-serif" font-size="11.5" font-weight="400" fill="#7C838B" text-anchor="start" letter-spacing="0" opacity="1"><tspan x="649" dy="0">makes a pop-up a six-year-old can't break</tspan></text><path d="M 906 532 C 962.65 532 962.65 620 1009 620" fill="none" stroke="#F0AF43" stroke-width="0.8" opacity="0.42"/><path d="M 589 532.0 C 604.5 532.0 604.5 580 620 580" fill="none" stroke="#C3C8CD" stroke-width="0.9" opacity="0.85"/><circle cx="632" cy="580" r="6" fill="#F0AF43" opacity="1"/><circle cx="632" cy="580" r="1.9" fill="#FDFEFF" opacity="1"/><text x="649" y="584.5" font-family="'Roboto Slab', Georgia, serif" font-size="13" font-weight="500" fill="#2F2F2F" text-anchor="start" letter-spacing="0" opacity="1"><tspan x="649" dy="0">Proof round</tspan></text><text x="649" y="601" font-family="'DM Sans', 'Helvetica Neue', Arial, sans-serif" font-size="11.5" font-weight="400" fill="#7C838B" text-anchor="start" letter-spacing="0" opacity="1"><tspan x="649" dy="0">one copy is opened by hand before the run</tspan></text><path d="M 906 580 C 962.65 580 962.65 620 1009 620" fill="none" stroke="#F0AF43" stroke-width="0.8" opacity="0.42"/><rect x="523.0" y="674.0" width="64" height="64" rx="11" fill="#FDFEFF" stroke="#2F2F2F" stroke-width="1.15" opacity="0.9"/><g transform="translate(537.5 688.5) scale(1.46)" opacity="0.92"><path fill="none" stroke="#2F2F2F" stroke-width="1.25" stroke-linejoin="round" stroke-linecap="round" d="M2.4 7 H13.6 V16.2 H2.4 Z"/><path fill="none" stroke="#2F2F2F" stroke-width="1.25" stroke-linejoin="round" stroke-linecap="round" d="M13.6 10 H17.4 L21.4 13.4 V16.2 H13.6 Z"/><path fill="none" stroke="#2F2F2F" stroke-width="1.25" stroke-linejoin="round" stroke-linecap="round" d="M8.5 18.2 H15.3"/></g><circle cx="582.5" cy="678.5" r="3.4" fill="#71A351" opacity="1"/><text x="555" y="760.0" font-family="'Roboto Slab', Georgia, serif" font-size="11.5" font-weight="700" fill="#2F2F2F" text-anchor="middle" letter-spacing="2" opacity="1"><tspan x="555" dy="0">GETTING</tspan><tspan x="555" dy="15">IT THERE</tspan></text><path d="M 589 706.0 C 604.5 706.0 604.5 658 620 658" fill="none" stroke="#C3C8CD" stroke-width="0.9" opacity="0.85"/><circle cx="632" cy="658" r="6" fill="#71A351" opacity="1"/><circle cx="632" cy="658" r="1.9" fill="#FDFEFF" opacity="1"/><text x="649" y="662.5" font-family="'Roboto Slab', Georgia, serif" font-size="13" font-weight="500" fill="#2F2F2F" text-anchor="start" letter-spacing="0" opacity="1"><tspan x="649" dy="0">Logistics partner</tspan></text><text x="649" y="679" font-family="'DM Sans', 'Helvetica Neue', Arial, sans-serif" font-size="11.5" font-weight="400" fill="#7C838B" text-anchor="start" letter-spacing="0" opacity="1"><tspan x="649" dy="0">moves the quarter's run in one wave</tspan></text><path d="M 906 658 C 962.65 658 962.65 370 1009 370" fill="none" stroke="#71A351" stroke-width="0.8" opacity="0.42"/><path d="M 589 706.0 C 604.5 706.0 604.5 706 620 706" fill="none" stroke="#C3C8CD" stroke-width="0.9" opacity="0.85"/><circle cx="632" cy="706" r="6" fill="#71A351" opacity="1"/><circle cx="632" cy="706" r="1.9" fill="#FDFEFF" opacity="1"/><text x="649" y="710.5" font-family="'Roboto Slab', Georgia, serif" font-size="13" font-weight="500" fill="#2F2F2F" text-anchor="start" letter-spacing="0" opacity="1"><tspan x="649" dy="0">Libraries &amp; schools</tspan></text><text x="649" y="727" font-family="'DM Sans', 'Helvetica Neue', Arial, sans-serif" font-size="11.5" font-weight="400" fill="#7C838B" text-anchor="start" letter-spacing="0" opacity="1"><tspan x="649" dy="0">class sets and shelf copies</tspan></text><path d="M 906 706 C 962.65 706 962.65 370 1009 370" fill="none" stroke="#71A351" stroke-width="0.8" opacity="0.42"/><path d="M 589 706.0 C 604.5 706.0 604.5 754 620 754" fill="none" stroke="#C3C8CD" stroke-width="0.9" opacity="0.85"/><circle cx="632" cy="754" r="6" fill="#71A351" opacity="1"/><circle cx="632" cy="754" r="1.9" fill="#FDFEFF" opacity="1"/><text x="649" y="758.5" font-family="'Roboto Slab', Georgia, serif" font-size="13" font-weight="500" fill="#2F2F2F" text-anchor="start" letter-spacing="0" opacity="1"><tspan x="649" dy="0">The doorstep</tspan></text><text x="649" y="775" font-family="'DM Sans', 'Helvetica Neue', Arial, sans-serif" font-size="11.5" font-weight="400" fill="#7C838B" text-anchor="start" letter-spacing="0" opacity="1"><tspan x="649" dy="0">lands before the school term does</tspan></text><path d="M 906 754 C 962.65 754 962.65 370 1009 370" fill="none" stroke="#71A351" stroke-width="0.8" opacity="0.42"/><rect x="523.0" y="848.0" width="64" height="64" rx="11" fill="#FDFEFF" stroke="#2F2F2F" stroke-width="1.15" opacity="0.9"/><g transform="translate(537.5 862.5) scale(1.46)" opacity="0.92"><path fill="none" stroke="#2F2F2F" stroke-width="1.25" stroke-linejoin="round" stroke-linecap="round" d="M2.4 7.4 H21.6 V16.2 H2.4 Z"/><path fill="none" stroke="#2F2F2F" stroke-width="1.25" stroke-linejoin="round" stroke-linecap="round" d="M8.4 20.4 H15.6 M12 16.2 V20.4"/><path fill="none" stroke="#2F2F2F" stroke-width="1.25" stroke-linejoin="round" stroke-linecap="round" d="M6.4 11 H10.4 M8.4 9 V13"/></g><circle cx="582.5" cy="852.5" r="3.4" fill="#1CAEA9" opacity="1"/><text x="555" y="934.0" font-family="'Roboto Slab', Georgia, serif" font-size="11.5" font-weight="700" fill="#2F2F2F" text-anchor="middle" letter-spacing="2" opacity="1"><tspan x="555" dy="0">THE</tspan><tspan x="555" dy="15">WEBSITE</tspan></text><path d="M 589 880.0 C 604.5 880.0 604.5 832 620 832" fill="none" stroke="#C3C8CD" stroke-width="0.9" opacity="0.85"/><circle cx="632" cy="832" r="6" fill="#1CAEA9" opacity="1"/><circle cx="632" cy="832" r="1.9" fill="#FDFEFF" opacity="1"/><text x="649" y="836.5" font-family="'Roboto Slab', Georgia, serif" font-size="13" font-weight="500" fill="#2F2F2F" text-anchor="start" letter-spacing="0" opacity="1"><tspan x="649" dy="0"><tspan font-weight="700" fill="#2F2F2F">Game designer</tspan></tspan></text><text x="649" y="853" font-family="'DM Sans', 'Helvetica Neue', Arial, sans-serif" font-size="11.5" font-weight="400" fill="#7C838B" text-anchor="start" letter-spacing="0" opacity="1"><tspan x="649" dy="0">rebuilds the spreads as things to replay</tspan></text><path d="M 906 832 C 962.65 832 962.65 870 1009 870" fill="none" stroke="#1CAEA9" stroke-width="0.8" opacity="0.42"/><path d="M 589 880.0 C 604.5 880.0 604.5 880 620 880" fill="none" stroke="#C3C8CD" stroke-width="0.9" opacity="0.85"/><circle cx="632" cy="880" r="6" fill="#1CAEA9" opacity="1"/><circle cx="632" cy="880" r="1.9" fill="#FDFEFF" opacity="1"/><text x="649" y="884.5" font-family="'Roboto Slab', Georgia, serif" font-size="13" font-weight="500" fill="#2F2F2F" text-anchor="start" letter-spacing="0" opacity="1"><tspan x="649" dy="0">Progress record</tspan></text><text x="649" y="901" font-family="'DM Sans', 'Helvetica Neue', Arial, sans-serif" font-size="11.5" font-weight="400" fill="#7C838B" text-anchor="start" letter-spacing="0" opacity="1"><tspan x="649" dy="0">what the child has played, book to book</tspan></text><path d="M 906 880 C 962.65 880 962.65 870 1009 870" fill="none" stroke="#1CAEA9" stroke-width="0.8" opacity="0.42"/><path d="M 589 880.0 C 604.5 880.0 604.5 928 620 928" fill="none" stroke="#C3C8CD" stroke-width="0.9" opacity="0.85"/><circle cx="632" cy="928" r="6" fill="#1CAEA9" opacity="1"/><circle cx="632" cy="928" r="1.9" fill="#FDFEFF" opacity="1"/><text x="649" y="932.5" font-family="'Roboto Slab', Georgia, serif" font-size="13" font-weight="500" fill="#2F2F2F" text-anchor="start" letter-spacing="0" opacity="1"><tspan x="649" dy="0">Parent notes</tspan></text><text x="649" y="949" font-family="'DM Sans', 'Helvetica Neue', Arial, sans-serif" font-size="11.5" font-weight="400" fill="#7C838B" text-anchor="start" letter-spacing="0" opacity="1"><tspan x="649" dy="0">what to say at the kitchen table</tspan></text><path d="M 906 928 C 962.65 928 962.65 870 1009 870" fill="none" stroke="#1CAEA9" stroke-width="0.8" opacity="0.42"/><rect x="1014.0" y="339.0" width="62" height="62" rx="11" fill="#FDFEFF" stroke="#2F2F2F" stroke-width="1.15" opacity="0.9"/><g transform="translate(1028.0 353.0) scale(1.42)" opacity="0.92"><path fill="none" stroke="#2F2F2F" stroke-width="1.25" stroke-linejoin="round" stroke-linecap="round" d="M12 2.8 L21 7.4 V16.6 L12 21.2 L3 16.6 V7.4 Z"/><path fill="none" stroke="#2F2F2F" stroke-width="1.25" stroke-linejoin="round" stroke-linecap="round" d="M3 7.4 L12 12 L21 7.4 M12 12 V21.2"/></g><circle cx="1071.5" cy="343.5" r="3.4" fill="#71A351" opacity="1"/><text x="1045" y="423" font-family="'Roboto Slab', Georgia, serif" font-size="11.5" font-weight="700" fill="#2F2F2F" text-anchor="middle" letter-spacing="2" opacity="1"><tspan x="1045" dy="0">THE ARRIVAL</tspan></text><text x="995.3" y="445" font-family="'DM Sans', 'Helvetica Neue', Arial, sans-serif" font-size="11.5" font-weight="400" fill="#7C838B" text-anchor="start" letter-spacing="0">A box on the mat is</text><text x="1006.4" y="461" font-family="'DM Sans', 'Helvetica Neue', Arial, sans-serif" font-size="11.5" font-weight="400" fill="#7C838B" text-anchor="start" letter-spacing="0"><tspan font-weight="700" fill="#2F2F2F">the only advert</tspan></text><text x="1000.5" y="477" font-family="'DM Sans', 'Helvetica Neue', Arial, sans-serif" font-size="11.5" font-weight="400" fill="#7C838B" text-anchor="start" letter-spacing="0">the service buys.</text><rect x="1014.0" y="589.0" width="62" height="62" rx="11" fill="#FDFEFF" stroke="#2F2F2F" stroke-width="1.15" opacity="0.9"/><g transform="translate(1028.0 603.0) scale(1.42)" opacity="0.92"><path fill="none" stroke="#2F2F2F" stroke-width="1.25" stroke-linejoin="round" stroke-linecap="round" d="M12 6.2 C9.8 4.2 6.4 3.6 3 4.2 V18.6 C6.4 18 9.8 18.6 12 20.6 C14.2 18.6 17.6 18 21 18.6 V4.2 C17.6 3.6 14.2 4.2 12 6.2 Z"/><path fill="none" stroke="#2F2F2F" stroke-width="1.25" stroke-linejoin="round" stroke-linecap="round" d="M12 6.2 V20.6"/></g><circle cx="1071.5" cy="593.5" r="3.4" fill="#E15F54" opacity="1"/><text x="1045" y="673" font-family="'Roboto Slab', Georgia, serif" font-size="11.5" font-weight="700" fill="#2F2F2F" text-anchor="middle" letter-spacing="2" opacity="1"><tspan x="1045" dy="0">READING</tspan><tspan x="1045" dy="15">TOGETHER</tspan></text><text x="986.2" y="710" font-family="'DM Sans', 'Helvetica Neue', Arial, sans-serif" font-size="11.5" font-weight="400" fill="#7C838B" text-anchor="start" letter-spacing="0">Twenty minutes where</text><text x="1012.1" y="726" font-family="'DM Sans', 'Helvetica Neue', Arial, sans-serif" font-size="11.5" font-weight="400" fill="#7C838B" text-anchor="start" letter-spacing="0">the lesson is</text><text x="1003.1" y="742" font-family="'DM Sans', 'Helvetica Neue', Arial, sans-serif" font-size="11.5" font-weight="400" fill="#7C838B" text-anchor="start" letter-spacing="0"><tspan font-weight="700" fill="#2F2F2F">a bedtime story.</tspan></text><rect x="1014.0" y="839.0" width="62" height="62" rx="11" fill="#FDFEFF" stroke="#2F2F2F" stroke-width="1.15" opacity="0.9"/><g transform="translate(1028.0 853.0) scale(1.42)" opacity="0.92"><path fill="none" stroke="#2F2F2F" stroke-width="1.25" stroke-linejoin="round" stroke-linecap="round" d="M8.2 8 H15.8 A6.2 6.2 0 0 1 22 14.2 A3.4 3.4 0 0 1 16.2 16.6 L15 15.4 H9 L7.8 16.6 A3.4 3.4 0 0 1 2 14.2 A6.2 6.2 0 0 1 8.2 8 Z"/><path fill="none" stroke="#2F2F2F" stroke-width="1.25" stroke-linejoin="round" stroke-linecap="round" d="M5.6 12.2 H8.6 M7.1 10.7 V13.7"/></g><circle cx="1071.5" cy="843.5" r="3.4" fill="#1CAEA9" opacity="1"/><text x="1045" y="923" font-family="'Roboto Slab', Georgia, serif" font-size="11.5" font-weight="700" fill="#2F2F2F" text-anchor="middle" letter-spacing="2" opacity="1"><tspan x="1045" dy="0">PLAYING</tspan><tspan x="1045" dy="15">IT BACK</tspan></text><text x="983.6" y="960" font-family="'DM Sans', 'Helvetica Neue', Arial, sans-serif" font-size="11.5" font-weight="400" fill="#7C838B" text-anchor="start" letter-spacing="0"><tspan font-weight="700" fill="#2F2F2F">The same lesson again,</tspan></text><text x="1018.6" y="976" font-family="'DM Sans', 'Helvetica Neue', Arial, sans-serif" font-size="11.5" font-weight="400" fill="#7C838B" text-anchor="start" letter-spacing="0">alone, and</text><text x="991.1" y="992" font-family="'DM Sans', 'Helvetica Neue', Arial, sans-serif" font-size="11.5" font-weight="400" fill="#7C838B" text-anchor="start" letter-spacing="0"><tspan font-weight="700" fill="#2F2F2F">without being taught.</tspan></text><rect x="1175" y="334" width="110" height="3.6" rx="0" fill="#2F2F2F" opacity="0.85"/><text x="1230" y="372" font-family="'Roboto Slab', Georgia, serif" font-size="11.5" font-weight="700" fill="#2F2F2F" text-anchor="middle" letter-spacing="1" opacity="1"><tspan x="1230" dy="0">FIRST LAYER</tspan><tspan x="1230" dy="16">THE OBJECT</tspan></text><rect x="1175" y="402" width="110" height="3.6" rx="0" fill="#2F2F2F" opacity="0.85"/><path d="M 1078 370 L 1168 370" stroke="#C3C8CD" stroke-width="0.9" opacity="0.9" fill="none"/><circle cx="1177.0" cy="586" r="3.1" fill="#2F2F2F" opacity="0.85"/><path d="M 1182.2 586 L 1193.0 586" stroke="#2F2F2F" stroke-width="1" opacity="0.45" fill="none"/><circle cx="1198.2" cy="586" r="3.1" fill="#2F2F2F" opacity="0.85"/><path d="M 1203.4 586 L 1214.2 586" stroke="#2F2F2F" stroke-width="1" opacity="0.45" fill="none"/><circle cx="1219.4" cy="586" r="3.1" fill="#2F2F2F" opacity="0.85"/><path d="M 1224.6000000000001 586 L 1235.4 586" stroke="#2F2F2F" stroke-width="1" opacity="0.45" fill="none"/><circle cx="1240.6" cy="586" r="3.1" fill="#2F2F2F" opacity="0.85"/><path d="M 1245.8 586 L 1256.6 586" stroke="#2F2F2F" stroke-width="1" opacity="0.45" fill="none"/><circle cx="1261.8" cy="586" r="3.1" fill="#2F2F2F" opacity="0.85"/><path d="M 1267.0 586 L 1277.8 586" stroke="#2F2F2F" stroke-width="1" opacity="0.45" fill="none"/><circle cx="1283.0" cy="586" r="3.1" fill="#2F2F2F" opacity="0.85"/><text x="1230" y="622" font-family="'Roboto Slab', Georgia, serif" font-size="11.5" font-weight="700" fill="#2F2F2F" text-anchor="middle" letter-spacing="1" opacity="1"><tspan x="1230" dy="0">SECOND LAYER</tspan><tspan x="1230" dy="16">THE MECHANISM</tspan></text><circle cx="1177.0" cy="654" r="3.1" fill="#2F2F2F" opacity="0.85"/><path d="M 1182.2 654 L 1193.0 654" stroke="#2F2F2F" stroke-width="1" opacity="0.45" fill="none"/><circle cx="1198.2" cy="654" r="3.1" fill="#2F2F2F" opacity="0.85"/><path d="M 1203.4 654 L 1214.2 654" stroke="#2F2F2F" stroke-width="1" opacity="0.45" fill="none"/><circle cx="1219.4" cy="654" r="3.1" fill="#2F2F2F" opacity="0.85"/><path d="M 1224.6000000000001 654 L 1235.4 654" stroke="#2F2F2F" stroke-width="1" opacity="0.45" fill="none"/><circle cx="1240.6" cy="654" r="3.1" fill="#2F2F2F" opacity="0.85"/><path d="M 1245.8 654 L 1256.6 654" stroke="#2F2F2F" stroke-width="1" opacity="0.45" fill="none"/><circle cx="1261.8" cy="654" r="3.1" fill="#2F2F2F" opacity="0.85"/><path d="M 1267.0 654 L 1277.8 654" stroke="#2F2F2F" stroke-width="1" opacity="0.45" fill="none"/><circle cx="1283.0" cy="654" r="3.1" fill="#2F2F2F" opacity="0.85"/><path d="M 1078 620 L 1168 620" stroke="#C3C8CD" stroke-width="0.9" opacity="0.9" fill="none"/><circle cx="1177.0" cy="836" r="3.5" fill="#2F2F2F" opacity="0.85"/><circle cx="1198.2" cy="836" r="3.5" fill="#2F2F2F" opacity="0.85"/><circle cx="1219.4" cy="836" r="3.5" fill="#2F2F2F" opacity="0.85"/><circle cx="1240.6" cy="836" r="3.5" fill="#2F2F2F" opacity="0.85"/><circle cx="1261.8" cy="836" r="3.5" fill="#2F2F2F" opacity="0.85"/><circle cx="1283.0" cy="836" r="3.5" fill="#2F2F2F" opacity="0.85"/><text x="1230" y="872" font-family="'Roboto Slab', Georgia, serif" font-size="11.5" font-weight="700" fill="#2F2F2F" text-anchor="middle" letter-spacing="1" opacity="1"><tspan x="1230" dy="0">THIRD LAYER</tspan><tspan x="1230" dy="16">THE SCREEN</tspan></text><circle cx="1177.0" cy="904" r="3.5" fill="#2F2F2F" opacity="0.85"/><circle cx="1198.2" cy="904" r="3.5" fill="#2F2F2F" opacity="0.85"/><circle cx="1219.4" cy="904" r="3.5" fill="#2F2F2F" opacity="0.85"/><circle cx="1240.6" cy="904" r="3.5" fill="#2F2F2F" opacity="0.85"/><circle cx="1261.8" cy="904" r="3.5" fill="#2F2F2F" opacity="0.85"/><circle cx="1283.0" cy="904" r="3.5" fill="#2F2F2F" opacity="0.85"/><path d="M 1078 870 L 1168 870" stroke="#C3C8CD" stroke-width="0.9" opacity="0.9" fill="none"/><rect x="1365.0" y="300.0" width="60" height="60" rx="11" fill="#FDFEFF" stroke="#2F2F2F" stroke-width="1.15" opacity="0.9"/><g transform="translate(1378.4 313.4) scale(1.38)" opacity="0.92"><path fill="none" stroke="#2F2F2F" stroke-width="1.25" stroke-linejoin="round" stroke-linecap="round" d="M3.4 4.6 H20.6 V15.6 H11.4 L6.4 19.8 V15.6 H3.4 Z"/><path fill="none" stroke="#2F2F2F" stroke-width="1.25" stroke-linejoin="round" stroke-linecap="round" d="M7 8.6 H17 M7 12 H14"/></g><circle cx="1420.5" cy="304.5" r="3.4" fill="#E15F54" opacity="1"/><text x="1395" y="382" font-family="'Roboto Slab', Georgia, serif" font-size="11" font-weight="700" fill="#2F2F2F" text-anchor="middle" letter-spacing="1.8" opacity="1"><tspan x="1395" dy="0">NARRATIVE</tspan></text><path d="M 1426 330 C 1437.5 330 1437.5 305.0 1449 305.0" fill="none" stroke="#C3C8CD" stroke-width="0.9" opacity="0.8"/><circle cx="1462" cy="305.0" r="5.5" fill="#E15F54" opacity="1"/><circle cx="1462" cy="305.0" r="1.9" fill="#FDFEFF" opacity="1"/><text x="1479" y="309.5" font-family="'DM Sans', 'Helvetica Neue', Arial, sans-serif" font-size="12.5" font-weight="400" fill="#2F2F2F" text-anchor="start" letter-spacing="0">Billy and Buddy argue about it, so nobody has to lecture</text><path d="M 1453 326.0 L 1814 326.0" stroke="#DDE1E4" stroke-width="0.9" opacity="1" fill="none"/><path d="M 1426 330 C 1437.5 330 1437.5 355.0 1449 355.0" fill="none" stroke="#C3C8CD" stroke-width="0.9" opacity="0.8"/><circle cx="1462" cy="355.0" r="5.5" fill="#E15F54" opacity="1"/><circle cx="1462" cy="355.0" r="1.9" fill="#FDFEFF" opacity="1"/><text x="1479" y="359.5" font-family="'DM Sans', 'Helvetica Neue', Arial, sans-serif" font-size="12.5" font-weight="400" fill="#2F2F2F" text-anchor="start" letter-spacing="0">One idea a volume — sixteen ideas, not one lecture</text><path d="M 1453 376.0 L 1814 376.0" stroke="#DDE1E4" stroke-width="0.9" opacity="1" fill="none"/><path d="M 1292 370 L 1365 330" stroke="#C3C8CD" stroke-width="0.9" opacity="0.9" fill="none"/><rect x="1365.0" y="500.0" width="60" height="60" rx="11" fill="#FDFEFF" stroke="#2F2F2F" stroke-width="1.15" opacity="0.9"/><g transform="translate(1378.4 513.4) scale(1.38)" opacity="0.92"><path fill="none" stroke="#2F2F2F" stroke-width="1.25" stroke-linejoin="round" stroke-linecap="round" d="M2.6 6.6 H13.4 V17.4 H2.6 Z"/><path fill="none" stroke="#2F2F2F" stroke-width="1.25" stroke-linejoin="round" stroke-linecap="round" d="M13.4 12 H20.8 M17.6 8.8 L20.9 12 L17.6 15.2"/></g><circle cx="1420.5" cy="504.5" r="3.4" fill="#F0AF43" opacity="1"/><text x="1395" y="582" font-family="'Roboto Slab', Georgia, serif" font-size="11" font-weight="700" fill="#2F2F2F" text-anchor="middle" letter-spacing="1.8" opacity="1"><tspan x="1395" dy="0">MECHANISM</tspan></text><path d="M 1426 530 C 1437.5 530 1437.5 505.0 1449 505.0" fill="none" stroke="#C3C8CD" stroke-width="0.9" opacity="0.8"/><circle cx="1462" cy="505.0" r="5.5" fill="#F0AF43" opacity="1"/><circle cx="1462" cy="505.0" r="1.9" fill="#FDFEFF" opacity="1"/><text x="1479" y="509.5" font-family="'DM Sans', 'Helvetica Neue', Arial, sans-serif" font-size="12.5" font-weight="400" fill="#2F2F2F" text-anchor="start" letter-spacing="0">Pulling a tab is a decision made with their hands</text><path d="M 1453 526.0 L 1814 526.0" stroke="#DDE1E4" stroke-width="0.9" opacity="1" fill="none"/><path d="M 1426 530 C 1437.5 530 1437.5 555.0 1449 555.0" fill="none" stroke="#C3C8CD" stroke-width="0.9" opacity="0.8"/><circle cx="1462" cy="555.0" r="5.5" fill="#F0AF43" opacity="1"/><circle cx="1462" cy="555.0" r="1.9" fill="#FDFEFF" opacity="1"/><text x="1479" y="559.5" font-family="'DM Sans', 'Helvetica Neue', Arial, sans-serif" font-size="12.5" font-weight="400" fill="#2F2F2F" text-anchor="start" letter-spacing="0">Every mechanism survives a hundred openings</text><path d="M 1453 576.0 L 1814 576.0" stroke="#DDE1E4" stroke-width="0.9" opacity="1" fill="none"/><path d="M 1292 620 L 1365 530" stroke="#C3C8CD" stroke-width="0.9" opacity="0.9" fill="none"/><rect x="1365.0" y="700.0" width="60" height="60" rx="11" fill="#FDFEFF" stroke="#2F2F2F" stroke-width="1.15" opacity="0.9"/><g transform="translate(1378.4 713.4) scale(1.38)" opacity="0.92"><path fill="none" stroke="#2F2F2F" stroke-width="1.25" stroke-linejoin="round" stroke-linecap="round" d="M15.6 3.4 L19.6 4.6 L18.4 8.6"/></g><circle cx="1420.5" cy="704.5" r="3.4" fill="#1CAEA9" opacity="1"/><text x="1395" y="782" font-family="'Roboto Slab', Georgia, serif" font-size="11" font-weight="700" fill="#2F2F2F" text-anchor="middle" letter-spacing="1.8" opacity="1"><tspan x="1395" dy="0">REPLAY</tspan></text><path d="M 1426 730 C 1437.5 730 1437.5 705.0 1449 705.0" fill="none" stroke="#C3C8CD" stroke-width="0.9" opacity="0.8"/><circle cx="1462" cy="705.0" r="5.5" fill="#1CAEA9" opacity="1"/><circle cx="1462" cy="705.0" r="1.9" fill="#FDFEFF" opacity="1"/><text x="1479" y="709.5" font-family="'DM Sans', 'Helvetica Neue', Arial, sans-serif" font-size="12.5" font-weight="400" fill="#2F2F2F" text-anchor="start" letter-spacing="0">Mini games repeat the lesson with no adult in the room</text><path d="M 1453 726.0 L 1814 726.0" stroke="#DDE1E4" stroke-width="0.9" opacity="1" fill="none"/><path d="M 1426 730 C 1437.5 730 1437.5 755.0 1449 755.0" fill="none" stroke="#C3C8CD" stroke-width="0.9" opacity="0.8"/><circle cx="1462" cy="755.0" r="5.5" fill="#1CAEA9" opacity="1"/><circle cx="1462" cy="755.0" r="1.9" fill="#FDFEFF" opacity="1"/><text x="1479" y="759.5" font-family="'DM Sans', 'Helvetica Neue', Arial, sans-serif" font-size="12.5" font-weight="400" fill="#2F2F2F" text-anchor="start" letter-spacing="0">Progress the child can see stacking up between books</text><path d="M 1453 776.0 L 1814 776.0" stroke="#DDE1E4" stroke-width="0.9" opacity="1" fill="none"/><path d="M 1292 870 L 1365 730" stroke="#C3C8CD" stroke-width="0.9" opacity="0.9" fill="none"/><rect x="1365.0" y="890.0" width="60" height="60" rx="11" fill="#FDFEFF" stroke="#2F2F2F" stroke-width="1.15" opacity="0.9"/><g transform="translate(1378.4 903.4) scale(1.38)" opacity="0.92"><path fill="none" stroke="#2F2F2F" stroke-width="1.25" stroke-linejoin="round" stroke-linecap="round" d="M20 12 A8 8 0 1 1 12 4"/><path fill="none" stroke="#2F2F2F" stroke-width="1.25" stroke-linejoin="round" stroke-linecap="round" d="M8.6 7.4 L12 4 L15.4 7.6"/></g><circle cx="1420.5" cy="894.5" r="3.4" fill="#71A351" opacity="1"/><text x="1395" y="972" font-family="'Roboto Slab', Georgia, serif" font-size="11" font-weight="700" fill="#2F2F2F" text-anchor="middle" letter-spacing="1.8" opacity="1"><tspan x="1395" dy="0">WHAT COMES</tspan><tspan x="1395" dy="14">BACK</tspan></text><path d="M 1426 920 C 1437.5 920 1437.5 870.0 1449 870.0" fill="none" stroke="#C3C8CD" stroke-width="0.9" opacity="0.8"/><circle cx="1462" cy="870.0" r="5.5" fill="#71A351" opacity="1"/><circle cx="1462" cy="870.0" r="1.9" fill="#FDFEFF" opacity="1"/><text x="1479" y="874.5" font-family="'DM Sans', 'Helvetica Neue', Arial, sans-serif" font-size="12.5" font-weight="400" fill="#2F2F2F" text-anchor="start" letter-spacing="0">Which spreads get replayed, and which get skipped</text><path d="M 1453 891.0 L 1814 891.0" stroke="#DDE1E4" stroke-width="0.9" opacity="1" fill="none"/><path d="M 1426 920 C 1437.5 920 1437.5 920.0 1449 920.0" fill="none" stroke="#C3C8CD" stroke-width="0.9" opacity="0.8"/><circle cx="1462" cy="920.0" r="5.5" fill="#71A351" opacity="1"/><circle cx="1462" cy="920.0" r="1.9" fill="#FDFEFF" opacity="1"/><text x="1479" y="924.5" font-family="'DM Sans', 'Helvetica Neue', Arial, sans-serif" font-size="12.5" font-weight="400" fill="#2F2F2F" text-anchor="start" letter-spacing="0">Library and school demand sizes the next print run</text><path d="M 1453 941.0 L 1814 941.0" stroke="#DDE1E4" stroke-width="0.9" opacity="1" fill="none"/><path d="M 1426 920 C 1437.5 920 1437.5 970.0 1449 970.0" fill="none" stroke="#C3C8CD" stroke-width="0.9" opacity="0.8"/><circle cx="1462" cy="970.0" r="5.5" fill="#71A351" opacity="1"/><circle cx="1462" cy="970.0" r="1.9" fill="#FDFEFF" opacity="1"/><text x="1479" y="974.5" font-family="'DM Sans', 'Helvetica Neue', Arial, sans-serif" font-size="12.5" font-weight="400" fill="#2F2F2F" text-anchor="start" letter-spacing="0">Parents' notes become the next author brief</text><path d="M 1453 991.0 L 1814 991.0" stroke="#DDE1E4" stroke-width="0.9" opacity="1" fill="none"/><path d="M 1292 370 C 1328.5 370 1328.5 920 1365 920" fill="none" stroke="#71A351" stroke-width="0.8" opacity="0.35" stroke-dasharray="3 5"/><path d="M 1292 620 C 1328.5 620 1328.5 920 1365 920" fill="none" stroke="#71A351" stroke-width="0.8" opacity="0.35" stroke-dasharray="3 5"/><path d="M 1292 870 C 1328.5 870 1328.5 920 1365 920" fill="none" stroke="#71A351" stroke-width="0.8" opacity="0.35" stroke-dasharray="3 5"/><text x="100" y="1062" font-family="'Roboto Slab', Georgia, serif" font-size="10.5" font-weight="700" fill="#A9AFB5" text-anchor="start" letter-spacing="2.6" opacity="1"><tspan x="100" dy="0">ONE TURN OF THE SERVICE</tspan></text><path d="M 100 1076 L 1820 1076" stroke="#DDE1E4" stroke-width="1" opacity="1" fill="none"/><rect x="100" y="1096" width="122" height="22" rx="11" fill="#ECEAE2" opacity="1"/><circle cx="120.0" cy="1107" r="4.8" fill="#2F2F2F" opacity="1"/><circle cx="140.5" cy="1107" r="4.8" fill="none" stroke="#C3C8CD" stroke-width="1" opacity="1"/><circle cx="161.0" cy="1107" r="4.8" fill="none" stroke="#C3C8CD" stroke-width="1" opacity="1"/><circle cx="181.5" cy="1107" r="4.8" fill="none" stroke="#C3C8CD" stroke-width="1" opacity="1"/><circle cx="202.0" cy="1107" r="4.8" fill="none" stroke="#C3C8CD" stroke-width="1" opacity="1"/><text x="100" y="1156" font-family="'Roboto Slab', Georgia, serif" font-size="11" font-weight="700" fill="#A9AFB5" text-anchor="start" letter-spacing="1.6" opacity="1"><tspan x="100" dy="0">01</tspan></text><text x="130" y="1156" font-family="'Roboto Slab', Georgia, serif" font-size="17" font-weight="500" fill="#2F2F2F" text-anchor="start" letter-spacing="0" opacity="1"><tspan x="130" dy="0">Parents subscribe</tspan><tspan x="130" dy="22">to the service</tspan></text><rect x="100" y="1200" width="316" height="132" rx="12" fill="none" stroke="#DDE1E4" stroke-width="1" opacity="1"/><circle cx="124" cy="1240" r="5.5" fill="#E15F54" opacity="1"/><circle cx="124" cy="1240" r="1.9" fill="#FDFEFF" opacity="1"/><text x="141" y="1244.5" font-family="'DM Sans', 'Helvetica Neue', Arial, sans-serif" font-size="12" font-weight="400" fill="#7C838B" text-anchor="start" letter-spacing="0">$100 a year, or $10 a month</text><circle cx="124" cy="1286" r="5.5" fill="#E15F54" opacity="1"/><circle cx="124" cy="1286" r="1.9" fill="#FDFEFF" opacity="1"/><text x="141" y="1290.5" font-family="'DM Sans', 'Helvetica Neue', Arial, sans-serif" font-size="12" font-weight="400" fill="#7C838B" text-anchor="start" letter-spacing="0">One payment covers all sixteen volumes</text><rect x="451" y="1096" width="122" height="22" rx="11" fill="#ECEAE2" opacity="1"/><circle cx="471.0" cy="1107" r="4.8" fill="none" stroke="#C3C8CD" stroke-width="1" opacity="1"/><circle cx="491.5" cy="1107" r="4.8" fill="#2F2F2F" opacity="1"/><circle cx="512.0" cy="1107" r="4.8" fill="none" stroke="#C3C8CD" stroke-width="1" opacity="1"/><circle cx="532.5" cy="1107" r="4.8" fill="none" stroke="#C3C8CD" stroke-width="1" opacity="1"/><circle cx="553.0" cy="1107" r="4.8" fill="none" stroke="#C3C8CD" stroke-width="1" opacity="1"/><text x="451" y="1156" font-family="'Roboto Slab', Georgia, serif" font-size="11" font-weight="700" fill="#A9AFB5" text-anchor="start" letter-spacing="1.6" opacity="1"><tspan x="451" dy="0">02</tspan></text><text x="481" y="1156" font-family="'Roboto Slab', Georgia, serif" font-size="17" font-weight="500" fill="#2F2F2F" text-anchor="start" letter-spacing="0" opacity="1"><tspan x="481" dy="0">Content</tspan><tspan x="481" dy="22">development</tspan></text><rect x="451" y="1200" width="316" height="132" rx="12" fill="none" stroke="#DDE1E4" stroke-width="1" opacity="1"/><circle cx="475" cy="1240" r="5.5" fill="#F0AF43" opacity="1"/><circle cx="475" cy="1240" r="1.9" fill="#FDFEFF" opacity="1"/><text x="492" y="1244.5" font-family="'DM Sans', 'Helvetica Neue', Arial, sans-serif" font-size="12" font-weight="400" fill="#7C838B" text-anchor="start" letter-spacing="0">Curated, drawn, fact-checked, edited</text><circle cx="475" cy="1286" r="5.5" fill="#F0AF43" opacity="1"/><circle cx="475" cy="1286" r="1.9" fill="#FDFEFF" opacity="1"/><text x="492" y="1290.5" font-family="'DM Sans', 'Helvetica Neue', Arial, sans-serif" font-size="12" font-weight="400" fill="#7C838B" text-anchor="start" letter-spacing="0">Four people, one idea, one quarter</text><rect x="802" y="1096" width="122" height="22" rx="11" fill="#ECEAE2" opacity="1"/><circle cx="822.0" cy="1107" r="4.8" fill="none" stroke="#C3C8CD" stroke-width="1" opacity="1"/><circle cx="842.5" cy="1107" r="4.8" fill="none" stroke="#C3C8CD" stroke-width="1" opacity="1"/><circle cx="863.0" cy="1107" r="4.8" fill="#2F2F2F" opacity="1"/><circle cx="883.5" cy="1107" r="4.8" fill="none" stroke="#C3C8CD" stroke-width="1" opacity="1"/><circle cx="904.0" cy="1107" r="4.8" fill="none" stroke="#C3C8CD" stroke-width="1" opacity="1"/><text x="802" y="1156" font-family="'Roboto Slab', Georgia, serif" font-size="11" font-weight="700" fill="#A9AFB5" text-anchor="start" letter-spacing="1.6" opacity="1"><tspan x="802" dy="0">03</tspan></text><text x="832" y="1156" font-family="'Roboto Slab', Georgia, serif" font-size="17" font-weight="500" fill="#2F2F2F" text-anchor="start" letter-spacing="0" opacity="1"><tspan x="832" dy="0">Print and</tspan><tspan x="832" dy="22">publication</tspan></text><rect x="802" y="1200" width="316" height="132" rx="12" fill="none" stroke="#DDE1E4" stroke-width="1" opacity="1"/><circle cx="826" cy="1240" r="5.5" fill="#F0AF43" opacity="1"/><circle cx="826" cy="1240" r="1.9" fill="#FDFEFF" opacity="1"/><text x="843" y="1244.5" font-family="'DM Sans', 'Helvetica Neue', Arial, sans-serif" font-size="12" font-weight="400" fill="#7C838B" text-anchor="start" letter-spacing="0">Pop-up mechanics cut, folded, glued</text><circle cx="826" cy="1286" r="5.5" fill="#F0AF43" opacity="1"/><circle cx="826" cy="1286" r="1.9" fill="#FDFEFF" opacity="1"/><text x="843" y="1290.5" font-family="'DM Sans', 'Helvetica Neue', Arial, sans-serif" font-size="12" font-weight="400" fill="#7C838B" text-anchor="start" letter-spacing="0">A proof copy is opened before the run</text><rect x="1153" y="1096" width="122" height="22" rx="11" fill="#ECEAE2" opacity="1"/><circle cx="1173.0" cy="1107" r="4.8" fill="none" stroke="#C3C8CD" stroke-width="1" opacity="1"/><circle cx="1193.5" cy="1107" r="4.8" fill="none" stroke="#C3C8CD" stroke-width="1" opacity="1"/><circle cx="1214.0" cy="1107" r="4.8" fill="none" stroke="#C3C8CD" stroke-width="1" opacity="1"/><circle cx="1234.5" cy="1107" r="4.8" fill="#2F2F2F" opacity="1"/><circle cx="1255.0" cy="1107" r="4.8" fill="none" stroke="#C3C8CD" stroke-width="1" opacity="1"/><text x="1153" y="1156" font-family="'Roboto Slab', Georgia, serif" font-size="11" font-weight="700" fill="#A9AFB5" text-anchor="start" letter-spacing="1.6" opacity="1"><tspan x="1153" dy="0">04</tspan></text><text x="1183" y="1156" font-family="'Roboto Slab', Georgia, serif" font-size="17" font-weight="500" fill="#2F2F2F" text-anchor="start" letter-spacing="0" opacity="1"><tspan x="1183" dy="0">Delivery</tspan><tspan x="1183" dy="22">channels</tspan></text><rect x="1153" y="1200" width="316" height="132" rx="12" fill="none" stroke="#DDE1E4" stroke-width="1" opacity="1"/><circle cx="1177" cy="1240" r="5.5" fill="#71A351" opacity="1"/><circle cx="1177" cy="1240" r="1.9" fill="#FDFEFF" opacity="1"/><text x="1194" y="1244.5" font-family="'DM Sans', 'Helvetica Neue', Arial, sans-serif" font-size="12" font-weight="400" fill="#7C838B" text-anchor="start" letter-spacing="0">Libraries and educational institutions</text><circle cx="1177" cy="1286" r="5.5" fill="#71A351" opacity="1"/><circle cx="1177" cy="1286" r="1.9" fill="#FDFEFF" opacity="1"/><text x="1194" y="1290.5" font-family="'DM Sans', 'Helvetica Neue', Arial, sans-serif" font-size="12" font-weight="400" fill="#7C838B" text-anchor="start" letter-spacing="0">And a box on the mat at home</text><rect x="1504" y="1096" width="122" height="22" rx="11" fill="#ECEAE2" opacity="1"/><circle cx="1524.0" cy="1107" r="4.8" fill="none" stroke="#C3C8CD" stroke-width="1" opacity="1"/><circle cx="1544.5" cy="1107" r="4.8" fill="none" stroke="#C3C8CD" stroke-width="1" opacity="1"/><circle cx="1565.0" cy="1107" r="4.8" fill="none" stroke="#C3C8CD" stroke-width="1" opacity="1"/><circle cx="1585.5" cy="1107" r="4.8" fill="none" stroke="#C3C8CD" stroke-width="1" opacity="1"/><circle cx="1606.0" cy="1107" r="4.8" fill="#2F2F2F" opacity="1"/><text x="1504" y="1156" font-family="'Roboto Slab', Georgia, serif" font-size="11" font-weight="700" fill="#A9AFB5" text-anchor="start" letter-spacing="1.6" opacity="1"><tspan x="1504" dy="0">05</tspan></text><text x="1534" y="1156" font-family="'Roboto Slab', Georgia, serif" font-size="17" font-weight="500" fill="#2F2F2F" text-anchor="start" letter-spacing="0" opacity="1"><tspan x="1534" dy="0">Interactive books</tspan><tspan x="1534" dy="22">and website</tspan></text><rect x="1504" y="1200" width="316" height="132" rx="12" fill="none" stroke="#DDE1E4" stroke-width="1" opacity="1"/><circle cx="1528" cy="1240" r="5.5" fill="#1CAEA9" opacity="1"/><circle cx="1528" cy="1240" r="1.9" fill="#FDFEFF" opacity="1"/><text x="1545" y="1244.5" font-family="'DM Sans', 'Helvetica Neue', Arial, sans-serif" font-size="12" font-weight="400" fill="#7C838B" text-anchor="start" letter-spacing="0">Read it, pull it, argue with it</text><circle cx="1528" cy="1286" r="5.5" fill="#1CAEA9" opacity="1"/><circle cx="1528" cy="1286" r="1.9" fill="#FDFEFF" opacity="1"/><text x="1545" y="1290.5" font-family="'DM Sans', 'Helvetica Neue', Arial, sans-serif" font-size="12" font-weight="400" fill="#7C838B" text-anchor="start" letter-spacing="0">Then play the lesson back online</text><path d="M 1832 1292 H 1868 Q 1884 1292 1884 1308 V 1396 Q 1884 1412 1868 1412 H 84 Q 68 1412 68 1396 V 1308 Q 68 1292 84 1292 H 96" fill="none" stroke="#1CAEA9" stroke-width="1.2" stroke-dasharray="4 6" opacity="0.85" marker-end="url(#mkt)"/><rect x="806" y="1399" width="308" height="27" rx="13.5" fill="#FDFEFF" opacity="1"/><path d="M 906.3 1409.7 L 1092.2 1406.7 L 1090.2 1421.2 L 905.3 1419.2 Z" fill="#1CAEA9" opacity="0.22"/><text x="833.8" y="1417" font-family="'Roboto Slab', Georgia, serif" font-size="11" font-weight="700" fill="#1CAEA9" text-anchor="start" letter-spacing="2.2">AND THEN IT COMES ROUND AGAIN</text></svg>