<svg width="173" height="170" viewBox="0 0 173 170" fill="none" xmlns="http://www.w3.org/2000/svg">
<rect width="173" height="170" rx="5" fill="#F6F0E2"/>
<path d="M111.445 16.5H140.198C141.33 16.5001 142.32 17.2598 142.613 18.3525L143.564 21.9062C143.975 23.4362 145.361 24.4999 146.945 24.5H154C155.381 24.5 156.5 25.6193 156.5 27V152C156.5 153.381 155.381 154.5 154 154.5H19C17.6193 154.5 16.5 153.381 16.5 152V27C16.5 25.6193 17.6193 24.5 19 24.5H104.698C106.282 24.4999 107.669 23.4362 108.079 21.9062L109.03 18.3525C109.323 17.2598 110.314 16.5001 111.445 16.5Z" fill="#F6F0E2" stroke="#0051E7"/>
<path d="M111.445 106.5H140.198C141.33 106.5 142.32 107.26 142.613 108.353L143.564 111.906C143.975 113.436 145.361 114.5 146.945 114.5H156.772C158.225 114.5 159.372 115.734 159.266 117.183L156.705 152.183C156.609 153.489 155.522 154.5 154.212 154.5H18.7881C17.4784 154.5 16.3906 153.489 16.2949 152.183L13.7344 117.183C13.6284 115.734 14.775 114.5 16.2275 114.5H104.698C106.282 114.5 107.669 113.436 108.079 111.906L109.03 108.353C109.323 107.26 110.314 106.5 111.445 106.5Z" fill="#F6F0E2" stroke="#0051E7"/>
<path d="M61.4453 111.5H90.1982C91.3296 111.5 92.3204 112.26 92.6133 113.353L93.5645 116.906C93.9745 118.436 95.3614 119.5 96.9453 119.5H158.555C160.072 119.5 161.24 120.841 161.031 122.344L156.864 152.344C156.693 153.58 155.636 154.5 154.388 154.5H18.6123C17.3645 154.5 16.3074 153.58 16.1357 152.344L11.9688 122.344C11.7602 120.841 12.928 119.5 14.4453 119.5H54.6982C56.2822 119.5 57.669 118.436 58.0791 116.906L59.0303 113.353C59.3232 112.26 60.314 111.5 61.4453 111.5Z" fill="#F6F0E2" stroke="#0051E7"/>
<path d="M54.4453 117.5H83.1982C84.3296 117.5 85.3204 118.26 85.6133 119.353L86.5645 122.906C86.9745 124.436 88.3614 125.5 89.9453 125.5H158.459C160.004 125.5 161.179 126.887 160.925 128.411L156.925 152.411C156.724 153.616 155.681 154.5 154.459 154.5H18.541C17.3191 154.5 16.2761 153.616 16.0752 152.411L12.0752 128.411C11.8212 126.887 12.9963 125.5 14.541 125.5H47.6982C49.2822 125.5 50.669 124.436 51.0791 122.906L52.0303 119.353C52.3232 118.26 53.314 117.5 54.4453 117.5Z" fill="#F6F0E2" stroke="#0051E7"/>
<path d="M74.4453 122.5H103.198C104.33 122.5 105.32 123.26 105.613 124.353L106.564 127.906C106.975 129.436 108.361 130.5 109.945 130.5H158.341C159.918 130.5 161.101 131.943 160.792 133.49L156.992 152.49C156.759 153.659 155.733 154.5 154.541 154.5H18.459C17.2675 154.5 16.2415 153.659 16.0078 152.49L12.208 133.49C11.8987 131.943 13.0817 130.5 14.6592 130.5H67.6982C69.2822 130.5 70.669 129.436 71.0791 127.906L72.0303 124.353C72.3232 123.26 73.314 122.5 74.4453 122.5Z" fill="#F6F0E2" stroke="#0051E7"/>
<path fill-rule="evenodd" clip-rule="evenodd" d="M157.684 152.949L160.684 143.949C161.331 142.006 159.885 140 157.838 140H147.644H110H15.1623C13.1146 140 11.6687 142.006 12.3162 143.949L15.3162 152.949C15.7246 154.174 16.871 155 18.1623 155H154.838C156.129 155 157.275 154.174 157.684 152.949Z" fill="#F6F0E2"/>
<path d="M110 140H147.644L146.279 134.818C145.807 133.715 144.722 133 143.522 133H114.122C112.922 133 111.837 133.715 111.364 134.818L110 140Z" fill="#0051E7"/>
<path d="M143.522 132.5L143.783 132.51C144.991 132.6 146.068 133.31 146.627 134.385L146.739 134.621L146.754 134.655L146.763 134.69L148.028 139.5H157.838C160.227 139.5 161.913 141.84 161.158 144.106L158.158 153.106C157.682 154.536 156.344 155.5 154.838 155.5H18.1621C16.6557 155.5 15.3182 154.536 14.8418 153.106L11.8418 144.106C11.0866 141.84 12.7734 139.5 15.1621 139.5H109.615L110.881 134.69L110.89 134.655L110.904 134.621C111.456 133.335 112.721 132.5 114.121 132.5H143.522Z" stroke="#0051E7"/>
<path d="M123.914 138.072C123.658 138.072 123.42 138.034 123.2 137.958C122.984 137.878 122.796 137.764 122.636 137.616C122.476 137.464 122.356 137.282 122.276 137.07L123.074 136.782C123.11 136.902 123.17 137.008 123.254 137.1C123.338 137.188 123.438 137.256 123.554 137.304C123.674 137.348 123.8 137.37 123.932 137.37C124.048 137.37 124.158 137.352 124.262 137.316C124.37 137.28 124.458 137.224 124.526 137.148C124.598 137.068 124.634 136.972 124.634 136.86C124.634 136.72 124.578 136.612 124.466 136.536C124.354 136.456 124.172 136.39 123.92 136.338L123.548 136.26C123.316 136.212 123.11 136.142 122.93 136.05C122.754 135.954 122.616 135.83 122.516 135.678C122.42 135.522 122.372 135.334 122.372 135.114C122.372 134.874 122.444 134.664 122.588 134.484C122.736 134.304 122.928 134.166 123.164 134.07C123.4 133.97 123.66 133.92 123.944 133.92C124.14 133.92 124.332 133.95 124.52 134.01C124.712 134.066 124.886 134.156 125.042 134.28C125.198 134.404 125.318 134.566 125.402 134.766L124.61 135.06C124.57 134.964 124.512 134.884 124.436 134.82C124.364 134.756 124.28 134.708 124.184 134.676C124.092 134.64 123.992 134.622 123.884 134.622C123.764 134.622 123.656 134.64 123.56 134.676C123.464 134.712 123.388 134.764 123.332 134.832C123.276 134.896 123.248 134.978 123.248 135.078C123.248 135.186 123.29 135.276 123.374 135.348C123.462 135.42 123.582 135.472 123.734 135.504L124.166 135.6C124.43 135.652 124.662 135.724 124.862 135.816C125.062 135.908 125.218 136.028 125.33 136.176C125.446 136.324 125.504 136.518 125.504 136.758C125.504 137.026 125.43 137.258 125.282 137.454C125.138 137.65 124.944 137.802 124.7 137.91C124.46 138.018 124.198 138.072 123.914 138.072ZM125.863 138L127.105 133.992L128.029 133.992L129.271 138L128.461 138L128.239 137.244L126.859 137.244L126.637 138L125.863 138ZM127.045 136.542L128.047 136.542L127.561 134.88L127.537 134.88L127.045 136.542ZM130.776 138L129.552 133.992L130.404 133.992L131.25 137.1L131.274 137.1L132.12 133.992L132.924 133.992L131.7 138L130.776 138ZM133.607 138L133.607 133.992L136.343 133.992L136.343 134.76L134.477 134.76L134.477 135.558L135.653 135.558L135.653 136.32L134.477 136.32L134.477 137.232L136.367 137.232L136.367 138L133.607 138Z" fill="#F6F0E2"/>
<path d="M19.396 18L19.396 13.992L20.914 13.992C21.186 13.992 21.434 14.036 21.658 14.124C21.882 14.208 22.06 14.34 22.192 14.52C22.328 14.7 22.396 14.936 22.396 15.228C22.396 15.556 22.31 15.812 22.138 15.996C21.966 16.18 21.746 16.306 21.478 16.374L22.558 18L21.616 18L20.638 16.47L20.194 16.47L20.194 18L19.396 18ZM20.194 15.78L20.902 15.78C21.03 15.78 21.144 15.762 21.244 15.726C21.344 15.686 21.422 15.626 21.478 15.546C21.534 15.466 21.562 15.36 21.562 15.228C21.562 15.096 21.534 14.992 21.478 14.916C21.422 14.836 21.344 14.778 21.244 14.742C21.144 14.702 21.03 14.682 20.902 14.682L20.194 14.682L20.194 15.78ZM23.865 18L23.865 13.992L26.601 13.992L26.601 14.76L24.735 14.76L24.735 15.558L25.911 15.558L25.911 16.32L24.735 16.32L24.735 17.232L26.625 17.232L26.625 18L23.865 18ZM27.77 18L27.77 13.992L28.85 13.992L29.444 16.908L29.468 16.908L30.062 13.992L31.106 13.992L31.106 18L30.446 18L30.446 14.85L30.422 14.85L29.762 18L29.102 18L28.442 14.85L28.418 14.85L28.418 18L27.77 18ZM32.407 18L32.407 13.992L35.143 13.992L35.143 14.76L33.277 14.76L33.277 15.558L34.453 15.558L34.453 16.32L33.277 16.32L33.277 17.232L35.167 17.232L35.167 18L32.407 18ZM36.3121 18L36.3121 13.992L37.3921 13.992L37.9861 16.908L38.0101 16.908L38.6041 13.992L39.6481 13.992L39.6481 18L38.9881 18L38.9881 14.85L38.9641 14.85L38.3041 18L37.6441 18L36.9841 14.85L36.9601 14.85L36.9601 18L36.3121 18ZM40.8171 18L40.8171 13.992L42.3831 13.992C42.6751 13.992 42.9211 14.032 43.1211 14.112C43.3251 14.188 43.4791 14.302 43.5831 14.454C43.6871 14.606 43.7391 14.798 43.7391 15.03C43.7391 15.154 43.7191 15.272 43.6791 15.384C43.6391 15.492 43.5811 15.588 43.5051 15.672C43.4291 15.756 43.3351 15.824 43.2231 15.876C43.3431 15.916 43.4531 15.978 43.5531 16.062C43.6571 16.142 43.7391 16.246 43.7991 16.374C43.8631 16.502 43.8951 16.654 43.8951 16.83C43.8951 17.094 43.8351 17.314 43.7151 17.49C43.5991 17.662 43.4331 17.79 43.2171 17.874C43.0011 17.958 42.7471 18 42.4551 18L40.8171 18ZM41.6151 17.31L42.4491 17.31C42.5851 17.31 42.6991 17.29 42.7911 17.25C42.8831 17.206 42.9511 17.144 42.9951 17.064C43.0431 16.984 43.0671 16.892 43.0671 16.788C43.0671 16.632 43.0151 16.51 42.9111 16.422C42.8071 16.334 42.6511 16.29 42.4431 16.29L41.6151 16.29L41.6151 17.31ZM41.6151 15.6L42.4011 15.6C42.5691 15.6 42.6991 15.558 42.7911 15.474C42.8831 15.386 42.9291 15.274 42.9291 15.138C42.9291 15.002 42.8831 14.892 42.7911 14.808C42.6991 14.724 42.5651 14.682 42.3891 14.682L41.6151 14.682L41.6151 15.6ZM45.2201 18L45.2201 13.992L47.9561 13.992L47.9561 14.76L46.0901 14.76L46.0901 15.558L47.2661 15.558L47.2661 16.32L46.0901 16.32L46.0901 17.232L47.9801 17.232L47.9801 18L45.2201 18ZM49.2931 18L49.2931 13.992L50.8111 13.992C51.0831 13.992 51.3311 14.036 51.5551 14.124C51.7791 14.208 51.9571 14.34 52.0891 14.52C52.2251 14.7 52.2931 14.936 52.2931 15.228C52.2931 15.556 52.2071 15.812 52.0351 15.996C51.8631 16.18 51.6431 16.306 51.3751 16.374L52.4551 18L51.5131 18L50.5351 16.47L50.0911 16.47L50.0911 18L49.2931 18ZM50.0911 15.78L50.7991 15.78C50.9271 15.78 51.0411 15.762 51.1411 15.726C51.2411 15.686 51.3191 15.626 51.3751 15.546C51.4311 15.466 51.4591 15.36 51.4591 15.228C51.4591 15.096 51.4311 14.992 51.3751 14.916C51.3191 14.836 51.2411 14.778 51.1411 14.742C51.0411 14.702 50.9271 14.682 50.7991 14.682L50.0911 14.682L50.0911 15.78ZM58.8971 18L58.8971 14.76L57.7511 14.76L57.7511 13.992L60.9191 13.992L60.9191 14.76L59.7731 14.76L59.7731 18L58.8971 18ZM63.6062 18.072C63.2582 18.072 62.9582 17.988 62.7062 17.82C62.4582 17.648 62.2662 17.406 62.1302 17.094C61.9982 16.782 61.9322 16.416 61.9322 15.996C61.9322 15.576 61.9982 15.21 62.1302 14.898C62.2662 14.586 62.4582 14.346 62.7062 14.178C62.9582 14.006 63.2582 13.92 63.6062 13.92C63.9542 13.92 64.2522 14.006 64.5002 14.178C64.7522 14.346 64.9442 14.586 65.0762 14.898C65.2122 15.21 65.2802 15.576 65.2802 15.996C65.2802 16.416 65.2122 16.782 65.0762 17.094C64.9442 17.406 64.7522 17.648 64.5002 17.82C64.2522 17.988 63.9542 18.072 63.6062 18.072ZM63.6062 17.376C63.7742 17.376 63.9182 17.324 64.0382 17.22C64.1622 17.116 64.2582 16.962 64.3262 16.758C64.3942 16.554 64.4282 16.3 64.4282 15.996C64.4282 15.692 64.3942 15.438 64.3262 15.234C64.2582 15.03 64.1622 14.876 64.0382 14.772C63.9182 14.668 63.7742 14.616 63.6062 14.616C63.4422 14.616 63.2982 14.668 63.1742 14.772C63.0502 14.876 62.9542 15.03 62.8862 15.234C62.8182 15.438 62.7842 15.692 62.7842 15.996C62.7842 16.3 62.8182 16.554 62.8862 16.758C62.9542 16.962 63.0502 17.116 63.1742 17.22C63.2982 17.324 63.4422 17.376 63.6062 17.376ZM67.8772 18.072C67.7692 18.072 67.6672 18.046 67.5712 17.994C67.4792 17.938 67.4052 17.864 67.3492 17.772C67.2972 17.676 67.2712 17.574 67.2712 17.466C67.2712 17.35 67.2972 17.248 67.3492 17.16C67.4052 17.068 67.4792 16.994 67.5712 16.938C67.6672 16.882 67.7692 16.854 67.8772 16.854C67.9892 16.854 68.0912 16.882 68.1832 16.938C68.2752 16.994 68.3472 17.068 68.3992 17.16C68.4552 17.248 68.4832 17.35 68.4832 17.466C68.4832 17.574 68.4552 17.676 68.3992 17.772C68.3472 17.864 68.2752 17.938 68.1832 17.994C68.0912 18.046 67.9892 18.072 67.8772 18.072ZM72.1482 18.072C72.0402 18.072 71.9382 18.046 71.8422 17.994C71.7502 17.938 71.6762 17.864 71.6202 17.772C71.5682 17.676 71.5422 17.574 71.5422 17.466C71.5422 17.35 71.5682 17.248 71.6202 17.16C71.6762 17.068 71.7502 16.994 71.8422 16.938C71.9382 16.882 72.0402 16.854 72.1482 16.854C72.2602 16.854 72.3622 16.882 72.4542 16.938C72.5462 16.994 72.6182 17.068 72.6702 17.16C72.7262 17.248 72.7542 17.35 72.7542 17.466C72.7542 17.574 72.7262 17.676 72.6702 17.772C72.6182 17.864 72.5462 17.938 72.4542 17.994C72.3622 18.046 72.2602 18.072 72.1482 18.072ZM76.4192 18.072C76.3112 18.072 76.2092 18.046 76.1132 17.994C76.0212 17.938 75.9472 17.864 75.8912 17.772C75.8392 17.676 75.8132 17.574 75.8132 17.466C75.8132 17.35 75.8392 17.248 75.8912 17.16C75.9472 17.068 76.0212 16.994 76.1132 16.938C76.2092 16.882 76.3112 16.854 76.4192 16.854C76.5312 16.854 76.6332 16.882 76.7252 16.938C76.8172 16.994 76.8892 17.068 76.9412 17.16C76.9972 17.248 77.0252 17.35 77.0252 17.466C77.0252 17.574 76.9972 17.676 76.9412 17.772C76.8892 17.864 76.8172 17.938 76.7252 17.994C76.6332 18.046 76.5312 18.072 76.4192 18.072Z" fill="#0051E7"/>
</svg>
