<svg width="170" height="170" viewBox="0 0 170 170" fill="none" xmlns="http://www.w3.org/2000/svg">
<g clip-path="url(#clip0_942_4945)">
<rect width="170" height="170" rx="3" fill="#FF9AC4"/>
<rect x="9.5" y="9.5" width="150" height="150" rx="5.87317" fill="#FCFEFF" stroke="#000912" stroke-width="3"/>
<rect x="2.12386" y="155.52" width="89.5138" height="20.3349" transform="rotate(-94.8678 2.12386 155.52)" fill="#FF9AC4" stroke="black" stroke-width="2"/>
<rect x="-1.08125" y="-0.911536" width="12.1916" height="20.3349" transform="matrix(0.084857 0.996393 0.996393 -0.084857 2.3477 147.408)" fill="#FF5E00" stroke="black" stroke-width="2"/>
<path d="M2.54228 160.41C2.54246 160.409 2.55536 160.408 3.28647 160.333L2.5422 160.409L2.19739 156.36L22.5203 154.629L22.8619 158.64C22.8651 158.664 22.8693 158.698 22.8742 158.739C22.8842 158.823 22.8977 158.941 22.91 159.09C22.9346 159.387 22.9578 159.807 22.9543 160.312C22.9472 161.317 22.8334 162.686 22.3961 164.104C21.9578 165.525 21.1842 167.024 19.8383 168.238C18.4836 169.46 16.611 170.335 14.0794 170.6C11.5398 170.864 9.49897 170.371 7.8826 169.43C6.2779 168.496 5.15519 167.159 4.375 165.83C3.59579 164.502 3.14103 163.155 2.88046 162.148C2.74956 161.643 2.66578 161.217 2.61457 160.913C2.58894 160.762 2.57191 160.64 2.56047 160.554C2.55475 160.512 2.54977 160.477 2.5469 160.453C2.54549 160.441 2.54424 160.431 2.54344 160.424L2.54228 160.41Z" fill="#000912" stroke="black" stroke-width="2"/>
<path d="M-5.17611 70.0148L15.0855 68.2892L14.7007 63.7714L14.5726 63.5667L5.97449 49.818C4.85602 48.0296 2.19482 48.212 1.33043 50.1361L-5.45606 65.243L-5.56236 65.4795L-5.17611 70.0148Z" fill="#F2DBB8" stroke="black" stroke-width="2"/>
<rect x="84.653" y="117.269" width="34.174" height="97.8265" rx="3.86213" transform="rotate(-62.7354 84.653 117.269)" fill="#000912" stroke="#000912" stroke-width="2.80883"/>
<rect x="75.6139" y="163.294" width="33.9829" height="97.6354" rx="3.76655" transform="rotate(-85.4656 75.6139 163.294)" fill="#FCFEFF" stroke="#000912" stroke-width="3"/>
<path d="M145 18C145.182 20.6823 147.318 22.8177 150 23C147.318 23.1823 145.182 25.3177 145 28C144.818 25.3177 142.682 23.1823 140 23C142.682 22.8177 144.818 20.6823 145 18Z" fill="#000912"/>
</g>
<defs>
<clipPath id="clip0_942_4945">
<rect width="170" height="170" rx="3" fill="white"/>
</clipPath>
</defs>
</svg>
